<svg width="40" height="40" viewBox="0 0 40 40" fill="none" xmlns="http://www.w3.org/2000/svg">
<path d="M26.6666 13.3333V8.33331C26.6666 6.49997 28.1666 4.99997 30 4.99997M20 21.6666H26.6666M20 7.49997C20.0062 6.45727 19.6212 5.45015 18.921 4.67746C18.2208 3.90478 17.2564 3.4227 16.2182 3.32641C15.1799 3.23012 14.1433 3.52662 13.3129 4.15736C12.4826 4.78811 11.919 5.70725 11.7333 6.73331C11.1839 6.83624 10.6608 7.04867 10.1952 7.35794C9.72958 7.66722 9.33096 8.06702 9.02305 8.53354C8.71515 9.00006 8.50426 9.52377 8.40294 10.0735C8.30163 10.6232 8.31195 11.1877 8.43331 11.7333C7.68108 11.8668 6.98004 12.2046 6.40685 12.7097C5.83366 13.2149 5.41037 13.8678 5.18328 14.5973C4.95618 15.3267 4.93402 16.1046 5.1192 16.8458C5.30439 17.587 5.68981 18.263 6.23331 18.8C5.31919 19.222 4.55378 19.9102 4.03725 20.7744C3.52072 21.6386 3.27713 22.6387 3.33836 23.6436C3.39959 24.6486 3.7628 25.6117 4.38044 26.4068C4.99808 27.2019 5.84138 27.7921 6.79997 28.1C6.61695 28.7914 6.61499 29.5183 6.79428 30.2107C6.97358 30.9031 7.32809 31.5377 7.82369 32.0534C8.31929 32.5691 8.9393 32.9485 9.62403 33.1552C10.3088 33.3618 11.0352 33.3887 11.7333 33.2333C11.9063 34.1864 12.406 35.0495 13.1465 35.6741C13.887 36.2986 14.8219 36.6457 15.7905 36.6556C16.7592 36.6654 17.701 36.3375 18.454 35.7281C19.2071 35.1187 19.7243 34.266 19.9166 33.3166L20 33.3333V7.49997Z" stroke="#0F0F0F" stroke-width="3.33333" stroke-linecap="round" stroke-linejoin="round"/>
<path d="M20 30H30C30.8841 30 31.7319 30.3512 32.357 30.9763C32.9821 31.6014 33.3333 32.4493 33.3333 33.3333V35M20 13.3333H33.3333M34.1667 13.3333C34.1667 13.5543 34.0789 13.7663 33.9226 13.9226C33.7663 14.0789 33.5543 14.1667 33.3333 14.1667C33.1123 14.1667 32.9004 14.0789 32.7441 13.9226C32.5878 13.7663 32.5 13.5543 32.5 13.3333C32.5 13.1123 32.5878 12.9004 32.7441 12.7441C32.9004 12.5878 33.1123 12.5 33.3333 12.5C33.5543 12.5 33.7663 12.5878 33.9226 12.7441C34.0789 12.9004 34.1667 13.1123 34.1667 13.3333ZM27.5 21.6667C27.5 21.8877 27.4122 22.0996 27.2559 22.2559C27.0996 22.4122 26.8877 22.5 26.6667 22.5C26.4457 22.5 26.2337 22.4122 26.0774 22.2559C25.9211 22.0996 25.8333 21.8877 25.8333 21.6667C25.8333 21.4457 25.9211 21.2337 26.0774 21.0774C26.2337 20.9211 26.4457 20.8333 26.6667 20.8333C26.8877 20.8333 27.0996 20.9211 27.2559 21.0774C27.4122 21.2337 27.5 21.4457 27.5 21.6667Z" stroke="#0F0F0F" stroke-width="3.33333" stroke-linecap="round" stroke-linejoin="round"/>
<path d="M34.1666 35C34.1666 35.221 34.0788 35.4329 33.9225 35.5892C33.7663 35.7455 33.5543 35.8333 33.3333 35.8333C33.1123 35.8333 32.9003 35.7455 32.744 35.5892C32.5878 35.4329 32.5 35.221 32.5 35C32.5 34.7789 32.5878 34.567 32.744 34.4107C32.9003 34.2544 33.1123 34.1666 33.3333 34.1666C33.5543 34.1666 33.7663 34.2544 33.9225 34.4107C34.0788 34.567 34.1666 34.7789 34.1666 35ZM30.8333 4.99996C30.8333 5.22097 30.7455 5.43293 30.5892 5.58921C30.4329 5.7455 30.221 5.83329 30 5.83329C29.7789 5.83329 29.567 5.7455 29.4107 5.58921C29.2544 5.43293 29.1666 5.22097 29.1666 4.99996C29.1666 4.77895 29.2544 4.56698 29.4107 4.4107C29.567 4.25442 29.7789 4.16663 30 4.16663C30.221 4.16663 30.4329 4.25442 30.5892 4.4107C30.7455 4.56698 30.8333 4.77895 30.8333 4.99996Z" stroke="#0F0F0F" stroke-width="3.33333" stroke-linecap="round" stroke-linejoin="round"/>
</svg>
