<svg width="40" height="33" viewBox="0 0 40 33" fill="none" xmlns="http://www.w3.org/2000/svg">
<path d="M36.3611 0.0763855H2.75C2.04091 0.0763855 1.36087 0.358069 0.859468 0.859468C0.358069 1.36087 0.0763855 2.04091 0.0763855 2.75V30.25C0.0763855 30.9591 0.358069 31.6391 0.859468 32.1405C1.36087 32.6419 2.04091 32.9236 2.75 32.9236H5.30902C5.52459 32.9233 5.73571 32.8623 5.91812 32.7474C6.10054 32.6326 6.24686 32.4686 6.34027 32.2743C7.1136 30.6391 8.33546 29.2573 9.86363 28.2895C11.3918 27.3218 13.1634 26.808 14.9722 26.808C16.781 26.808 18.5526 27.3218 20.0808 28.2895C21.609 29.2573 22.8308 30.6391 23.6042 32.2743C23.6976 32.4686 23.8439 32.6326 24.0263 32.7474C24.2087 32.8623 24.4198 32.9233 24.6354 32.9236H36.3611C37.0702 32.9236 37.7502 32.6419 38.2516 32.1405C38.753 31.6391 39.0347 30.9591 39.0347 30.25V2.75C39.0347 2.04091 38.753 1.36087 38.2516 0.859468C37.7502 0.358069 37.0702 0.0763855 36.3611 0.0763855ZM10.0069 19.5556C10.0069 18.5735 10.2981 17.6135 10.8437 16.797C11.3893 15.9805 12.1648 15.344 13.0721 14.9682C13.9794 14.5924 14.9777 14.4941 15.9409 14.6857C16.9041 14.8773 17.7888 15.3502 18.4832 16.0446C19.1776 16.739 19.6505 17.6237 19.8421 18.5869C20.0337 19.55 19.9353 20.5484 19.5595 21.4557C19.1837 22.363 18.5473 23.1384 17.7308 23.684C16.9142 24.2296 15.9543 24.5208 14.9722 24.5208C13.6569 24.5158 12.3969 23.9911 11.4668 23.061C10.5367 22.1309 10.012 20.8709 10.0069 19.5556ZM36.743 30.25C36.743 30.3513 36.7028 30.4484 36.6312 30.5201C36.5596 30.5917 36.4624 30.6319 36.3611 30.6319H25.342C24.0051 28.2334 21.8798 26.3712 19.3264 25.3611C20.5449 24.4472 21.4449 23.1732 21.8991 21.7193C22.3532 20.2655 22.3384 18.7056 21.8568 17.2607C21.3751 15.8158 20.451 14.559 19.2154 13.6684C17.9798 12.7778 16.4953 12.2986 14.9722 12.2986C13.4491 12.2986 11.9646 12.7778 10.729 13.6684C9.4934 14.559 8.56932 15.8158 8.08768 17.2607C7.60603 18.7056 7.59123 20.2655 8.04537 21.7193C8.49951 23.1732 9.39957 24.4472 10.6181 25.3611C8.06468 26.3712 5.93931 28.2334 4.60243 30.6319H2.75C2.6502 30.6273 2.55573 30.5856 2.48508 30.5149C2.41443 30.4443 2.3727 30.3498 2.36805 30.25V2.75C2.36805 2.6487 2.40829 2.55155 2.47992 2.47992C2.55155 2.40829 2.6487 2.36805 2.75 2.36805H36.3611C36.4624 2.36805 36.5596 2.40829 36.6312 2.47992C36.7028 2.55155 36.743 2.6487 36.743 2.75V30.25ZM32.9236 7.33333V25.6667C32.9236 25.9706 32.8029 26.262 32.588 26.4769C32.3731 26.6918 32.0817 26.8125 31.7778 26.8125H28.7222C28.4183 26.8125 28.1269 26.6918 27.912 26.4769C27.6971 26.262 27.5764 25.9706 27.5764 25.6667C27.5764 25.3628 27.6971 25.0713 27.912 24.8564C28.1269 24.6416 28.4183 24.5208 28.7222 24.5208H30.6319V8.47916H8.47916V10.3889C8.47916 10.6928 8.35844 10.9842 8.14356 11.1991C7.92867 11.414 7.63722 11.5347 7.33333 11.5347C7.02944 11.5347 6.73799 11.414 6.5231 11.1991C6.30822 10.9842 6.1875 10.6928 6.1875 10.3889V7.33333C6.1875 7.02944 6.30822 6.73799 6.5231 6.5231C6.73799 6.30822 7.02944 6.1875 7.33333 6.1875H31.7778C32.0817 6.1875 32.3731 6.30822 32.588 6.5231C32.8029 6.73799 32.9236 7.02944 32.9236 7.33333Z" fill="#0F0F0F"/>
</svg>
