<svg width="32" height="28" viewBox="0 0 32 28" fill="none" xmlns="http://www.w3.org/2000/svg">
<path d="M20.956 1.29394C20.9946 1.1684 21.0081 1.03648 20.9957 0.905717C20.9833 0.774955 20.9453 0.647911 20.8838 0.531837C20.8224 0.415764 20.7386 0.312935 20.6374 0.229222C20.5362 0.145509 20.4195 0.0825505 20.294 0.0439419C20.1684 0.00533322 20.0365 -0.00816962 19.9057 0.00420415C19.775 0.0165779 19.6479 0.0545861 19.5319 0.116058C19.4158 0.177531 19.313 0.261264 19.2292 0.362476C19.1455 0.463688 19.0826 0.580398 19.044 0.705942L11.044 26.7059C10.966 26.9595 10.9919 27.2336 11.1161 27.468C11.2402 27.7025 11.4524 27.878 11.706 27.9559C11.9595 28.0339 12.2336 28.008 12.4681 27.8838C12.7025 27.7597 12.878 27.5475 12.956 27.2939L20.956 1.29394ZM9.70796 6.29194C9.80108 6.38483 9.87497 6.49518 9.92538 6.61667C9.97579 6.73816 10.0017 6.86841 10.0017 6.99994C10.0017 7.13148 9.97579 7.26172 9.92538 7.38321C9.87497 7.5047 9.80108 7.61505 9.70796 7.70794L3.41396 13.9999L9.70796 20.2919C9.89573 20.4797 10.0012 20.7344 10.0012 20.9999C10.0012 21.2655 9.89573 21.5202 9.70796 21.7079C9.52018 21.8957 9.26551 22.0012 8.99996 22.0012C8.7344 22.0012 8.47973 21.8957 8.29196 21.7079L1.29196 14.7079C1.19883 14.6151 1.12494 14.5047 1.07453 14.3832C1.02412 14.2617 0.998169 14.1315 0.998169 13.9999C0.998169 13.8684 1.02412 13.7382 1.07453 13.6167C1.12494 13.4952 1.19883 13.3848 1.29196 13.2919L8.29196 6.29194C8.38485 6.19882 8.4952 6.12493 8.61669 6.07452C8.73818 6.0241 8.86842 5.99815 8.99996 5.99815C9.13149 5.99815 9.26173 6.0241 9.38322 6.07452C9.50471 6.12493 9.61506 6.19882 9.70796 6.29194ZM22.292 6.29194C22.1988 6.38483 22.1249 6.49518 22.0745 6.61667C22.0241 6.73816 21.9982 6.86841 21.9982 6.99994C21.9982 7.13148 22.0241 7.26172 22.0745 7.38321C22.1249 7.5047 22.1988 7.61505 22.292 7.70794L28.586 13.9999L22.292 20.2919C22.199 20.3849 22.1252 20.4953 22.0749 20.6168C22.0246 20.7383 21.9987 20.8685 21.9987 20.9999C21.9987 21.1314 22.0246 21.2616 22.0749 21.3831C22.1252 21.5046 22.199 21.615 22.292 21.7079C22.3849 21.8009 22.4953 21.8747 22.6168 21.925C22.7383 21.9753 22.8685 22.0012 23 22.0012C23.1314 22.0012 23.2616 21.9753 23.3831 21.925C23.5046 21.8747 23.615 21.8009 23.708 21.7079L30.708 14.7079C30.8011 14.6151 30.875 14.5047 30.9254 14.3832C30.9758 14.2617 31.0017 14.1315 31.0017 13.9999C31.0017 13.8684 30.9758 13.7382 30.9254 13.6167C30.875 13.4952 30.8011 13.3848 30.708 13.2919L23.708 6.29194C23.6151 6.19882 23.5047 6.12493 23.3832 6.07452C23.2617 6.0241 23.1315 5.99815 23 5.99815C22.8684 5.99815 22.7382 6.0241 22.6167 6.07452C22.4952 6.12493 22.3848 6.19882 22.292 6.29194Z" fill="#C66936"/>
</svg>
