<svg width="28" height="50" viewBox="0 0 28 50" fill="none" xmlns="http://www.w3.org/2000/svg">
<path fill-rule="evenodd" clip-rule="evenodd" d="M1.42255 1.17243C1.59673 0.997822 1.80363 0.859286 2.03143 0.764762C2.25922 0.670238 2.50343 0.621582 2.75006 0.621582C2.99668 0.621582 3.24089 0.670238 3.46868 0.764762C3.69648 0.859286 3.90338 0.997822 4.07756 1.17243L26.5776 23.6724C26.7522 23.8466 26.8907 24.0535 26.9852 24.2813C27.0798 24.5091 27.1284 24.7533 27.1284 24.9999C27.1284 25.2466 27.0798 25.4908 26.9852 25.7186C26.8907 25.9464 26.7522 26.1533 26.5776 26.3274L4.07756 48.8274C3.72548 49.1795 3.24796 49.3773 2.75006 49.3773C2.25215 49.3773 1.77463 49.1795 1.42255 48.8274C1.07048 48.4754 0.872686 47.9978 0.872686 47.4999C0.872686 47.002 1.07048 46.5245 1.42255 46.1724L22.5988 24.9999L1.42255 3.82743C1.24794 3.65326 1.10941 3.44635 1.01488 3.21856C0.920358 2.99077 0.871704 2.74656 0.871704 2.49993C0.871704 2.25331 0.920358 2.0091 1.01488 1.78131C1.10941 1.55351 1.24794 1.34661 1.42255 1.17243Z" fill="#031A6B"/>
</svg>
