<svg width="40" height="40" viewBox="0 0 40 40" fill="none" xmlns="http://www.w3.org/2000/svg">
<g clip-path="url(#clip0_936_7023)">
<path fill-rule="evenodd" clip-rule="evenodd" d="M27.4225 37.5C30.0672 37.5 32.6035 36.4464 34.4736 34.5711C36.3437 32.6957 37.3943 30.1522 37.3943 27.5C37.3943 24.8478 36.3437 22.3043 34.4736 20.4289C32.6035 18.5536 30.0672 17.5 27.4225 17.5C24.7778 17.5 22.2414 18.5536 20.3713 20.4289C18.5013 22.3043 17.4507 24.8478 17.4507 27.5C17.4507 30.1522 18.5013 32.6957 20.3713 34.5711C22.2414 36.4464 24.7778 37.5 27.4225 37.5V37.5ZM39.8873 27.5C39.8873 30.8152 38.574 33.9946 36.2364 36.3388C33.8988 38.683 30.7283 40 27.4225 40C24.1166 40 20.9462 38.683 18.6086 36.3388C16.271 33.9946 14.9577 30.8152 14.9577 27.5C14.9577 24.1848 16.271 21.0054 18.6086 18.6612C20.9462 16.317 24.1166 15 27.4225 15C30.7283 15 33.8988 16.317 36.2364 18.6612C38.574 21.0054 39.8873 24.1848 39.8873 27.5V27.5Z" fill="#0F0F0F"/>
<path d="M23.5289 29.86C23.646 31.35 24.8202 32.51 26.9268 32.65V33.75H27.8616V32.6425C30.043 32.49 31.3169 31.32 31.3169 29.625C31.3169 28.08 30.3446 27.285 28.5995 26.875L27.8616 26.7V23.7C28.799 23.8075 29.3923 24.32 29.5344 25.03H31.1748C31.0576 23.5925 29.8286 22.47 27.8616 22.3475V21.25H26.9268V22.375C25.0645 22.5575 23.7981 23.68 23.7981 25.27C23.7981 26.675 24.7404 27.57 26.3085 27.935L26.9268 28.0875V31.2675C25.9695 31.1225 25.3338 30.5925 25.1917 29.86H23.5264H23.5289ZM26.9193 26.475C25.9994 26.2625 25.5008 25.825 25.5008 25.17C25.5008 24.435 26.0393 23.885 26.9268 23.725V26.475H26.9193V26.475ZM27.9962 28.34C29.1156 28.6 29.6291 29.02 29.6291 29.7625C29.6291 30.61 28.9884 31.19 27.8616 31.2975V28.31L27.9962 28.34V28.34Z" fill="#0F0F0F"/>
<path d="M2.49296 0C1.83178 0 1.19769 0.263392 0.73017 0.732233C0.26265 1.20107 0 1.83696 0 2.5L0 22.5C0 23.163 0.26265 23.7989 0.73017 24.2678C1.19769 24.7366 1.83178 25 2.49296 25H12.6717C12.8163 24.14 13.0332 23.305 13.3149 22.5H7.47887C7.47887 21.1739 6.95357 19.9021 6.01853 18.9645C5.08349 18.0268 3.8153 17.5 2.49296 17.5V7.5C3.8153 7.5 5.08349 6.97322 6.01853 6.03553C6.95357 5.09785 7.47887 3.82608 7.47887 2.5H32.4084C32.4084 3.82608 32.9337 5.09785 33.8688 6.03553C34.8038 6.97322 36.072 7.5 37.3943 7.5V16.32C38.3417 17.17 39.1818 18.14 39.8873 19.205V2.5C39.8873 1.83696 39.6246 1.20107 39.1571 0.732233C38.6896 0.263392 38.0555 0 37.3943 0L2.49296 0Z" fill="#0F0F0F"/>
<path d="M24.9245 12.7072L24.9295 12.4997C24.929 11.6387 24.7068 10.7924 24.2844 10.0428C23.862 9.29317 23.2537 8.66566 22.5184 8.22101C21.7832 7.77636 20.9459 7.52965 20.0877 7.50477C19.2294 7.4799 18.3793 7.6777 17.6197 8.07901C16.8601 8.48033 16.2167 9.07157 15.7518 9.79546C15.2869 10.5194 15.0163 11.3514 14.9662 12.2109C14.9161 13.0705 15.0882 13.9284 15.4658 14.7017C15.8434 15.475 16.4138 16.1374 17.1216 16.6247C19.2749 14.5679 21.9922 13.2036 24.9245 12.7072V12.7072Z" fill="#0F0F0F"/>
</g>
<defs>
<clipPath id="clip0_936_7023">
<rect width="39.8873" height="40" fill="white"/>
</clipPath>
</defs>
</svg>
