<svg width="22" height="22" viewBox="0 0 22 22" fill="none" xmlns="http://www.w3.org/2000/svg">
<path d="M0.937995 0.937995C1.07733 0.798305 1.24286 0.687476 1.42509 0.611857C1.60733 0.536238 1.80269 0.497314 2 0.497314C2.1973 0.497314 2.39266 0.536238 2.5749 0.611857C2.75713 0.687476 2.92266 0.798305 3.062 0.937995L11 8.87899L18.938 0.937995C19.0775 0.798531 19.243 0.687902 19.4252 0.612425C19.6075 0.536948 19.8028 0.4981 20 0.4981C20.1972 0.4981 20.3925 0.536948 20.5747 0.612425C20.757 0.687902 20.9225 0.798531 21.062 0.937995C21.2015 1.07746 21.3121 1.24303 21.3876 1.42524C21.463 1.60746 21.5019 1.80276 21.5019 2C21.5019 2.19723 21.463 2.39253 21.3876 2.57475C21.3121 2.75696 21.2015 2.92253 21.062 3.062L13.121 11L21.062 18.938C21.2015 19.0775 21.3121 19.243 21.3876 19.4252C21.463 19.6075 21.5019 19.8028 21.5019 20C21.5019 20.1972 21.463 20.3925 21.3876 20.5747C21.3121 20.757 21.2015 20.9225 21.062 21.062C20.9225 21.2015 20.757 21.3121 20.5747 21.3876C20.3925 21.463 20.1972 21.5019 20 21.5019C19.8028 21.5019 19.6075 21.463 19.4252 21.3876C19.243 21.3121 19.0775 21.2015 18.938 21.062L11 13.121L3.062 21.062C2.92253 21.2015 2.75696 21.3121 2.57475 21.3876C2.39253 21.463 2.19723 21.5019 2 21.5019C1.80276 21.5019 1.60746 21.463 1.42524 21.3876C1.24303 21.3121 1.07746 21.2015 0.937995 21.062C0.798531 20.9225 0.687902 20.757 0.612425 20.5747C0.536948 20.3925 0.4981 20.1972 0.4981 20C0.4981 19.8028 0.536948 19.6075 0.612425 19.4252C0.687902 19.243 0.798531 19.0775 0.937995 18.938L8.87899 11L0.937995 3.062C0.798305 2.92266 0.687476 2.75713 0.611857 2.5749C0.536238 2.39266 0.497314 2.1973 0.497314 2C0.497314 1.80269 0.536238 1.60733 0.611857 1.42509C0.687476 1.24286 0.798305 1.07733 0.937995 0.937995Z" fill="white"/>
</svg>
