<svg width="49" height="45" viewBox="0 0 49 45" fill="none" xmlns="http://www.w3.org/2000/svg">
<path d="M12.5 45C12.5 45 9.5 45 9.5 42C9.5 39 12.5 30 24.5 30C36.5 30 39.5 39 39.5 42C39.5 45 36.5 45 36.5 45H12.5ZM24.5 27.15C26.4891 27.15 28.3968 26.3598 29.8033 24.9533C31.2098 23.5468 32 21.6391 32 19.65C32 17.6609 31.2098 15.7532 29.8033 14.3467C28.3968 12.9402 26.4891 12.15 24.5 12.15C22.5109 12.15 20.6032 12.9402 19.1967 14.3467C17.7902 15.7532 17 17.6609 17 19.65C17 21.6391 17.7902 23.5468 19.1967 24.9533C20.6032 26.3598 22.5109 27.15 24.5 27.15V27.15Z" fill="#0F0F0F"/>
<path d="M6.5 0C4.9087 0 3.38258 0.632141 2.25736 1.75736C1.13214 2.88258 0.5 4.4087 0.5 6L0.5 34.5C0.5 35.6935 0.974106 36.8381 1.81802 37.682C2.66193 38.5259 3.80653 39 5 39H6.959C7.58627 36.7954 8.67652 34.7499 10.157 33H3.5V6C3.5 5.20435 3.81607 4.44129 4.37868 3.87868C4.94129 3.31607 5.70435 3 6.5 3H42.5C43.2956 3 44.0587 3.31607 44.6213 3.87868C45.1839 4.44129 45.5 5.20435 45.5 6V33H38.843C40.505 34.962 41.513 37.119 42.041 39H44C45.1935 39 46.3381 38.5259 47.182 37.682C48.0259 36.8381 48.5 35.6935 48.5 34.5V6C48.5 4.4087 47.8679 2.88258 46.7426 1.75736C45.6174 0.632141 44.0913 0 42.5 0H6.5Z" fill="#0F0F0F"/>
</svg>
