<svg width="32" height="32" viewBox="0 0 32 32" fill="none" xmlns="http://www.w3.org/2000/svg">
<path d="M15.504 0.1318C15.6551 0.0455091 15.826 0.00012207 16 0.00012207C16.174 0.00012207 16.3449 0.0455091 16.496 0.1318L23.996 4.4178C24.1491 4.50523 24.2763 4.63156 24.3648 4.78399C24.4533 4.93642 24.4999 5.10954 24.5 5.2858V13.2758L31.496 17.2758C31.6485 17.3629 31.7753 17.4886 31.8638 17.6403C31.9523 17.7919 31.9992 17.9642 32 18.1398V26.7118C31.9999 26.8881 31.9533 27.0612 31.8648 27.2136C31.7763 27.366 31.6491 27.4924 31.496 27.5798L23.996 31.8658C23.8449 31.9521 23.674 31.9975 23.5 31.9975C23.326 31.9975 23.1551 31.9521 23.004 31.8658L16 27.8658L8.996 31.8678C8.84494 31.9541 8.67397 31.9995 8.5 31.9995C8.32603 31.9995 8.15506 31.9541 8.004 31.8678L0.504 27.5818C0.350946 27.4944 0.223719 27.368 0.135211 27.2156C0.0467025 27.0632 5.68541e-05 26.8901 0 26.7138L0 18.1418C5.68541e-05 17.9655 0.0467025 17.7924 0.135211 17.64C0.223719 17.4876 0.350946 17.3612 0.504 17.2738L7.5 13.2758V5.2858C7.50006 5.10954 7.5467 4.93642 7.63521 4.78399C7.72372 4.63156 7.85095 4.50523 8.004 4.4178L15.504 0.1318ZM8.5 15.0078L3.016 18.1418L8.5 21.2758L13.984 18.1418L8.5 15.0078ZM15 19.8658L9.5 23.0078V29.2758L15 26.1338V19.8658ZM17 26.1338L22.5 29.2758V23.0078L17 19.8658V26.1338ZM18.016 18.1418L23.5 21.2758L28.984 18.1418L23.5 15.0078L18.016 18.1418ZM22.5 13.2758V7.0078L17 10.1518V16.4198L22.5 13.2758ZM15 16.4198V10.1518L9.5 7.0078V13.2758L15 16.4198ZM10.516 5.2858L16 8.4198L21.484 5.2858L16 2.1518L10.516 5.2858ZM30 19.8658L24.5 23.0078V29.2758L30 26.1338V19.8658ZM7.5 29.2758V23.0078L2 19.8658V26.1338L7.5 29.2758Z" fill="#C66936"/>
</svg>
