<svg width="32" height="32" viewBox="0 0 32 32" fill="none" xmlns="http://www.w3.org/2000/svg">
<path d="M4 2.00006C3.46957 2.00006 2.96086 2.21077 2.58579 2.58584C2.21072 2.96092 2 3.46962 2 4.00006C2 4.53049 2.21072 5.0392 2.58579 5.41427C2.96086 5.78934 3.46957 6.00006 4 6.00006C4.53044 6.00006 5.03914 5.78934 5.41422 5.41427C5.78929 5.0392 6 4.53049 6 4.00006C6 3.46962 5.78929 2.96092 5.41422 2.58584C5.03914 2.21077 4.53044 2.00006 4 2.00006ZM1.95568e-06 4.00006C-0.000960956 3.02579 0.353685 2.08467 0.997376 1.35333C1.64107 0.621992 2.52954 0.150723 3.49605 0.0279766C4.46255 -0.0947694 5.44062 0.139447 6.24669 0.686666C7.05276 1.23388 7.6314 2.05648 7.874 3.00006H24.126C24.3025 2.31739 24.6564 1.69352 25.1517 1.19166C25.647 0.689794 26.2661 0.32778 26.9464 0.142299C27.6267 -0.0431827 28.3439 -0.0455402 29.0254 0.135465C29.7069 0.316471 30.3285 0.674406 30.8271 1.173C31.3257 1.6716 31.6836 2.29313 31.8646 2.97462C32.0456 3.65611 32.0432 4.37334 31.8578 5.05363C31.6723 5.73391 31.3103 6.35308 30.8084 6.84839C30.3065 7.34369 29.6827 7.69754 29 7.87406V24.1261C29.6827 24.3026 30.3065 24.6564 30.8084 25.1517C31.3103 25.647 31.6723 26.2662 31.8578 26.9465C32.0432 27.6268 32.0456 28.344 31.8646 29.0255C31.6836 29.707 31.3257 30.3285 30.8271 30.8271C30.3285 31.3257 29.7069 31.6836 29.0254 31.8646C28.3439 32.0457 27.6267 32.0433 26.9464 31.8578C26.2661 31.6723 25.647 31.3103 25.1517 30.8085C24.6564 30.3066 24.3025 29.6827 24.126 29.0001H7.874C7.69748 29.6827 7.34364 30.3066 6.84833 30.8085C6.35303 31.3103 5.73386 31.6723 5.05357 31.8578C4.37329 32.0433 3.65606 32.0457 2.97457 31.8646C2.29307 31.6836 1.67154 31.3257 1.17295 30.8271C0.674351 30.3285 0.316416 29.707 0.13541 29.0255C-0.0455952 28.344 -0.0432377 27.6268 0.142244 26.9465C0.327725 26.2662 0.689739 25.647 1.1916 25.1517C1.69346 24.6564 2.31734 24.3026 3 24.1261V7.87406C2.14121 7.65232 1.38047 7.15143 0.837413 6.45016C0.294354 5.74889 -0.000223469 4.88701 1.95568e-06 4.00006ZM5 7.87406V24.1261C6.406 24.4861 7.512 25.5941 7.874 27.0001H24.126C24.3053 26.3083 24.6664 25.6771 25.1717 25.1717C25.677 24.6664 26.3082 24.3054 27 24.1261V7.87406C26.3082 7.69473 25.677 7.3337 25.1717 6.82838C24.6664 6.32306 24.3053 5.69182 24.126 5.00006H7.874C7.69467 5.69182 7.33365 6.32306 6.82833 6.82838C6.32301 7.3337 5.69177 7.69473 5 7.87406ZM28 2.00006C27.4696 2.00006 26.9609 2.21077 26.5858 2.58584C26.2107 2.96092 26 3.46962 26 4.00006C26 4.53049 26.2107 5.0392 26.5858 5.41427C26.9609 5.78934 27.4696 6.00006 28 6.00006C28.5304 6.00006 29.0391 5.78934 29.4142 5.41427C29.7893 5.0392 30 4.53049 30 4.00006C30 3.46962 29.7893 2.96092 29.4142 2.58584C29.0391 2.21077 28.5304 2.00006 28 2.00006ZM4 26.0001C3.46957 26.0001 2.96086 26.2108 2.58579 26.5858C2.21072 26.9609 2 27.4696 2 28.0001C2 28.5305 2.21072 29.0392 2.58579 29.4143C2.96086 29.7893 3.46957 30.0001 4 30.0001C4.53044 30.0001 5.03914 29.7893 5.41422 29.4143C5.78929 29.0392 6 28.5305 6 28.0001C6 27.4696 5.78929 26.9609 5.41422 26.5858C5.03914 26.2108 4.53044 26.0001 4 26.0001ZM28 26.0001C27.4696 26.0001 26.9609 26.2108 26.5858 26.5858C26.2107 26.9609 26 27.4696 26 28.0001C26 28.5305 26.2107 29.0392 26.5858 29.4143C26.9609 29.7893 27.4696 30.0001 28 30.0001C28.5304 30.0001 29.0391 29.7893 29.4142 29.4143C29.7893 29.0392 30 28.5305 30 28.0001C30 27.4696 29.7893 26.9609 29.4142 26.5858C29.0391 26.2108 28.5304 26.0001 28 26.0001Z" fill="#C66936"/>
</svg>
