<svg width="48" height="48" viewBox="0 0 48 48" fill="none" xmlns="http://www.w3.org/2000/svg">
<path d="M23.256 0.197699C23.4826 0.0682636 23.739 0.000183105 24 0.000183105C24.261 0.000183105 24.5174 0.0682636 24.744 0.197699L35.994 6.6267C36.2236 6.75784 36.4144 6.94733 36.5472 7.17598C36.6799 7.40463 36.7499 7.6643 36.75 7.9287V19.9137L47.244 25.9137C47.4727 26.0443 47.663 26.2329 47.7957 26.4604C47.9284 26.6879 47.9989 26.9463 48 27.2097V40.0677C47.9999 40.3321 47.9299 40.5918 47.7972 40.8204C47.6644 41.0491 47.4736 41.2386 47.244 41.3697L35.994 47.7987C35.7674 47.9281 35.511 47.9962 35.25 47.9962C34.989 47.9962 34.7326 47.9281 34.506 47.7987L24 41.7987L13.494 47.8017C13.2674 47.9311 13.011 47.9992 12.75 47.9992C12.489 47.9992 12.2326 47.9311 12.006 47.8017L0.756 41.3727C0.526419 41.2416 0.335579 41.0521 0.202817 40.8234C0.0700538 40.5948 8.52811e-05 40.3351 0 40.0707L0 27.2127C8.52811e-05 26.9483 0.0700538 26.6886 0.202817 26.46C0.335579 26.2313 0.526419 26.0418 0.756 25.9107L11.25 19.9137V7.9287C11.2501 7.6643 11.3201 7.40463 11.4528 7.17598C11.5856 6.94733 11.7764 6.75784 12.006 6.6267L23.256 0.197699ZM12.75 22.5117L4.524 27.2127L12.75 31.9137L20.976 27.2127L12.75 22.5117ZM22.5 29.7987L14.25 34.5117V43.9137L22.5 39.2007V29.7987ZM25.5 39.2007L33.75 43.9137V34.5117L25.5 29.7987V39.2007ZM27.024 27.2127L35.25 31.9137L43.476 27.2127L35.25 22.5117L27.024 27.2127ZM33.75 19.9137V10.5117L25.5 15.2277V24.6297L33.75 19.9137ZM22.5 24.6297V15.2277L14.25 10.5117V19.9137L22.5 24.6297ZM15.774 7.9287L24 12.6297L32.226 7.9287L24 3.2277L15.774 7.9287ZM45 29.7987L36.75 34.5117V43.9137L45 39.2007V29.7987ZM11.25 43.9137V34.5117L3 29.7987V39.2007L11.25 43.9137Z" fill="#031A6B"/>
</svg>
