<svg width="48" height="48" viewBox="0 0 48 48" fill="none" xmlns="http://www.w3.org/2000/svg">
<path d="M24 14.2617C22.7212 14.2617 21.4549 14.5136 20.2734 15.003C19.0919 15.4924 18.0184 16.2097 17.1142 17.1139C16.2099 18.0182 15.4926 19.0917 15.0032 20.2731C14.5138 21.4546 14.262 22.7209 14.262 23.9997C14.262 25.2785 14.5138 26.5448 15.0032 27.7263C15.4926 28.9078 16.2099 29.9813 17.1142 30.8855C18.0184 31.7898 19.0919 32.5071 20.2734 32.9965C21.4549 33.4858 22.7212 33.7377 24 33.7377C26.5826 33.7377 29.0595 32.7118 30.8858 30.8855C32.712 29.0593 33.738 26.5824 33.738 23.9997C33.738 21.417 32.712 18.9401 30.8858 17.1139C29.0595 15.2877 26.5826 14.2617 24 14.2617ZM17.262 23.9997C17.262 22.2127 17.9719 20.4989 19.2355 19.2352C20.4991 17.9716 22.2129 17.2617 24 17.2617C25.787 17.2617 27.5008 17.9716 28.7644 19.2352C30.0281 20.4989 30.738 22.2127 30.738 23.9997C30.738 25.7867 30.0281 27.5006 28.7644 28.7642C27.5008 30.0278 25.787 30.7377 24 30.7377C22.2129 30.7377 20.4991 30.0278 19.2355 28.7642C17.9719 27.5006 17.262 25.7867 17.262 23.9997Z" fill="#C66936"/>
<path d="M29.388 4.02872C27.807 -1.34128 20.193 -1.34128 18.612 4.02872L18.33 4.98572C18.2196 5.36058 18.0267 5.70598 17.7654 5.9966C17.5042 6.28722 17.1812 6.51569 16.8202 6.66528C16.4592 6.81486 16.0693 6.88176 15.679 6.86107C15.2888 6.84039 14.9081 6.73264 14.565 6.54572L13.689 6.06572C8.76896 3.38972 3.38997 8.77172 6.06896 13.6887L6.54596 14.5647C6.73288 14.9079 6.84063 15.2886 6.86132 15.6788C6.88201 16.069 6.81511 16.4589 6.66552 16.8199C6.51594 17.181 6.28746 17.5039 5.99684 17.7652C5.70622 18.0264 5.36082 18.2193 4.98596 18.3297L4.02896 18.6117C-1.34104 20.1927 -1.34104 27.8067 4.02896 29.3877L4.98596 29.6697C5.36082 29.7801 5.70622 29.973 5.99684 30.2343C6.28746 30.4955 6.51594 30.8185 6.66552 31.1795C6.81511 31.5405 6.88201 31.9304 6.86132 32.3207C6.84063 32.7109 6.73288 33.0915 6.54596 33.4347L6.06597 34.3107C3.38997 39.2307 8.76896 44.6127 13.689 41.9307L14.565 41.4537C14.9081 41.2668 15.2888 41.1591 15.679 41.1384C16.0693 41.1177 16.4592 41.1846 16.8202 41.3342C17.1812 41.4837 17.5042 41.7122 17.7654 42.0028C18.0267 42.2935 18.2196 42.6389 18.33 43.0137L18.612 43.9707C20.193 49.3407 27.807 49.3407 29.388 43.9707L29.67 43.0137C29.7804 42.6389 29.9733 42.2935 30.2345 42.0028C30.4958 41.7122 30.8187 41.4837 31.1797 41.3342C31.5408 41.1846 31.9307 41.1177 32.3209 41.1384C32.7111 41.1591 33.0918 41.2668 33.435 41.4537L34.311 41.9337C39.231 44.6127 44.613 39.2277 41.931 34.3107L41.454 33.4347C41.267 33.0915 41.1593 32.7109 41.1386 32.3207C41.1179 31.9304 41.1848 31.5405 41.3344 31.1795C41.484 30.8185 41.7125 30.4955 42.0031 30.2343C42.2937 29.973 42.6391 29.7801 43.014 29.6697L43.971 29.3877C49.341 27.8067 49.341 20.1927 43.971 18.6117L43.014 18.3297C42.6391 18.2193 42.2937 18.0264 42.0031 17.7652C41.7125 17.5039 41.484 17.181 41.3344 16.8199C41.1848 16.4589 41.1179 16.069 41.1386 15.6788C41.1593 15.2886 41.267 14.9079 41.454 14.5647L41.934 13.6887C44.613 8.76872 39.228 3.38972 34.311 6.06872L33.435 6.54572C33.0918 6.73264 32.7111 6.84039 32.3209 6.86107C31.9307 6.88176 31.5408 6.81486 31.1797 6.66528C30.8187 6.51569 30.4958 6.28722 30.2345 5.9966C29.9733 5.70598 29.7804 5.36058 29.67 4.98572L29.388 4.02872ZM21.489 4.87772C22.227 2.37272 25.773 2.37272 26.511 4.87772L26.793 5.83472C27.03 6.63898 27.4441 7.37998 28.0047 8.00342C28.5654 8.62685 29.2585 9.11691 30.0332 9.43766C30.8079 9.75841 31.6445 9.90172 32.4818 9.85709C33.3191 9.81246 34.1358 9.58101 34.872 9.17972L35.745 8.69972C38.037 7.45472 40.545 9.95972 39.297 12.2547L38.82 13.1307C38.4193 13.867 38.1884 14.6836 38.1442 15.5207C38.1001 16.3578 38.2438 17.1941 38.5648 17.9685C38.8858 18.7428 39.376 19.4355 39.9995 19.9958C40.6229 20.5562 41.3639 20.9699 42.168 21.2067L43.122 21.4887C45.627 22.2267 45.627 25.7727 43.122 26.5107L42.165 26.7927C41.3607 27.0298 40.6197 27.4438 39.9963 28.0045C39.3728 28.5652 38.8828 29.2583 38.562 30.0329C38.2413 30.8076 38.098 31.6443 38.1426 32.4816C38.1872 33.3188 38.4187 34.1355 38.82 34.8717L39.3 35.7447C40.545 38.0367 38.04 40.5447 35.745 39.2967L34.872 38.8197C34.1356 38.4185 33.3187 38.1871 32.4813 38.1427C31.6438 38.0983 30.807 38.2418 30.0323 38.5629C29.2576 38.8839 28.5645 39.3743 28.004 39.9981C27.4435 40.6219 27.0297 41.3632 26.793 42.1677L26.511 43.1217C25.773 45.6267 22.227 45.6267 21.489 43.1217L21.207 42.1647C20.9698 41.3609 20.5558 40.6203 19.9954 39.9972C19.4349 39.374 18.7421 38.8842 17.9678 38.5635C17.1935 38.2428 16.3573 38.0993 15.5204 38.1437C14.6834 38.188 13.867 38.419 13.131 38.8197L12.255 39.2997C9.96296 40.5447 7.45496 38.0397 8.70296 35.7447L9.17996 34.8717C9.58182 34.1354 9.81372 33.3185 9.85864 32.4808C9.90357 31.6432 9.76039 30.8061 9.4396 30.031C9.11881 29.256 8.62855 28.5625 8.0048 28.0017C7.38105 27.4408 6.63964 27.0267 5.83496 26.7897L4.87796 26.5077C2.37296 25.7697 2.37296 22.2237 4.87796 21.4857L5.83496 21.2037C6.63838 20.9664 7.37858 20.5525 8.00139 19.9923C8.6242 19.432 9.11386 18.7396 9.43452 17.9657C9.75519 17.1918 9.89876 16.3559 9.85471 15.5194C9.81067 14.6828 9.58013 13.8667 9.17996 13.1307L8.69996 12.2547C7.45496 9.96272 9.95996 7.45472 12.255 8.70272L13.131 9.17972C13.867 9.58045 14.6834 9.81144 15.5204 9.85578C16.3573 9.90012 17.1935 9.75668 17.9678 9.43597C18.7421 9.11526 19.4349 8.6254 19.9954 8.00228C20.5558 7.37916 20.9698 6.63856 21.207 5.83472L21.489 4.87772Z" fill="#C66936"/>
</svg>
