<svg width="20" height="21" viewBox="0 0 20 21" fill="none" xmlns="http://www.w3.org/2000/svg">
<path d="M10 0.5C4.475 0.5 0 4.975 0 10.5C0 14.925 2.8625 18.6625 6.8375 19.9875C7.3375 20.075 7.525 19.775 7.525 19.5125C7.525 19.275 7.5125 18.4875 7.5125 17.65C5 18.1125 4.35 17.0375 4.15 16.475C4.0375 16.1875 3.55 15.3 3.125 15.0625C2.775 14.875 2.275 14.4125 3.1125 14.4C3.9 14.3875 4.4625 15.125 4.65 15.425C5.55 16.9375 6.9875 16.5125 7.5625 16.25C7.65 15.6 7.9125 15.1625 8.2 14.9125C5.975 14.6625 3.65 13.8 3.65 9.975C3.65 8.8875 4.0375 7.9875 4.675 7.2875C4.575 7.0375 4.225 6.0125 4.775 4.6375C4.775 4.6375 5.6125 4.375 7.525 5.6625C8.325 5.4375 9.175 5.325 10.025 5.325C10.875 5.325 11.725 5.4375 12.525 5.6625C14.4375 4.3625 15.275 4.6375 15.275 4.6375C15.825 6.0125 15.475 7.0375 15.375 7.2875C16.0125 7.9875 16.4 8.875 16.4 9.975C16.4 13.8125 14.0625 14.6625 11.8375 14.9125C12.2 15.225 12.5125 15.825 12.5125 16.7625C12.5125 18.1 12.5 19.175 12.5 19.5125C12.5 19.775 12.6875 20.0875 13.1875 19.9875C15.1728 19.3175 16.8979 18.0417 18.12 16.3397C19.3421 14.6377 19.9997 12.5953 20 10.5C20 4.975 15.525 0.5 10 0.5Z" fill="#031A6B"/>
</svg>
