<svg width="49" height="48" viewBox="0 0 49 48" fill="none" xmlns="http://www.w3.org/2000/svg">
<path d="M22.955 40.8637C22.8739 41.1882 22.6867 41.4763 22.423 41.6822C22.1594 41.8881 21.8345 41.9999 21.5 42C21.3736 42.0006 21.2477 41.9854 21.125 41.955L15.125 40.455C14.958 40.413 14.7994 40.3426 14.6563 40.2468L10.1563 37.2468C9.82534 37.026 9.59566 36.6828 9.51777 36.2927C9.43989 35.9026 9.52017 35.4975 9.74096 35.1665C9.96176 34.8356 10.305 34.6059 10.6951 34.528C11.0852 34.4501 11.4903 34.5304 11.8213 34.7512L16.1038 37.6068L21.8525 39.045C22.0446 39.0915 22.2256 39.1756 22.3851 39.2923C22.5445 39.4091 22.6794 39.5562 22.7818 39.7252C22.8843 39.8942 22.9523 40.0818 22.9821 40.2772C23.0118 40.4725 23.0026 40.6719 22.955 40.8637ZM47.8344 22.7775C47.7113 23.1513 47.5154 23.497 47.2579 23.7947C47.0005 24.0924 46.6866 24.3361 46.3344 24.5118L41.8944 26.7318L31.5669 37.0612C31.3836 37.2443 31.156 37.3768 30.9063 37.4458C30.6566 37.5148 30.3932 37.518 30.1419 37.455L18.1419 34.455C17.9594 34.4091 17.7871 34.3297 17.6338 34.2206L7.22378 26.7881L2.67128 24.5118C1.95978 24.1562 1.41867 23.5325 1.16691 22.7779C0.915161 22.0234 0.973383 21.1997 1.32878 20.4881L5.98815 11.1712C6.34383 10.4597 6.96751 9.9186 7.72206 9.66685C8.47662 9.4151 9.30027 9.47332 10.0119 9.82871L14.1482 11.8912L24.0857 9.05246C24.3552 8.97535 24.6411 8.97535 24.9107 9.05246L34.8482 11.8912L38.9844 9.82871C39.696 9.47332 40.5197 9.4151 41.2742 9.66685C42.0288 9.9186 42.6525 10.4597 43.0082 11.1712L47.6675 20.4881C47.8452 20.8397 47.9515 21.2231 47.9801 21.6161C48.0088 22.009 47.9593 22.4038 47.8344 22.7775ZM39.1757 25.2037L34.0738 15H28.1075L20 22.875C22.3738 24.3918 26.0957 24.81 29.435 21.4443C29.6958 21.1815 30.0447 21.0243 30.4143 21.0032C30.784 20.9821 31.1485 21.0985 31.4375 21.33L37.8894 26.4993L39.1757 25.2037ZM4.0119 21.8287L7.32878 23.4881L11.9882 14.1712L8.67128 12.5118L4.0119 21.8287ZM35.75 28.6237L30.5544 24.4631C26.8907 27.4631 22.2388 27.8587 18.3838 25.4006C18.0046 25.1594 17.6844 24.836 17.4469 24.4545C17.2095 24.0729 17.0608 23.6429 17.0118 23.1961C16.9628 22.7494 17.0149 22.2973 17.1641 21.8734C17.3133 21.4495 17.5558 21.0645 17.8738 20.7468C17.8783 20.7414 17.8833 20.7364 17.8888 20.7318L26.3 12.5737L24.5 12.06L15.0463 14.7618L9.9144 25.0237L19.1394 31.6143L30.0407 34.3387L35.75 28.6237ZM44.9825 21.8287L40.3288 12.5118L37.0119 14.1712L41.6713 23.4881L44.9825 21.8287Z" fill="#0F0F0F"/>
</svg>
