<svg width="32" height="15" viewBox="0 0 32 15" fill="none" xmlns="http://www.w3.org/2000/svg">
<path d="M11.3599 3.584L14.6899 7.5L11.3619 11.416C10.5897 12.1775 9.60964 12.6938 8.54485 12.8998C7.48005 13.1059 6.37811 12.9925 5.37757 12.574C4.37703 12.1555 3.52255 11.4505 2.92158 10.5477C2.3206 9.64489 1.99996 8.58455 1.99996 7.5C1.99996 6.41546 2.3206 5.35512 2.92158 4.45231C3.52255 3.5495 4.37703 2.84452 5.37757 2.426C6.37811 2.00749 7.48005 1.89413 8.54485 2.10017C9.60964 2.30621 10.5897 2.82246 11.3619 3.584H11.3599ZM15.9999 5.956L12.8319 2.226L12.8039 2.196C11.755 1.14731 10.4186 0.433198 8.96379 0.143969C7.50899 -0.14526 6.00109 0.00338072 4.63076 0.571096C3.26043 1.13881 2.08921 2.10011 1.26518 3.33343C0.44116 4.56676 0.00134277 6.01673 0.00134277 7.5C0.00134277 8.98328 0.44116 10.4332 1.26518 11.6666C2.08921 12.8999 3.26043 13.8612 4.63076 14.4289C6.00109 14.9966 7.50899 15.1453 8.96379 14.856C10.4186 14.5668 11.755 13.8527 12.8039 12.804L12.8319 12.774L15.9999 9.044L19.1679 12.774L19.1959 12.804C20.2449 13.8527 21.5813 14.5668 23.0361 14.856C24.4909 15.1453 25.9988 14.9966 27.3691 14.4289C28.7395 13.8612 29.9107 12.8999 30.7347 11.6666C31.5587 10.4332 31.9985 8.98328 31.9985 7.5C31.9985 6.01673 31.5587 4.56676 30.7347 3.33343C29.9107 2.10011 28.7395 1.13881 27.3691 0.571096C25.9988 0.00338072 24.4909 -0.14526 23.0361 0.143969C21.5813 0.433198 20.2449 1.14731 19.1959 2.196L19.1679 2.226L15.9999 5.956ZM17.3119 7.5L20.6379 3.584C21.4101 2.82246 22.3903 2.30621 23.455 2.10017C24.5198 1.89413 25.6218 2.00749 26.6223 2.426C27.6229 2.84452 28.4773 3.5495 29.0783 4.45231C29.6793 5.35512 29.9999 6.41546 29.9999 7.5C29.9999 8.58455 29.6793 9.64489 29.0783 10.5477C28.4773 11.4505 27.6229 12.1555 26.6223 12.574C25.6218 12.9925 24.5198 13.1059 23.455 12.8998C22.3903 12.6938 21.4101 12.1775 20.6379 11.416L17.3119 7.5Z" fill="#C66936"/>
</svg>
