<svg width="41" height="40" viewBox="0 0 41 40" fill="none" xmlns="http://www.w3.org/2000/svg">
<g clip-path="url(#clip0_936_7031)">
<path d="M5.11622 14.9996C5.11614 12.5227 5.74372 10.0842 6.94291 7.90203C8.14211 5.71986 9.8756 3.86186 11.9886 2.49396C14.1016 1.12606 16.5283 0.290819 19.0521 0.0628265C21.5759 -0.165166 24.1182 0.221184 26.4519 1.18738C28.7857 2.15357 30.8383 3.66954 32.4265 5.59991C34.0147 7.53028 35.089 9.81497 35.5536 12.25C36.0181 14.685 35.8583 17.1945 35.0886 19.5545C34.3189 21.9145 32.9632 24.0515 31.1424 25.7746C30.6231 26.2646 30.2241 26.7746 29.9836 27.3221L28.0343 31.7446C27.9354 31.9688 27.7715 32.1597 27.5629 32.2939C27.3542 32.428 27.1099 32.4996 26.8602 32.4996C27.1994 32.4996 27.5247 32.6313 27.7646 32.8657C28.0045 33.1002 28.1392 33.4181 28.1392 33.7496C28.1392 34.0811 28.0045 34.3991 27.7646 34.6335C27.5247 34.8679 27.1994 34.9996 26.8602 34.9996C27.1994 34.9996 27.5247 35.1313 27.7646 35.3657C28.0045 35.6002 28.1392 35.9181 28.1392 36.2496C28.1392 36.5811 28.0045 36.8991 27.7646 37.1335C27.5247 37.3679 27.1994 37.4996 26.8602 37.4996L26.2871 38.6171C26.0748 39.0323 25.7485 39.3816 25.3445 39.6257C24.9406 39.8699 24.4751 39.9994 24.0002 39.9996H16.9296C16.4546 39.9994 15.9891 39.8699 15.5852 39.6257C15.1813 39.3816 14.8549 39.0323 14.6426 38.6171L14.0696 37.4996C13.7304 37.4996 13.405 37.3679 13.1652 37.1335C12.9253 36.8991 12.7906 36.5811 12.7906 36.2496C12.7906 35.9181 12.9253 35.6002 13.1652 35.3657C13.405 35.1313 13.7304 34.9996 14.0696 34.9996C13.7304 34.9996 13.405 34.8679 13.1652 34.6335C12.9253 34.3991 12.7906 34.0811 12.7906 33.7496C12.7906 33.4181 12.9253 33.1002 13.1652 32.8657C13.405 32.6313 13.7304 32.4996 14.0696 32.4996C13.8194 32.5 13.5746 32.4287 13.3654 32.2946C13.1562 32.1604 12.992 31.9692 12.8929 31.7446L10.9462 27.3196C10.6674 26.7353 10.2737 26.2103 9.78733 25.7746C8.30778 24.3775 7.13158 22.7033 6.329 20.852C5.52643 19.0007 5.11395 17.0102 5.11622 14.9996V14.9996ZM20.4649 2.49962C17.9174 2.4992 15.4279 3.2422 13.3153 4.6334C11.2027 6.0246 9.56326 8.00062 8.60717 10.3082C7.65107 12.6158 7.42185 15.1499 7.94886 17.5856C8.47587 20.0213 9.73512 22.2478 11.5652 23.9796C12.238 24.6146 12.8801 25.3896 13.2945 26.3321L14.9138 29.9996H26.0211L27.6378 26.3321C28.0522 25.3896 28.6943 24.6146 29.3671 23.9796C31.1974 22.2476 32.4567 20.021 32.9836 17.585C33.5105 15.149 33.2811 12.6148 32.3247 10.3071C31.3683 7.99936 29.7285 6.02336 27.6155 4.63235C25.5025 3.24134 23.0126 2.4987 20.4649 2.49962V2.49962Z" fill="#0F0F0F"/>
</g>
<defs>
<clipPath id="clip0_936_7031">
<rect width="40.9298" height="40" fill="white"/>
</clipPath>
</defs>
</svg>
