<svg width="33" height="40" viewBox="0 0 33 40" fill="none" xmlns="http://www.w3.org/2000/svg">
<path d="M18.1635 0.115211C15.6653 -0.48229 13.3447 1.32521 13.1775 3.66521C12.9893 6.29271 12.5765 8.70521 12.059 10.1402C11.7324 11.0402 10.8073 12.6727 9.3413 14.2377C7.88574 15.7952 5.99117 17.1827 3.77255 17.7627C2.01647 18.2202 0.226425 19.6752 0.226425 21.8002V31.8027C0.226425 33.9152 2.00863 35.4627 4.01035 35.6652C6.80649 35.9502 8.09741 36.7027 9.41447 37.4727L9.5399 37.5477C10.2507 37.9602 11.0503 38.4177 12.0747 38.7577C13.1122 39.0977 14.3247 39.3002 15.9057 39.3002H25.0519C27.5005 39.3002 29.2304 38.1077 30.1059 36.6402C30.529 35.9477 30.7576 35.1623 30.7696 34.3602C30.7696 33.9802 30.7095 33.5802 30.5684 33.2002C31.0937 32.5427 31.5614 31.7552 31.8436 30.9477C32.1311 30.1227 32.2931 29.0427 31.8541 28.0752C32.0344 27.7502 32.1677 27.4027 32.2696 27.0677C32.4708 26.3927 32.5649 25.6477 32.5649 24.9252C32.5649 24.2052 32.4708 23.4627 32.2696 22.7852C32.1782 22.4738 32.0575 22.1708 31.909 21.8802C32.3665 21.2574 32.6609 20.5385 32.7674 19.7841C32.8738 19.0296 32.7891 18.2618 32.5205 17.5452C31.9821 16.0652 30.7383 14.7952 29.3846 14.3652C27.1712 13.6602 24.673 13.6752 22.8098 13.8377C22.423 13.871 22.037 13.9127 21.6521 13.9627C22.5587 10.2487 22.503 6.379 21.4901 2.69021C21.3139 2.09918 20.9758 1.56392 20.5109 1.13978C20.0459 0.715646 19.471 0.418029 18.8455 0.277711L18.1635 0.115211ZM25.0519 36.8027H15.9057C14.5729 36.8027 13.6505 36.6302 12.9266 36.3927C12.1923 36.1502 11.6043 35.8227 10.8988 35.4102L10.7942 35.3502C9.34391 34.5027 7.66362 33.5227 4.28735 33.1802C3.41715 33.0902 2.83963 32.4552 2.83963 31.8052V21.8002C2.83963 21.1652 3.43022 20.4427 4.45982 20.1752C7.32129 19.4252 9.62614 17.6852 11.2908 15.9052C12.9501 14.1302 14.0712 12.2177 14.5259 10.9602C15.1609 9.21021 15.5895 6.54021 15.7855 3.83521C15.8508 2.93021 16.7262 2.35021 17.5285 2.54021L18.2131 2.70521C18.6313 2.80521 18.8874 3.06271 18.9657 3.34271C20.0329 7.23276 19.9014 11.3351 18.5868 15.1552C18.5124 15.3677 18.4991 15.5954 18.5482 15.8145C18.5973 16.0336 18.7071 16.236 18.8661 16.4006C19.025 16.5652 19.2273 16.6858 19.4517 16.75C19.6761 16.8141 19.9144 16.8194 20.1417 16.7652L20.1495 16.7627L20.1861 16.7552L20.3377 16.7202C21.2313 16.5387 22.1353 16.4076 23.045 16.3277C24.7775 16.1777 26.8524 16.1927 28.5588 16.7377C29.0162 16.8827 29.7348 17.4877 30.0484 18.3627C30.328 19.1327 30.2757 20.0377 29.3533 20.9177L28.4308 21.8002L29.3533 22.6852C29.4656 22.7927 29.6276 23.0377 29.7557 23.4727C29.8811 23.8902 29.9517 24.3977 29.9517 24.9252C29.9517 25.4552 29.8811 25.9602 29.7557 26.3802C29.625 26.8152 29.4656 27.0602 29.3533 27.1677L28.4308 28.0502L29.3533 28.9352C29.4761 29.0527 29.6381 29.3777 29.3663 30.1552C29.0831 30.9092 28.633 31.5957 28.0467 32.1677L27.1242 33.0502L28.0467 33.9352C28.0623 33.9477 28.1538 34.0602 28.1538 34.3602C28.1422 34.7269 28.0334 35.0848 27.8376 35.4002C27.4064 36.1202 26.5231 36.8002 25.0519 36.8002V36.8027Z" fill="#0F0F0F"/>
</svg>
