<svg width="23" height="23" viewBox="0 0 23 23" fill="none" xmlns="http://www.w3.org/2000/svg">
<path fill-rule="evenodd" clip-rule="evenodd" d="M0.0417483 1.95633C0.0417483 1.44856 0.243463 0.961573 0.602517 0.602519C0.961571 0.243465 1.44855 0.0417506 1.95633 0.0417506H21.0417C21.2934 0.0413396 21.5426 0.0905661 21.7752 0.186612C22.0078 0.282657 22.2192 0.423636 22.3972 0.601476C22.5753 0.779316 22.7165 0.990525 22.8128 1.22301C22.9091 1.4555 22.9586 1.70469 22.9584 1.95633V21.0418C22.9587 21.2934 22.9093 21.5427 22.8132 21.7753C22.717 22.0079 22.5759 22.2193 22.398 22.3973C22.2201 22.5753 22.0088 22.7165 21.7763 22.8128C21.5437 22.9091 21.2945 22.9586 21.0428 22.9584H1.95633C1.70482 22.9584 1.45577 22.9089 1.22341 22.8126C0.991056 22.7163 0.779948 22.5752 0.602148 22.3973C0.424349 22.2194 0.283344 22.0082 0.187188 21.7758C0.0910327 21.5434 0.0416115 21.2943 0.0417483 21.0428V1.95633ZM9.11258 8.77925H12.2157V10.3376C12.6636 9.44175 13.8095 8.6355 15.5313 8.6355C18.8324 8.6355 19.6147 10.4199 19.6147 13.6938V19.7584H16.274V14.4397C16.274 12.5751 15.8261 11.523 14.6886 11.523C13.1105 11.523 12.4542 12.6574 12.4542 14.4397V19.7584H9.11258V8.77925ZM3.38342 19.6157H6.72508V8.6355H3.38342V19.6147V19.6157ZM7.20321 5.05425C7.20951 5.34037 7.1586 5.62486 7.05346 5.89104C6.94832 6.15721 6.79107 6.3997 6.59095 6.60428C6.39082 6.80886 6.15185 6.97141 5.88806 7.08238C5.62426 7.19336 5.34096 7.25052 5.05477 7.25052C4.76858 7.25052 4.48528 7.19336 4.22148 7.08238C3.95769 6.97141 3.71872 6.80886 3.51859 6.60428C3.31847 6.3997 3.16122 6.15721 3.05608 5.89104C2.95094 5.62486 2.90003 5.34037 2.90633 5.05425C2.9187 4.49264 3.15048 3.9582 3.55205 3.56538C3.95361 3.17256 4.49302 2.9526 5.05477 2.9526C5.61652 2.9526 6.15593 3.17256 6.55749 3.56538C6.95906 3.9582 7.19084 4.49264 7.20321 5.05425Z" fill="#031A6B"/>
</svg>
