<svg width="43" height="33" viewBox="0 0 43 33" fill="none" xmlns="http://www.w3.org/2000/svg">
<path fill-rule="evenodd" clip-rule="evenodd" d="M12.9999 29.5C12.9999 29.1022 13.158 28.7206 13.4393 28.4393C13.7206 28.158 14.1021 28 14.4999 28H41.4999C41.8978 28 42.2793 28.158 42.5606 28.4393C42.8419 28.7206 42.9999 29.1022 42.9999 29.5C42.9999 29.8978 42.8419 30.2794 42.5606 30.5607C42.2793 30.842 41.8978 31 41.4999 31H14.4999C14.1021 31 13.7206 30.842 13.4393 30.5607C13.158 30.2794 12.9999 29.8978 12.9999 29.5ZM12.9999 17.5C12.9999 17.1022 13.158 16.7206 13.4393 16.4393C13.7206 16.158 14.1021 16 14.4999 16H41.4999C41.8978 16 42.2793 16.158 42.5606 16.4393C42.8419 16.7206 42.9999 17.1022 42.9999 17.5C42.9999 17.8978 42.8419 18.2794 42.5606 18.5607C42.2793 18.842 41.8978 19 41.4999 19H14.4999C14.1021 19 13.7206 18.842 13.4393 18.5607C13.158 18.2794 12.9999 17.8978 12.9999 17.5ZM12.9999 5.5C12.9999 5.10217 13.158 4.72064 13.4393 4.43934C13.7206 4.15803 14.1021 4 14.4999 4H41.4999C41.8978 4 42.2793 4.15803 42.5606 4.43934C42.8419 4.72064 42.9999 5.10217 42.9999 5.5C42.9999 5.89782 42.8419 6.27935 42.5606 6.56066C42.2793 6.84196 41.8978 7 41.4999 7H14.4999C14.1021 7 13.7206 6.84196 13.4393 6.56066C13.158 6.27935 12.9999 5.89782 12.9999 5.5ZM9.56194 1.438C9.70163 1.57733 9.81246 1.74286 9.88808 1.92509C9.9637 2.10733 10.0026 2.30269 10.0026 2.5C10.0026 2.6973 9.9637 2.89266 9.88808 3.0749C9.81246 3.25713 9.70163 3.42266 9.56194 3.562L5.06194 8.062C4.9226 8.20169 4.75708 8.31251 4.57484 8.38813C4.39261 8.46375 4.19724 8.50268 3.99994 8.50268C3.80264 8.50268 3.60728 8.46375 3.42504 8.38813C3.24281 8.31251 3.07728 8.20169 2.93794 8.062L1.43794 6.562C1.29848 6.42253 1.18785 6.25696 1.11237 6.07475C1.03689 5.89253 0.998047 5.69723 0.998047 5.5C0.998047 5.30276 1.03689 5.10746 1.11237 4.92525C1.18785 4.74303 1.29848 4.57746 1.43794 4.438C1.57741 4.29853 1.74297 4.1879 1.92519 4.11243C2.10741 4.03695 2.30271 3.9981 2.49994 3.9981C2.69717 3.9981 2.89247 4.03695 3.07469 4.11243C3.25691 4.1879 3.42248 4.29853 3.56194 4.438L3.99994 4.879L7.43794 1.438C7.57728 1.29831 7.7428 1.18748 7.92504 1.11186C8.10728 1.03624 8.30264 0.997314 8.49994 0.997314C8.69724 0.997314 8.89261 1.03624 9.07484 1.11186C9.25708 1.18748 9.4226 1.29831 9.56194 1.438ZM9.56194 13.438C9.70163 13.5773 9.81246 13.7429 9.88808 13.9251C9.9637 14.1073 10.0026 14.3027 10.0026 14.5C10.0026 14.6973 9.9637 14.8927 9.88808 15.0749C9.81246 15.2571 9.70163 15.4227 9.56194 15.562L5.06194 20.062C4.9226 20.2017 4.75708 20.3125 4.57484 20.3881C4.39261 20.4638 4.19724 20.5027 3.99994 20.5027C3.80264 20.5027 3.60728 20.4638 3.42504 20.3881C3.24281 20.3125 3.07728 20.2017 2.93794 20.062L1.43794 18.562C1.15628 18.2803 0.998047 17.8983 0.998047 17.5C0.998047 17.1017 1.15628 16.7197 1.43794 16.438C1.7196 16.1563 2.10161 15.9981 2.49994 15.9981C2.89827 15.9981 3.28028 16.1563 3.56194 16.438L3.99994 16.879L7.43794 13.438C7.57728 13.2983 7.7428 13.1875 7.92504 13.1119C8.10728 13.0362 8.30264 12.9973 8.49994 12.9973C8.69724 12.9973 8.89261 13.0362 9.07484 13.1119C9.25708 13.1875 9.4226 13.2983 9.56194 13.438ZM9.56194 25.438C9.70163 25.5773 9.81246 25.7429 9.88808 25.9251C9.9637 26.1073 10.0026 26.3027 10.0026 26.5C10.0026 26.6973 9.9637 26.8927 9.88808 27.0749C9.81246 27.2571 9.70163 27.4227 9.56194 27.562L5.06194 32.062C4.9226 32.2017 4.75708 32.3125 4.57484 32.3881C4.39261 32.4638 4.19724 32.5027 3.99994 32.5027C3.80264 32.5027 3.60728 32.4638 3.42504 32.3881C3.24281 32.3125 3.07728 32.2017 2.93794 32.062L1.43794 30.562C1.15628 30.2803 0.998047 29.8983 0.998047 29.5C0.998047 29.1017 1.15628 28.7197 1.43794 28.438C1.7196 28.1563 2.10161 27.9981 2.49994 27.9981C2.89827 27.9981 3.28028 28.1563 3.56194 28.438L3.99994 28.879L7.43794 25.438C7.57728 25.2983 7.7428 25.1875 7.92504 25.1119C8.10728 25.0362 8.30264 24.9973 8.49994 24.9973C8.69724 24.9973 8.89261 25.0362 9.07484 25.1119C9.25708 25.1875 9.4226 25.2983 9.56194 25.438Z" fill="#C66936"/>
</svg>
