<svg width="48" height="45" viewBox="0 0 48 45" fill="none" xmlns="http://www.w3.org/2000/svg">
<path d="M12 45C12 45 9 45 9 42C9 39 12 30 24 30C36 30 39 39 39 42C39 45 36 45 36 45H12ZM24 27.15C25.9891 27.15 27.8968 26.3598 29.3033 24.9533C30.7098 23.5468 31.5 21.6391 31.5 19.65C31.5 17.6609 30.7098 15.7532 29.3033 14.3467C27.8968 12.9402 25.9891 12.15 24 12.15C22.0109 12.15 20.1032 12.9402 18.6967 14.3467C17.2902 15.7532 16.5 17.6609 16.5 19.65C16.5 21.6391 17.2902 23.5468 18.6967 24.9533C20.1032 26.3598 22.0109 27.15 24 27.15Z" fill="#031A6B"/>
<path d="M6 0C4.4087 0 2.88258 0.632141 1.75736 1.75736C0.632141 2.88258 0 4.4087 0 6L0 34.5C0 35.6935 0.474106 36.8381 1.31802 37.682C2.16193 38.5259 3.30653 39 4.5 39H6.459C7.08627 36.7954 8.17652 34.7499 9.657 33H3V6C3 5.20435 3.31607 4.44129 3.87868 3.87868C4.44129 3.31607 5.20435 3 6 3H42C42.7957 3 43.5587 3.31607 44.1213 3.87868C44.6839 4.44129 45 5.20435 45 6V33H38.343C40.005 34.962 41.013 37.119 41.541 39H43.5C44.6935 39 45.8381 38.5259 46.682 37.682C47.5259 36.8381 48 35.6935 48 34.5V6C48 4.4087 47.3679 2.88258 46.2426 1.75736C45.1174 0.632141 43.5913 0 42 0H6Z" fill="#031A6B"/>
</svg>
