<svg width="949" height="544" viewBox="0 0 949 544" fill="none" xmlns="http://www.w3.org/2000/svg">
<rect x="20.59" y="12" width="915" height="509.903" rx="20" fill="#C66936"/>
<rect x="11.5974" y="22.097" width="914" height="509.903" rx="20" fill="#031A6B"/>
<g filter="url(#filter0_bd_1509_6526)">
<g clip-path="url(#clip0_1509_6526)">
<path d="M23.5974 28.097C23.5974 24.7833 26.2837 22.097 29.5974 22.097H913.597C920.225 22.097 925.597 27.4696 925.597 34.097V513.378C925.597 516.692 922.911 519.378 919.597 519.378H35.5974C28.97 519.378 23.5974 514.006 23.5974 507.378V28.097Z" fill="white"/>
</g>
</g>
<defs>
<filter id="filter0_bd_1509_6526" x="0.597412" y="0.0970459" width="948" height="543.281" filterUnits="userSpaceOnUse" color-interpolation-filters="sRGB">
<feFlood flood-opacity="0" result="BackgroundImageFix"/>
<feGaussianBlur in="BackgroundImageFix" stdDeviation="10"/>
<feComposite in2="SourceAlpha" operator="in" result="effect1_backgroundBlur_1509_6526"/>
<feColorMatrix in="SourceAlpha" type="matrix" values="0 0 0 0 0 0 0 0 0 0 0 0 0 0 0 0 0 0 127 0" result="hardAlpha"/>
<feMorphology radius="1" operator="erode" in="SourceAlpha" result="effect2_dropShadow_1509_6526"/>
<feOffset dy="1"/>
<feGaussianBlur stdDeviation="12"/>
<feComposite in2="hardAlpha" operator="out"/>
<feColorMatrix type="matrix" values="0 0 0 0 0 0 0 0 0 0 0 0 0 0 0 0 0 0 0.1 0"/>
<feBlend mode="normal" in2="effect1_backgroundBlur_1509_6526" result="effect2_dropShadow_1509_6526"/>
<feBlend mode="normal" in="SourceGraphic" in2="effect2_dropShadow_1509_6526" result="shape"/>
</filter>
<clipPath id="clip0_1509_6526">
<path d="M23.5974 28.097C23.5974 24.7833 26.2837 22.097 29.5974 22.097H913.597C920.225 22.097 925.597 27.4696 925.597 34.097V513.378C925.597 516.692 922.911 519.378 919.597 519.378H35.5974C28.97 519.378 23.5974 514.006 23.5974 507.378V28.097Z" fill="white"/>
</clipPath>
</defs>
</svg>
