<svg width="778" height="796" viewBox="0 0 778 796" fill="none" xmlns="http://www.w3.org/2000/svg">
<rect x="17.4665" y="11" width="747" height="766.391" rx="20" fill="#C66936"/>
<rect x="12.5334" y="22.0874" width="742" height="758.91" rx="20" fill="#031A6B"/>
<g filter="url(#filter0_bd_1510_6804)">
<g clip-path="url(#clip0_1510_6804)">
<path d="M23.7549 28.09C23.7549 24.7763 26.4412 22.09 29.7549 22.09H742.755C749.382 22.09 754.755 27.4625 754.755 34.09V765.62C754.755 768.934 752.069 771.62 748.755 771.62H35.755C29.1275 771.62 23.7549 766.247 23.7549 759.62V28.09Z" fill="white"/>
</g>
</g>
<defs>
<filter id="filter0_bd_1510_6804" x="0.754944" y="0.0899658" width="777" height="795.53" filterUnits="userSpaceOnUse" color-interpolation-filters="sRGB">
<feFlood flood-opacity="0" result="BackgroundImageFix"/>
<feGaussianBlur in="BackgroundImageFix" stdDeviation="10"/>
<feComposite in2="SourceAlpha" operator="in" result="effect1_backgroundBlur_1510_6804"/>
<feColorMatrix in="SourceAlpha" type="matrix" values="0 0 0 0 0 0 0 0 0 0 0 0 0 0 0 0 0 0 127 0" result="hardAlpha"/>
<feMorphology radius="1" operator="erode" in="SourceAlpha" result="effect2_dropShadow_1510_6804"/>
<feOffset dy="1"/>
<feGaussianBlur stdDeviation="12"/>
<feComposite in2="hardAlpha" operator="out"/>
<feColorMatrix type="matrix" values="0 0 0 0 0 0 0 0 0 0 0 0 0 0 0 0 0 0 0.1 0"/>
<feBlend mode="normal" in2="effect1_backgroundBlur_1510_6804" result="effect2_dropShadow_1510_6804"/>
<feBlend mode="normal" in="SourceGraphic" in2="effect2_dropShadow_1510_6804" result="shape"/>
</filter>
<clipPath id="clip0_1510_6804">
<path d="M23.7549 28.09C23.7549 24.7763 26.4412 22.09 29.7549 22.09H742.755C749.382 22.09 754.755 27.4625 754.755 34.09V765.62C754.755 768.934 752.069 771.62 748.755 771.62H35.755C29.1275 771.62 23.7549 766.247 23.7549 759.62V28.09Z" fill="white"/>
</clipPath>
</defs>
</svg>
