<svg width="44" height="30" viewBox="0 0 44 30" fill="none" xmlns="http://www.w3.org/2000/svg">
<path d="M16.265 15C18.4219 15 20.4905 14.2098 22.0156 12.8033C23.5407 11.3968 24.3976 9.48912 24.3976 7.5C24.3976 5.51088 23.5407 3.60322 22.0156 2.1967C20.4905 0.790177 18.4219 0 16.265 0C14.1082 0 12.0396 0.790177 10.5145 2.1967C8.98934 3.60322 8.13252 5.51088 8.13252 7.5C8.13252 9.48912 8.98934 11.3968 10.5145 12.8033C12.0396 14.2098 14.1082 15 16.265 15V15ZM21.6867 7.5C21.6867 8.82608 21.1155 10.0979 20.0987 11.0355C19.082 11.9732 17.703 12.5 16.265 12.5C14.8271 12.5 13.4481 11.9732 12.4313 11.0355C11.4146 10.0979 10.8434 8.82608 10.8434 7.5C10.8434 6.17392 11.4146 4.90215 12.4313 3.96447C13.4481 3.02678 14.8271 2.5 16.265 2.5C17.703 2.5 19.082 3.02678 20.0987 3.96447C21.1155 4.90215 21.6867 6.17392 21.6867 7.5V7.5ZM32.5301 27.5C32.5301 30 29.8192 30 29.8192 30H2.71084C2.71084 30 0 30 0 27.5C0 25 2.71084 17.5 16.265 17.5C29.8192 17.5 32.5301 25 32.5301 27.5ZM29.8192 27.49C29.8165 26.875 29.4018 25.025 27.5638 23.33C25.7963 21.7 22.4701 20 16.265 20C10.0572 20 6.73373 21.7 4.96626 23.33C3.12831 25.025 2.71626 26.875 2.71084 27.49H29.8192Z" fill="#0F0F0F"/>
<path fill-rule="evenodd" clip-rule="evenodd" d="M42.9774 7.86455C43.1037 7.98066 43.2038 8.1186 43.2721 8.27046C43.3405 8.42233 43.3756 8.58513 43.3756 8.74955C43.3756 8.91397 43.3405 9.07677 43.2721 9.22863C43.2038 9.3805 43.1037 9.51843 42.9774 9.63455L34.8449 17.1345C34.719 17.251 34.5694 17.3433 34.4048 17.4063C34.2401 17.4693 34.0636 17.5018 33.8853 17.5018C33.707 17.5018 33.5305 17.4693 33.3658 17.4063C33.2011 17.3433 33.0515 17.251 32.9256 17.1345L28.8594 13.3845C28.6049 13.1498 28.4619 12.8315 28.4619 12.4995C28.4619 12.1676 28.6049 11.8493 28.8594 11.6145C29.1139 11.3798 29.4591 11.248 29.819 11.248C30.1789 11.248 30.5241 11.3798 30.7787 11.6145L33.8853 14.482L41.0582 7.86455C41.1841 7.74814 41.3336 7.65578 41.4983 7.59277C41.663 7.52975 41.8395 7.49731 42.0178 7.49731C42.1961 7.49731 42.3726 7.52975 42.5373 7.59277C42.702 7.65578 42.8515 7.74814 42.9774 7.86455V7.86455Z" fill="#0F0F0F"/>
</svg>
