<svg width="39" height="30" viewBox="0 0 39 30" fill="none" xmlns="http://www.w3.org/2000/svg">
<path d="M0 0V3H33V27H12V30H39V27H36V0H0ZM6.003 4.5C4.41313 4.50553 2.8899 5.13935 1.76541 6.26329C0.640907 7.38722 0.00632458 8.91013 0 10.5C0 13.7985 2.706 16.5 6.003 16.5C7.59207 16.4937 9.11422 15.8594 10.2376 14.7355C11.361 13.6115 11.9945 12.0891 12 10.5C12 7.2045 9.297 4.5 6.003 4.5ZM15 6V9H22.5V6H15ZM25.5 6V9H30V6H25.5ZM6.003 7.5C7.674 7.5 9 8.8245 9 10.5C9 12.18 7.6755 13.5 6.003 13.5C4.323 13.5 3 12.18 3 10.5C3 8.8245 4.3245 7.5 6.003 7.5ZM15 12V15H30V12H15ZM0 18V30H3V21H7.5V30H10.5V21.987L13.596 23.625C14.4735 24.09 15.528 24.0885 16.404 23.625V23.628L21.699 20.8275L20.2995 18.1725L15.003 20.973L10.359 18.522C9.71087 18.1796 8.98902 18.0004 8.256 18H0Z" fill="#0F0F0F"/>
</svg>
