<svg width="34" height="27" viewBox="0 0 34 27" fill="none" xmlns="http://www.w3.org/2000/svg">
<path d="M11.5 12.625H3.40125C3.65679 10.9232 4.26446 9.29344 5.18544 7.83977C6.10641 6.3861 7.32045 5.14049 8.75 4.1825L11.2113 2.5325L9.69875 0.25L7.2375 1.9C5.16576 3.2806 3.46685 5.15127 2.29153 7.34599C1.11621 9.54072 0.500835 11.9916 0.5 14.4813V23.625C0.5 24.3543 0.789731 25.0538 1.30546 25.5695C1.82118 26.0853 2.52065 26.375 3.25 26.375H11.5C12.2293 26.375 12.9288 26.0853 13.4445 25.5695C13.9603 25.0538 14.25 24.3543 14.25 23.625V15.375C14.25 14.6457 13.9603 13.9462 13.4445 13.4305C12.9288 12.9147 12.2293 12.625 11.5 12.625ZM30.75 12.625H22.6513C22.9068 10.9232 23.5145 9.29344 24.4354 7.83977C25.3564 6.3861 26.5704 5.14049 28 4.1825L30.4613 2.5325L28.9625 0.25L26.4875 1.9C24.4158 3.2806 22.7169 5.15127 21.5415 7.34599C20.3662 9.54072 19.7508 11.9916 19.75 14.4813V23.625C19.75 24.3543 20.0397 25.0538 20.5555 25.5695C21.0712 26.0853 21.7707 26.375 22.5 26.375H30.75C31.4793 26.375 32.1788 26.0853 32.6945 25.5695C33.2103 25.0538 33.5 24.3543 33.5 23.625V15.375C33.5 14.6457 33.2103 13.9462 32.6945 13.4305C32.1788 12.9147 31.4793 12.625 30.75 12.625Z" fill="#C66936"/>
</svg>
