<svg width="39" height="39" viewBox="0 0 39 39" fill="none" xmlns="http://www.w3.org/2000/svg">
<path d="M28.6213 25.2131C30.9815 21.9924 32.0386 17.9993 31.5811 14.0326C31.1237 10.066 29.1853 6.41834 26.1539 3.81945C23.1225 1.22057 19.2216 -0.137893 15.2317 0.0158481C11.2417 0.169589 7.4569 1.82419 4.63448 4.64864C1.81206 7.47308 0.160159 11.2591 0.00927362 15.2491C-0.141612 19.2392 1.21964 23.1392 3.82069 26.1687C6.42175 29.1982 10.0708 31.1339 14.0377 31.5886C18.0047 32.0432 21.9971 30.9832 25.2161 28.6207H25.2136C25.2868 28.7182 25.3648 28.8108 25.4525 28.901L34.8369 38.2854C35.2939 38.7428 35.914 38.9998 36.5606 39.0001C37.2071 39.0003 37.8274 38.7437 38.2847 38.2866C38.7421 37.8296 38.9992 37.2095 38.9994 36.5629C38.9996 35.9163 38.743 35.2961 38.2859 34.8388L28.9016 25.4544C28.8144 25.3662 28.7207 25.2847 28.6213 25.2106V25.2131ZM29.2501 15.8433C29.2501 17.6039 28.9034 19.3472 28.2296 20.9737C27.5559 22.6002 26.5684 24.0781 25.3235 25.323C24.0787 26.5679 22.6008 27.5554 20.9742 28.2291C19.3477 28.9028 17.6044 29.2496 15.8439 29.2496C14.0834 29.2496 12.3401 28.9028 10.7135 28.2291C9.08702 27.5554 7.60912 26.5679 6.36424 25.323C5.11935 24.0781 4.13185 22.6002 3.45813 20.9737C2.7844 19.3472 2.43764 17.6039 2.43764 15.8433C2.43764 12.2878 3.85008 8.87783 6.36424 6.36367C8.8784 3.84951 12.2883 2.43707 15.8439 2.43707C19.3994 2.43707 22.8094 3.84951 25.3235 6.36367C27.8377 8.87783 29.2501 12.2878 29.2501 15.8433Z" fill="#0F0F0F"/>
</svg>
