<svg width="41" height="41" viewBox="0 0 41 41" fill="none" xmlns="http://www.w3.org/2000/svg">
<path d="M15.5263 2.50439V10.0176H3.00439V2.50439H15.5263ZM3.00439 0C2.34018 0 1.70318 0.263855 1.23352 0.733519C0.763855 1.20318 0.5 1.84018 0.5 2.50439L0.5 10.0176C0.5 10.6818 0.763855 11.3188 1.23352 11.7884C1.70318 12.2581 2.34018 12.522 3.00439 12.522H15.5263C16.1905 12.522 16.8276 12.2581 17.2972 11.7884C17.7669 11.3188 18.0307 10.6818 18.0307 10.0176V2.50439C18.0307 1.84018 17.7669 1.20318 17.2972 0.733519C16.8276 0.263855 16.1905 0 15.5263 0L3.00439 0ZM38.0659 30.0527V37.5659H25.5439V30.0527H38.0659ZM25.5439 27.5483C24.8797 27.5483 24.2427 27.8122 23.773 28.2818C23.3034 28.7515 23.0395 29.3885 23.0395 30.0527V37.5659C23.0395 38.2301 23.3034 38.8671 23.773 39.3367C24.2427 39.8064 24.8797 40.0703 25.5439 40.0703H38.0659C38.7301 40.0703 39.3671 39.8064 39.8367 39.3367C40.3064 38.8671 40.5703 38.2301 40.5703 37.5659V30.0527C40.5703 29.3885 40.3064 28.7515 39.8367 28.2818C39.3671 27.8122 38.7301 27.5483 38.0659 27.5483H25.5439ZM15.5263 20.0351V37.5659H3.00439V20.0351H15.5263ZM3.00439 17.5307C2.34018 17.5307 1.70318 17.7946 1.23352 18.2643C0.763855 18.7339 0.5 19.3709 0.5 20.0351L0.5 37.5659C0.5 38.2301 0.763855 38.8671 1.23352 39.3367C1.70318 39.8064 2.34018 40.0703 3.00439 40.0703H15.5263C16.1905 40.0703 16.8276 39.8064 17.2972 39.3367C17.7669 38.8671 18.0307 38.2301 18.0307 37.5659V20.0351C18.0307 19.3709 17.7669 18.7339 17.2972 18.2643C16.8276 17.7946 16.1905 17.5307 15.5263 17.5307H3.00439ZM38.0659 2.50439V20.0351H25.5439V2.50439H38.0659ZM25.5439 0C24.8797 0 24.2427 0.263855 23.773 0.733519C23.3034 1.20318 23.0395 1.84018 23.0395 2.50439V20.0351C23.0395 20.6993 23.3034 21.3363 23.773 21.806C24.2427 22.2757 24.8797 22.5395 25.5439 22.5395H38.0659C38.7301 22.5395 39.3671 22.2757 39.8367 21.806C40.3064 21.3363 40.5703 20.6993 40.5703 20.0351V2.50439C40.5703 1.84018 40.3064 1.20318 39.8367 0.733519C39.3671 0.263855 38.7301 0 38.0659 0L25.5439 0Z" fill="#0F0F0F"/>
</svg>
