<?xml version="1.0" standalone="no"?>
<!DOCTYPE svg PUBLIC "-//W3C//DTD SVG 20010904//EN"
 "http://www.w3.org/TR/2001/REC-SVG-20010904/DTD/svg10.dtd">
<svg version="1.0" xmlns="http://www.w3.org/2000/svg"
 width="104.000000pt" height="104.000000pt" viewBox="0 0 104.000000 104.000000"
 preserveAspectRatio="xMidYMid meet">
<metadata>
Created by potrace 1.14, written by Peter Selinger 2001-2017
</metadata>
<g transform="translate(0.000000,104.000000) scale(0.100000,-0.100000)"
fill="#000000" stroke="none">
<path d="M403 983 c-43 -25 -91 -53 -108 -63 -16 -10 -84 -49 -150 -86 -102
-59 -120 -73 -122 -95 -1 -19 5 -30 23 -39 l24 -13 -23 -16 c-20 -14 -22 -24
-23 -91 0 -69 2 -76 24 -88 l25 -14 -25 -16 c-22 -16 -24 -24 -23 -92 l0 -74
95 -56 c52 -31 115 -68 140 -82 25 -14 96 -55 158 -92 78 -46 123 -66 147 -66
24 0 89 32 236 116 112 64 206 118 209 121 2 2 5 36 5 76 2 66 0 74 -24 93
l-25 21 22 7 c12 4 22 13 23 19 0 7 2 20 4 30 2 10 -6 22 -22 30 l-25 14 24
15 c21 14 23 22 22 92 0 42 -3 78 -5 80 -2 2 -87 52 -189 111 -102 59 -220
129 -262 155 l-77 48 -78 -45z m409 -208 c76 -44 138 -84 139 -90 1 -5 -5 -13
-12 -18 -10 -6 -73 25 -209 104 -107 62 -197 114 -200 117 -3 2 4 10 14 18 22
15 7 22 268 -131z m-221 22 c13 -9 -3 -3 -36 14 -33 18 -67 39 -75 47 -17 16
72 -33 111 -61z m-234 -32 c9 -9 -9 -24 -72 -59 -73 -41 -86 -45 -104 -34 -19
12 -15 16 59 59 84 48 99 53 117 34z m332 -21 c34 -20 61 -38 61 -41 0 -5 -77
38 -115 64 -39 27 -5 12 54 -23z m-245 -27 c17 -12 11 -18 -65 -61 -74 -41
-87 -46 -108 -36 -24 11 -22 13 59 61 47 27 87 49 91 49 3 0 13 -6 23 -13z
m376 -53 c0 -2 -9 0 -20 6 -11 6 -20 13 -20 16 0 2 9 0 20 -6 11 -6 20 -13 20
-16z m-670 -33 c0 -13 -30 -22 -51 -16 -24 8 -24 21 -2 34 18 10 53 -2 53 -18z
m432 -33 c59 -34 108 -66 108 -70 0 -4 -8 -11 -17 -17 -14 -7 -39 4 -108 44
l-90 54 -44 -26 c-37 -21 -47 -23 -69 -14 -25 12 -25 12 39 51 35 21 66 39 69
39 2 1 53 -27 112 -61z m288 36 c0 -2 -9 0 -20 6 -11 6 -20 13 -20 16 0 2 9 0
20 -6 11 -6 20 -13 20 -16z m-630 -55 c0 -12 -32 -20 -51 -14 -24 8 -24 21 -2
33 16 10 53 -4 53 -19z m720 0 c0 -12 -32 -20 -51 -14 -24 8 -24 21 -2 33 16
10 53 -4 53 -19z m-367 -115 c-25 -18 -23 -19 -98 24 -65 38 -66 39 -44 54 21
13 28 12 91 -25 62 -36 66 -41 51 -53z m-459 80 c21 -8 20 -21 -3 -33 -25 -14
-64 13 -41 29 18 11 23 12 44 4z m180 0 c23 -9 20 -23 -6 -33 -14 -5 -30 -4
-41 3 -16 10 -16 12 0 24 19 14 25 14 47 6z m546 -4 c13 -9 13 -12 -3 -25 -15
-11 -24 -11 -44 -2 -23 10 -24 12 -7 24 21 16 34 16 54 3z m-630 -50 c13 -9
13 -12 -3 -25 -15 -10 -25 -11 -43 -3 -22 10 -22 12 -6 24 21 16 32 17 52 4z
m246 -42 l87 -52 46 26 c40 22 50 24 70 14 21 -12 20 -14 -40 -49 -34 -20 -67
-37 -73 -37 -7 0 -61 29 -120 64 -95 55 -106 65 -90 75 27 15 24 16 120 -41z
m307 33 c4 -4 -3 -13 -17 -19 -19 -8 -28 -7 -43 3 -16 13 -16 16 -3 25 15 9
47 5 63 -9z m161 13 c22 -8 20 -21 -4 -34 -14 -8 -26 -8 -41 0 -20 11 -20 12
-2 25 21 16 25 17 47 9z m-805 -82 c-17 -12 -26 -12 -47 -2 l-27 12 25 13 c17
9 30 10 47 2 l23 -10 -21 -15z m286 -37 c28 -15 55 -31 60 -35 6 -4 26 -17 46
-28 l35 -20 90 53 c68 40 93 51 107 44 9 -6 17 -13 17 -17 0 -4 -48 -35 -107
-69 l-107 -62 -45 26 c-25 14 -97 55 -159 91 -108 62 -112 66 -90 78 20 11 29
9 63 -11 22 -12 63 -35 90 -50z m437 39 c-22 -17 -37 -17 -51 0 -18 21 15 37
46 23 21 -9 21 -11 5 -23z m-447 -139 c144 -84 151 -87 175 -73 228 136 240
141 267 129 26 -12 25 -13 -63 -63 -49 -28 -120 -69 -157 -91 l-69 -40 -36 19
c-21 10 -65 36 -99 57 -35 20 -67 37 -73 37 -5 0 -10 5 -10 10 0 6 -5 10 -10
10 -6 0 -40 18 -76 40 -36 22 -69 40 -73 40 -4 0 -12 5 -19 12 -10 10 -7 15
10 24 19 10 28 9 53 -6 17 -9 98 -57 180 -105z m544 88 c-13 -15 -38 -17 -59
-3 -13 9 -13 12 3 25 25 18 73 0 56 -22z"/>
</g>
</svg>
