<svg id="Layer_1" data-name="Layer 1" xmlns="http://www.w3.org/2000/svg" viewBox="0 0 581.93 225.26"><defs><style>.cls-1{fill:#243c4c}.cls-2{fill:#7caf41}</style></defs><path class="cls-1" d="M77 225.26h6.76v-93H94v32h66.7v-6.76h-59.95v-25.23h59.95v-6.76h-59.93v-10.24h59.93v-6.76H77zm17-110v10.25H83.73v-10.24z"/><path class="cls-1" d="M100.76 225.26v-43.99h59.94v-6.76H94.01v50.75h6.75z"/><path class="cls-2" d="M94 .06v54.59H83.74V0H77v54.65H23.57V0h-6.76v61.4H77v10.23H17v53.75h6.76v-47H77v30.15h6.76V78.38H94v30.13h6.75V.06zm0 71.57H83.72V61.41H94zM0 0h6.76v125.38H0z"/><path class="cls-1" d="M198 24.23l2.56 9.87h2.64l4.64-16.56h-3.19l-2.77 10.62-2.71-10.62h-2.32l-2.74 10.69-2.71-10.69h-3.24l4.64 16.56h2.64l2.56-9.87zm17.07-6.69h3.11V34.1h-3.11zm22.38 13.64h-5.47V17.54h-3.11V34.1h8.58v-2.92zm16.7 0h-5.47V17.54h-3.12V34.1h8.59v-2.92zm8.02-13.64h3.11V34.1h-3.11zm15.67 11.92h5.1l1.75 4.64H288l-6.19-16.3-.1-.26h-2.63L272.8 34.1h3.3zm1.1-2.92l1.47-4.4 1.46 4.4zm20-4.15l4.68 11.71h1.94l4.68-11.75V34.1h3.11V17.54h-4.3l-4.47 11.36-4.45-11.36h-4.3V34.1h3.11V22.39zm60 4.9h5.66v-2.92h-5.66v-3.91h5.66v-2.92h-8.78V34.1h3.12v-6.81zm23.27 3.89h-5.47V17.54h-3.12V34.1h8.59v-2.92zM398 34.4a8.58 8.58 0 10-8.6-8.58 8.58 8.58 0 008.6 8.58zm0-14.24a5.58 5.58 0 015.49 5.72 5.49 5.49 0 11-5.49-5.72zm19.53 7.45l4.62 6.49h3.9l-4.46-6a4.88 4.88 0 004.15-5.1 5.58 5.58 0 00-1.57-4 6 6 0 00-4.47-1.43h-5.28V34.1h3.11zm0-7.15h2c2.27 0 3.08 1.3 3.08 2.53 0 1.77-1.32 2.68-3.93 2.68h-1.17zm21.38 9H444l1.74 4.64h3.32l-6.19-16.3-.1-.26h-2.63l-6.28 16.56h3.3zm1.09-2.92l1.48-4.4 1.45 4.4zM199.88 54.37h-6.3v54.64h6.3v-24.7h27.56v24.7h6.3V54.37h-6.3v24.16h-27.56V54.37zM261.34 110c9.13 0 17.29-4.83 20.32-13.5l.19-.54h-6.34l-.1.26c-1.54 4.19-6.17 9.14-14.14 9.3-7.65 0-14.68-6.43-15.28-13.86h36.85v-.38a21.76 21.76 0 00-3.16-13.05 21.43 21.43 0 00-18.44-10.57A21.9 21.9 0 00239.8 89.4c.02 11.89 9.68 20.6 21.54 20.6zM246 86.16a15.54 15.54 0 0130.67 0zm81.42 22.85l15.8-40.34h-6.21l-12.66 33.32-9.14-28.43h-5.11l-9.06 28.42-12.42-33.04-.1-.27h-6.28l15.63 40.08.09.26h6.44l8.22-25.26 8.37 25.26h6.43zm20.44-54.64h6v54.64h-6zm32.77 13.27a21.9 21.9 0 00-21.44 21.74c0 11.91 9.66 20.6 21.53 20.6 9.12 0 17.29-4.83 20.31-13.5l.19-.54h-6.34l-.1.26c-1.54 4.19-6.17 9.14-14.14 9.3-7.65 0-14.67-6.43-15.27-13.86h36.85v-.38a21.76 21.76 0 00-3.17-13.05 21.43 21.43 0 00-18.42-10.57zm15.45 18.52h-30.66a15.53 15.53 0 0130.66 0zm15.06 22.85h6V74.15h16.15v34.86h6V74.15H449v-5.48h-9.71v-14.3h-6v14.3h-16.15v-14.3h-6v14.3h-8.52v5.48h8.52v34.86zm-218 71.87h6.29v-25.05h21.41v-5.77h-21.41v-19.05h22.23v-5.77h-28.52v55.64zm53.75-42.38a21.67 21.67 0 1021.67 21.67 21.78 21.78 0 00-21.67-21.67zm.08 37.86a15.81 15.81 0 01-15.6-16A16 16 0 01247 144c6.29 0 15.59 5.07 15.59 16-.03 10.22-7.96 16.36-15.59 16.36zm56.72-15.01c0 7.17-1.94 9.7-4.11 11.87a11.13 11.13 0 01-8.3 3.14c-3.87 0-6.93-1.25-9.09-3.7-1.89-2.36-2.81-5.77-2.81-10.42v-22.71h-6v22.79c0 5.84 1.22 10.32 3.64 13.29 1.86 2.33 6.19 6.23 14.25 6.23 7.54 0 11.21-4.05 12.7-6.38v5.42h5.71v-41.35h-6zm31.45-22.85a15.24 15.24 0 00-12.14 5.56v-4.53h-6v41.35h6v-22.72c-.06-4.63 1.24-8.47 3.66-10.81a12.49 12.49 0 0117.07 0c2.4 2.32 3.73 6.16 3.73 10.82v22.71h6v-22.71c0-6.25-1.79-11.3-5.16-14.59-3.57-3.51-7.61-5.08-13.16-5.08zm60.73 7.36c-5.24-6.82-13.15-7.36-15.53-7.36a21.67 21.67 0 00-22.19 21.59c0 12.2 9.75 21.75 22.19 21.75 4.89 0 11.41-2 15.53-7.42v6.46h6v-55.64h-6zm-15.53 30.5a15.76 15.76 0 01-16.19-16c0-10.73 8.15-16.34 16.19-16.34a16.06 16.06 0 0115.82 16.26 15.8 15.8 0 01-15.82 16.08zM443.88 146c-4.84-6.7-12.4-7.45-15.52-7.45a21.67 21.67 0 00-22.19 21.59c0 12.2 9.75 21.75 22.19 21.75 3.07 0 10.54-.74 15.52-7.41v6.45h6v-41.4h-6zm-15.52 30.41a15.76 15.76 0 01-16.19-16c0-10.73 8.15-16.34 16.19-16.34a16.06 16.06 0 0115.82 16.26 15.8 15.8 0 01-15.82 16.03zm40.87-51.17h-6v14.29h-8.52v5.49h8.52v35.86h6v-35.86h9.7v-5.49h-9.7v-14.29zm15.63 0h6v10.15h-6zm0 14.29h6v41.34h-6zm33.9-1.03a21.67 21.67 0 1021.67 21.67 21.78 21.78 0 00-21.67-21.67zm.08 37.86a15.81 15.81 0 01-15.6-16 16 16 0 0115.6-16.36c6.29 0 15.59 5.07 15.59 16 0 10.22-7.93 16.36-15.59 16.36zm57.93-32.78c-3.51-3.51-7.56-5.08-13.1-5.08a15.21 15.21 0 00-12.19 5.56v-4.53h-6v41.35h6v-22.72c-.07-4.63 1.23-8.47 3.65-10.81a12.49 12.49 0 0117.07 0c2.4 2.32 3.73 6.16 3.73 10.82v22.71h6v-22.71c0-6.25-1.79-11.3-5.16-14.59z"/><path class="cls-2" d="M332.76 31.61h3.03v-4.28h4.26V24.3h-4.26v-4.27h-3.03v4.27h-4.26v3.03h4.26v4.28z"/></svg>