<?xml version="1.0" encoding="UTF-8"?> <svg xmlns="http://www.w3.org/2000/svg" width="105" height="39" viewBox="0 0 105 39" fill="none"><path fill-rule="evenodd" clip-rule="evenodd" d="M77.3084 4.03675C77.3084 1.81078 79.1063 0 81.3161 0C83.5255 0 85.3234 1.81078 85.3234 4.03675C85.3234 6.26194 83.5255 8.07325 81.3161 8.07325C79.1063 8.07325 77.3084 6.26194 77.3084 4.03675ZM81.3167 9.75029C79.2893 9.75029 77.6393 11.4119 77.6393 13.4541V27.3805H84.9931V13.4541C84.9931 11.4119 83.3443 9.75029 81.3167 9.75029ZM96.0857 9.75029C91.1702 9.75029 87.1712 13.7786 87.1712 18.7301V27.3802H94.5237V18.1659H97.6477V27.3802H105V18.7301C105 13.7786 101.001 9.75029 96.0857 9.75029ZM66.9167 21.2738C65.4741 21.2738 64.3046 20.0914 64.3046 18.6331C64.3046 17.1748 65.4741 15.9926 66.9167 15.9926C68.3594 15.9926 69.5288 17.1748 69.5288 18.6331C69.5288 20.0914 68.3594 21.2738 66.9167 21.2738ZM73.6897 23.7889C75.1268 22.4754 75.602 20.2083 75.602 18.693L75.6081 11.8122C75.6081 8.56467 71.6117 7.49772 70.2907 10.4979C69.232 10.0481 67.9494 9.7558 66.7301 9.7558C61.8378 9.7558 57.8581 13.7651 57.8581 18.693C57.8581 23.6211 61.8378 27.6297 66.7301 27.6297C66.7301 27.6297 67.6924 27.6522 68.6175 27.433C69.1935 27.9019 69.5245 28.5462 69.5245 29.2613C69.5245 30.7994 68.4438 31.8741 67.0285 31.8741C65.598 31.8741 64.6166 30.6908 64.5068 29.1948H58.1482C58.1482 34.1702 62.1963 38.0745 67.0727 38.0745C72.0336 38.0745 76.0694 34.225 76.0694 29.5557C76.0694 25.7397 73.6897 23.7889 73.6897 23.7889ZM44.956 18.6331C44.956 20.0914 46.1255 21.2738 47.5681 21.2738C49.0108 21.2738 50.1802 20.0914 50.1802 18.6331C50.1802 17.1748 49.0108 15.9926 47.5681 15.9926C46.1255 15.9926 44.956 17.1748 44.956 18.6331ZM56.2534 18.693C56.2534 20.2083 55.7781 22.4754 54.3409 23.7889C54.3409 23.7889 56.7208 25.7397 56.7208 29.5557C56.7208 34.225 52.6848 38.0745 47.7241 38.0745C42.8475 38.0745 38.7995 34.1702 38.7995 29.1948H45.1582C45.2679 30.6908 46.2493 31.8741 47.6798 31.8741C49.095 31.8741 50.1759 30.7994 50.1759 29.2613C50.1759 28.5462 49.8447 27.9019 49.2689 27.433C48.3438 27.6522 47.3814 27.6297 47.3814 27.6297C42.4893 27.6297 38.5095 23.6211 38.5095 18.693C38.5095 13.7651 42.4893 9.7558 47.3814 9.7558C48.6008 9.7558 49.8834 10.0481 50.9421 10.4979C52.2631 7.49772 56.2595 8.56467 56.2595 11.8122L56.2534 18.693ZM28.2289 21.274C26.7863 21.274 25.6168 20.0917 25.6168 18.6333C25.6168 17.175 26.7863 15.9928 28.2289 15.9928C29.6715 15.9928 30.841 17.175 30.841 18.6333C30.841 20.0917 29.6715 21.274 28.2289 21.274ZM28.2287 9.76255C23.3268 9.76255 19.353 13.7655 19.353 18.7032C19.353 23.641 23.3268 27.6436 28.2287 27.6436C33.1307 27.6436 37.1045 23.641 37.1045 18.7032C37.1045 13.7655 33.1307 9.76255 28.2287 9.76255ZM0 18.7301C0 13.7786 3.999 9.75029 8.91446 9.75029C13.8299 9.75029 17.8288 13.7786 17.8288 18.7301V27.3802H10.4765V18.1659H7.35243V27.3802H0V18.7301Z" fill="#881ED5"></path></svg> 