<svg enable-background="new 0 0 599.72 164.38" viewBox="0 0 599.72 164.38" xmlns="http://www.w3.org/2000/svg"><g fill="#2c3675"><path d="m193.28 108.09c-3.52 0-6.85-.67-9.98-2s-5.87-3.38-8.22-6.16-4.21-6.28-5.58-10.52c-1.37-4.23-2.06-9.27-2.06-15.11 0-5.81.69-10.84 2.06-15.09s3.23-7.76 5.58-10.54c2.35-2.75 5.09-4.79 8.22-6.12s6.46-2 9.98-2c3.49 0 6.8.67 9.92 2s5.85 3.37 8.2 6.12c2.35 2.78 4.21 6.29 5.58 10.54s2.06 9.28 2.06 15.09c0 5.84-.69 10.87-2.06 15.11s-3.23 7.74-5.58 10.52-5.08 4.83-8.2 6.16-6.43 2-9.92 2zm0-10.99c2 0 3.77-.51 5.3-1.53s2.81-2.5 3.84-4.45c1.03-1.92 1.81-4.29 2.34-7.12.53-2.82.79-6.04.79-9.65 0-7.22-1.05-12.76-3.16-16.6-2.1-3.84-5.14-5.76-9.12-5.76-4.06 0-7.15 1.92-9.25 5.76s-3.15 9.38-3.15 16.6c0 3.61.26 6.83.79 9.65s1.32 5.2 2.38 7.12c1.03 1.95 2.32 3.43 3.86 4.45 1.56 1.02 3.35 1.53 5.38 1.53z"/><path d="m227 59.97h13.05v6.27c.6-.89 1.29-1.76 2.06-2.62s1.66-1.63 2.66-2.32 2.12-1.24 3.35-1.65 2.58-.62 4.04-.62c2.26 0 4.32.49 6.18 1.46s3.45 2.45 4.76 4.42c1.32 2 2.34 4.54 3.07 7.6s1.09 6.68 1.09 10.86-.36 7.78-1.09 10.82c-.73 3.03-1.77 5.54-3.11 7.51s-2.96 3.44-4.83 4.4c-1.88.96-3.96 1.44-6.25 1.44-2.66 0-4.97-.54-6.93-1.61s-3.63-2.55-5-4.44v22.96h-13.05zm20.31 37.47c2.35 0 4.09-1.11 5.24-3.33 1.14-2.22 1.72-5.77 1.72-10.67 0-4.64-.55-8.03-1.65-10.19s-2.9-3.24-5.39-3.24c-.74 0-1.45.13-2.12.39s-1.31.59-1.91.99-1.17.85-1.7 1.35-1.01.99-1.44 1.48v19.27c1.14 1.17 2.28 2.12 3.41 2.85 1.12.74 2.41 1.1 3.84 1.1z"/><path d="m293.65 107.83c-2.8 0-5.46-.46-7.96-1.37-2.5-.92-4.69-2.36-6.55-4.33-1.86-1.95-3.33-4.46-4.42-7.53-1.09-3.08-1.63-6.79-1.63-11.14 0-4.46.6-8.25 1.8-11.35s2.78-5.63 4.72-7.58c1.92-1.92 4.08-3.31 6.48-4.18s4.81-1.31 7.21-1.31c2.63 0 5.09.47 7.38 1.42s4.29 2.42 6.01 4.42c1.69 2.03 3.02 4.65 3.99 7.85.97 3.21 1.46 7.05 1.46 11.55v2.36h-26.31c.23 4.04 1.07 6.98 2.53 8.82 1.46 1.85 3.43 2.77 5.92 2.77 1.12 0 2.18-.17 3.2-.52s1.95-.81 2.81-1.39c.86-.55 1.63-1.2 2.32-1.94s1.27-1.5 1.76-2.29l7.55 6.05c-1 1.46-2.12 2.79-3.35 3.99s-2.59 2.22-4.08 3.05c-1.49.86-3.13 1.52-4.94 1.97-1.78.45-3.76.68-5.9.68zm6.7-28.59c-.23-3.55-.92-6.15-2.08-7.81s-2.81-2.49-4.96-2.49c-.92 0-1.78.19-2.58.56s-1.53.96-2.19 1.76c-.66.83-1.22 1.9-1.67 3.22s-.77 2.9-.94 4.76z"/><path d="m320.03 59.97h13.05v6.52c.57-.8 1.31-1.65 2.21-2.53.9-.89 1.94-1.7 3.11-2.45 1.17-.71 2.48-1.31 3.93-1.78 1.44-.47 3.01-.71 4.7-.71 1.66 0 3.19.21 4.59.64s2.6 1.13 3.61 2.1c.97.97 1.74 2.25 2.3 3.82s.84 3.49.84 5.75v35.5h-12.92v-31.36c0-1.8-.32-3.16-.97-4.08-.64-.92-1.72-1.37-3.24-1.37-.74 0-1.49.12-2.23.36-.75.24-1.46.57-2.15.97s-1.35.85-2 1.35c-.64.5-1.24 1.01-1.78 1.52v32.62h-13.05z"/></g><path d="m390.58 108c-3.18 0-6.03-.38-8.56-1.14s-4.79-1.82-6.76-3.2c-2-1.34-3.75-2.97-5.24-4.87s-2.79-4-3.91-6.29l10.82-5.45c.71 1.4 1.53 2.73 2.45 3.97s1.95 2.34 3.09 3.28c1.12.94 2.35 1.69 3.69 2.23s2.82.82 4.42.82c2.83 0 4.97-.68 6.42-2.04s2.17-3.14 2.17-5.34c0-1.34-.31-2.52-.94-3.52s-1.46-1.92-2.49-2.75c-1.06-.8-2.28-1.54-3.67-2.21s-2.85-1.34-4.4-2c-2.15-.89-4.34-1.86-6.57-2.92s-4.26-2.37-6.09-3.95c-1.86-1.54-3.38-3.44-4.55-5.69s-1.76-5-1.76-8.26c0-2.69.52-5.15 1.55-7.38s2.47-4.15 4.33-5.75c1.83-1.57 4.01-2.8 6.52-3.67s5.27-1.31 8.24-1.31c2.78 0 5.29.37 7.55 1.09 2.26.73 4.29 1.74 6.1 3.03 1.8 1.32 3.38 2.86 4.72 4.64 1.35 1.77 2.52 3.69 3.52 5.75l-10.39 5.62c-.69-1.37-1.42-2.62-2.21-3.73-.79-1.12-1.67-2.08-2.64-2.88s-2.03-1.42-3.15-1.87c-1.13-.44-2.38-.67-3.76-.67-1.17 0-2.21.17-3.11.49-.9.33-1.67.78-2.3 1.35-.63.6-1.1 1.29-1.42 2.08s-.47 1.64-.47 2.55c0 1.29.29 2.43.86 3.43s1.36 1.89 2.36 2.66c.97.8 2.1 1.54 3.39 2.21s2.66 1.34 4.12 2c1.46.63 2.95 1.28 4.48 1.95s3.03 1.42 4.49 2.25 2.84 1.77 4.14 2.81 2.45 2.24 3.46 3.58c.97 1.34 1.74 2.88 2.32 4.59s.86 3.68.86 5.88c0 2.46-.47 4.81-1.39 7.06-.93 2.25-2.31 4.21-4.14 5.9-1.83 1.72-4.1 3.08-6.8 4.1-2.72 1.06-5.83 1.57-9.35 1.57z" fill="#98ca3e"/><path d="m438.39 107.83c-2.61 0-5.11-.45-7.51-1.35s-4.54-2.34-6.39-4.31c-1.86-1.95-3.35-4.46-4.46-7.55-1.12-3.09-1.67-6.81-1.67-11.16 0-4.46.59-8.25 1.78-11.35s2.75-5.63 4.7-7.58c1.92-1.92 4.1-3.31 6.55-4.18s4.93-1.31 7.45-1.31c2.86 0 5.31.4 7.34 1.2s3.75 1.89 5.15 3.26c1.38 1.37 2.5 3 3.37 4.87s1.57 3.88 2.08 6.03l-11.5 2.75c-.63-2.78-1.44-4.81-2.43-6.1s-2.38-1.93-4.18-1.93c-2.32 0-4.12 1.13-5.39 3.4-1.28 2.27-1.91 5.93-1.91 10.98 0 4.71.55 8.34 1.65 10.89s2.95 3.83 5.56 3.83c.8 0 1.57-.14 2.29-.43.73-.29 1.41-.77 2.04-1.43.6-.67 1.14-1.55 1.63-2.64s.9-2.46 1.24-4.08l11.16 2.7c-.54 2.18-1.3 4.21-2.28 6.1-.97 1.89-2.2 3.52-3.69 4.89-1.49 1.4-3.27 2.5-5.34 3.3-2.09.8-4.5 1.2-7.24 1.2z" fill="#98ca3e"/><path d="m464.6 42.76h13v11.25h-13zm0 17.21h13v46.87h-13z" fill="#98ca3e"/><path d="m489.1 41.77h37.26v11.29h-23.91v14.68h17.25v10.6h-17.25v17.51h25.15v10.99h-38.5z" fill="#f37f20"/><path d="m547.76 107.53c-2.29 0-4.37-.46-6.24-1.37-1.88-.92-3.47-2.35-4.79-4.29-1.35-1.95-2.38-4.42-3.11-7.43-.73-3-1.09-6.61-1.09-10.82s.37-7.85 1.12-10.92c.74-3.08 1.79-5.63 3.13-7.66s2.95-3.54 4.83-4.53c1.87-.99 3.96-1.48 6.24-1.48 2.69 0 5.02.58 7 1.74 1.97 1.16 3.65 2.68 5.02 4.57v-23.57h12.92v53.65c0 2.83.09 5.14.28 6.93s.51 3.28.96 4.49h-13.26c-.14-.34-.27-.78-.39-1.31s-.2-1.08-.26-1.65c-.09-.57-.15-1.13-.19-1.67s-.06-.99-.06-1.33c-.63.89-1.34 1.73-2.14 2.53s-1.69 1.5-2.66 2.1c-1 .63-2.1 1.12-3.3 1.48s-2.56.54-4.01.54zm4.89-10.09c.71 0 1.41-.12 2.08-.36s1.31-.56 1.91-.96c.6-.37 1.17-.8 1.7-1.28.53-.49 1.04-.99 1.52-1.5v-19.3c-1.06-1.14-2.17-2.1-3.35-2.87-1.17-.77-2.49-1.16-3.95-1.16-1.17 0-2.21.26-3.09.77-.89.51-1.62 1.31-2.19 2.4-.6 1.08-1.04 2.49-1.33 4.21-.29 1.73-.43 3.79-.43 6.18 0 4.68.57 8.16 1.72 10.44 1.14 2.29 2.95 3.43 5.41 3.43z" fill="#f37f20"/><circle cx="75.22" cy="83.4" fill="#7a8583" r="16.77"/><path d="m104.97 135.79c20.24 3.85 36.04.66 42.13-10.09 4.2-7.42 3.05-17.11-3.17-27.88-1.6-2.78-3.54-5.63-5.81-8.53-1.12-1.43-2.33-2.85-3.58-4.27-2.22-2.53-4.68-5.04-7.29-7.53-4.74-4.51-10.06-8.92-15.87-13.13.5 4.51.86 9.13 1.02 13.85 2.75 2.25 5.3 4.54 7.72 6.85 2.62 2.5 5.03 5.02 7.21 7.55.89 1.03 1.79 2.07 2.6 3.1 8.07 10.31 11.11 19.6 8.13 24.87-3.38 5.97-14.63 7.95-30.14 5.14z" fill="#f37f20"/><path d="m14.97 82.97c-13.45 15.6-18.58 30.88-12.32 41.52 4.32 7.35 13.3 11.19 25.74 11.19 3.21 0 6.64-.26 10.29-.77 1.79-.25 3.63-.59 5.49-.96 3.3-.66 6.7-1.54 10.17-2.55 6.28-1.85 12.76-4.25 19.31-7.18-4.16-1.82-8.34-3.83-12.51-6.04-3.32 1.26-6.58 2.32-9.79 3.26-3.48 1.02-6.86 1.85-10.15 2.47-1.34.25-2.69.52-3.99.7-12.96 1.83-22.53-.18-25.6-5.39-3.48-5.91.43-16.65 10.62-28.68z" fill="#2c3675"/><path d="m105.72 31.44c-6.78-19.46-17.45-31.54-29.8-31.44-8.52.07-16.34 5.92-22.56 16.69-1.6 2.78-3.1 5.88-4.48 9.3-.68 1.68-1.3 3.44-1.91 5.23-1.08 3.19-2.02 6.57-2.87 10.08-1.54 6.36-2.7 13.17-3.44 20.31 3.66-2.69 7.48-5.31 11.48-7.81.57-3.51 1.28-6.86 2.07-10.11.86-3.52 1.83-6.87 2.93-10.02.45-1.29.9-2.58 1.39-3.8 4.89-12.14 11.42-19.42 17.47-19.47 6.86-.06 14.2 8.7 19.52 23.53z" fill="#98ca3e"/><path d="m108.58 41.21c-.92.16-1.86.34-2.79.51-2.42.46-4.91 1.03-7.44 1.71 1.83 7.42 3.51 16.57 4.06 23.71.42 4.73.67 9.68.72 14.83.04 5.14-.14 10.2-.51 15.11-.35 4.64-.87 9.15-1.58 13.48-.57 3.51-1.28 6.86-2.07 10.11-.85 3.52-1.83 6.87-2.93 10.02-.45 1.29-.9 2.58-1.39 3.8-1.19 2.96-2.48 5.62-3.83 7.97-4.21 7.29-9.06 11.47-13.64 11.5-2.66.02-5.4-1.29-8.07-3.77 1.38-4.26-.35-9.06-4.39-11.39-4.64-2.68-10.58-1.09-13.26 3.55s-1.09 10.58 3.55 13.26c1.92 1.11 4.06 1.49 6.11 1.22 4.85 4.89 10.3 7.58 16.14 7.53 10.72-.09 20.32-9.32 27.04-25.99.68-1.68 1.3-3.44 1.91-5.23 1.08-3.19 2.02-6.57 2.87-10.08 1.54-6.36 2.7-13.17 3.44-20.31.47-4.52.79-9.14.92-13.86.07-2.32.1-4.66.09-7.01-.02-2.19-.08-4.34-.17-6.47-.96-11.95-1.9-22.62-4.78-34.2z" fill="#98ca3e"/><path d="m22.01 75.61c.6.72 1.22 1.44 1.84 2.16 1.61 1.87 3.35 3.74 5.2 5.59 5.51-5.3 12.59-11.32 18.5-15.37 3.89-2.73 8.05-5.43 12.48-8.03 4.43-2.61 8.9-4.98 13.34-7.12 4.19-2.01 8.36-3.82 12.46-5.38 3.32-1.26 6.58-2.32 9.79-3.26 3.48-1.02 6.86-1.85 10.15-2.47 1.34-.25 2.69-.52 3.99-.7 3.16-.45 6.11-.67 8.82-.67 8.42 0 14.46 2.12 16.78 6.06 1.35 2.3 1.58 5.32.77 8.87-4.38.94-7.67 4.83-7.67 9.49 0 5.36 4.35 9.71 9.71 9.71s9.71-4.35 9.71-9.71c0-2.22-.75-4.26-2-5.9 1.81-6.65 1.41-12.71-1.55-17.74-5.44-9.24-18.23-12.94-36.03-10.42-1.79.25-3.63.59-5.49.96-3.3.66-6.7 1.54-10.17 2.55-6.28 1.85-12.76 4.25-19.31 7.18-4.15 1.85-8.31 3.89-12.46 6.13-2.04 1.1-4.08 2.24-6.12 3.43-1.88 1.11-3.72 2.24-5.52 3.38-9.87 6.82-18.64 12.97-27.22 21.26z" fill="#2c3675"/><path d="m95.08 133.38c.33-.88.64-1.78.95-2.68.81-2.33 1.56-4.77 2.24-7.3-7.34-2.12-16.1-5.25-22.57-8.34-4.31-2-8.72-4.26-13.2-6.79s-8.76-5.22-12.83-8c-3.84-2.62-7.49-5.33-10.89-8.11-2.75-2.25-5.3-4.54-7.72-6.85-2.62-2.5-5.03-5.02-7.21-7.55-.89-1.03-1.79-2.07-2.6-3.1-1.97-2.51-3.63-4.96-4.99-7.3-4.21-7.29-5.4-13.58-3.14-17.56 1.31-2.32 3.82-4.03 7.3-5.1 3 3.33 8.02 4.23 12.06 1.9 4.64-2.68 6.24-8.62 3.55-13.26-2.68-4.64-8.62-6.24-13.26-3.55-1.92 1.11-3.32 2.78-4.11 4.68-6.66 1.75-11.71 5.13-14.59 10.2-5.28 9.33-2.09 22.26 8.99 36.42 1.12 1.43 2.33 2.85 3.58 4.27 2.22 2.53 4.68 5.04 7.29 7.53 4.74 4.51 10.06 8.92 15.87 13.13 3.68 2.66 7.52 5.25 11.54 7.73 1.98 1.22 3.98 2.42 6.03 3.58 1.9 1.08 3.8 2.1 5.69 3.09 10.84 5.15 20.56 9.67 32.02 12.96z" fill="#f37f20"/><path d="m583.79 52.72h-1.27v-9.8h-3.46v-1.13h8.19v1.13h-3.46z" fill="#2c3675"/><path d="m593.73 52.72-3.71-9.68h-.06c.07.77.1 1.68.1 2.73v6.95h-1.17v-10.93h1.91l3.46 9.01h.06l3.49-9.01h1.9v10.92h-1.27v-7.04c0-.81.04-1.68.1-2.63h-.06l-3.74 9.67h-1.01z" fill="#2c3675"/></svg>