<svg width="430" height="159" viewBox="0 0 430 159" fill="none" xmlns="http://www.w3.org/2000/svg">
<path fill-rule="evenodd" clip-rule="evenodd" d="M0 0H430V149.03C430 149.03 328.131 139.329 284.802 141.432C185.501 146.253 115.572 162.712 82.3087 156.947C10.642 144.528 0 100.697 0 74.5151C0 48.3335 0 0 0 0Z" fill="#E1F2F3"/>
<path fill-rule="evenodd" clip-rule="evenodd" d="M64.9848 72.1049L74.1582 90.9221H84.7695L74.2913 70.5802C79.541 68.7839 83.016 63.7648 82.8656 58.1959C82.8656 50.3052 77.1805 43.752 67.621 43.752H49.221V90.9221H58.3278V72.1049H64.9848ZM58.3944 51.9636H67.0352C71.056 51.9636 73.6922 54.5448 73.6922 58.1959C73.6922 61.847 71.0294 64.4282 67.0352 64.4282H58.3944V51.9636Z" fill="#003974"/>
<path d="M92.2894 90.9221V43.752H123.736V51.9636H101.63V63.0373H120.447V71.2489H101.63V82.7105H123.736V90.9221H92.2894Z" fill="#003974"/>
<path d="M132.623 90.9221V43.752H141.872V82.7105H161.335V90.9221H132.623Z" fill="#003974"/>
<path fill-rule="evenodd" clip-rule="evenodd" d="M194.726 82.5767L197.514 90.9221H207.138L189.873 43.752H182.635L165.437 90.9221H175.062L177.917 82.5767H194.726ZM180.517 74.8332L186.482 57.6609L192.259 74.8332H180.517Z" fill="#003974"/>
<path d="M227.763 71.6228V90.9221H218.618V71.6228L204.404 43.752H214.434L223.271 62.7968L231.973 43.752H242.003L227.763 71.6228Z" fill="#003974"/>
<path d="M305.181 86.2564C301.657 89.8581 296.74 91.7995 291.671 91.5904C286.854 91.6866 282.208 89.8256 278.822 86.4431C273.999 81.6825 274.134 75.7751 274.134 67.6808C274.134 59.5865 273.999 53.6657 278.822 48.9185C282.188 45.504 286.846 43.633 291.671 43.7579C302.709 43.7579 308.343 50.8921 309.599 58.8264H300.236C299.169 54.3992 296.426 51.9589 291.671 51.9589C289.409 51.8949 287.232 52.8109 285.713 54.4658C283.902 56.4528 283.443 58.6264 283.443 67.6808C283.443 76.7353 283.902 78.9755 285.713 81.0158C287.239 82.6555 289.416 83.5523 291.671 83.4694C294.161 83.5475 296.567 82.578 298.291 80.8024C299.783 79.0508 300.55 76.8076 300.439 74.5216V72.7081H291.671V65.0405H309.68V71.988C309.734 78.7222 308.518 82.816 305.181 86.2564Z" fill="#5D97C9"/>
<path d="M333.146 91.6057C325.955 91.6057 320.499 90.0849 315.835 85.3889L321.829 79.4388C324.826 82.4139 328.872 83.4411 333.281 83.4411C338.737 83.4411 341.667 81.3866 341.667 77.6245C341.76 76.1464 341.229 74.6967 340.202 73.6222C339.02 72.6391 337.549 72.0633 336.009 71.9813L330.324 71.1808C326.919 70.8878 323.698 69.523 321.13 67.2853C318.765 64.7932 317.535 61.4454 317.73 58.0267C317.73 49.6353 323.993 43.752 334.248 43.752C340.78 43.752 345.498 45.3395 349.557 49.2484L343.697 54.9983C340.7 52.1434 337.111 51.7565 333.979 51.7565C329.06 51.7565 326.654 54.4247 326.654 57.7065C326.613 58.9637 327.1 60.1813 327.998 61.0684C329.241 62.1128 330.773 62.7593 332.393 62.9228L337.985 63.7099C342.313 64.3103 345.041 65.4976 347.044 67.352C349.57 69.7267 350.7 73.1686 350.7 77.331C350.713 86.4561 343.065 91.6057 333.146 91.6057Z" fill="#5D97C9"/>
<path d="M358.219 90.9221V43.752H389.666V51.9636H367.546V63.0373H386.39V71.2489H367.546V82.7105H389.666V90.9221H358.219Z" fill="#5D97C9"/>
<path d="M54.5628 108.267V107.826H59.4754V108.293C58.1368 108.293 57.8958 108.553 57.8958 110.165V111.27C55.9281 111.27 55.2187 112.114 53.5588 112.114C50.7456 111.977 48.5374 109.722 48.5374 106.987C48.5374 104.252 50.7456 101.998 53.5588 101.86C54.7455 101.883 55.8696 102.382 56.6643 103.238C56.8981 102.978 57.0471 102.657 57.0927 102.315H57.5612V105.876H57.0793C56.9313 104.09 55.43 102.694 53.5856 102.627C51.31 102.627 50.6541 104.966 50.6541 106.968C50.6541 108.969 51.31 111.322 53.5856 111.322C54.9242 111.322 56.0887 110.802 56.0887 109.32C56.0887 108.605 55.6738 108.267 54.5628 108.267Z" fill="#003974"/>
<path fill-rule="evenodd" clip-rule="evenodd" d="M73.1479 111.621C72.1224 111.484 71.4661 111.087 69.9758 109.429L68.3215 107.621C69.929 107.645 71.2629 106.381 71.3294 104.772C71.2824 103.922 70.8872 103.13 70.2374 102.583C69.5875 102.036 68.7408 101.782 67.8976 101.881H62.2099V102.374C63.6181 102.374 63.8232 102.676 63.8232 104.375V109.621C63.8232 111.32 63.5771 111.621 62.2099 111.621V112.114H67.5695V111.621C66.1612 111.621 65.9424 111.32 65.9424 109.621V107.621H66.4347L69.4563 112.114H73.1479V111.621ZM68.4569 103.202C68.8783 103.611 69.0988 104.185 69.0598 104.772C69.0952 105.355 68.8725 105.924 68.4511 106.328C68.0296 106.732 67.4521 106.929 66.8722 106.868H65.9424V102.648H66.8722C67.456 102.591 68.0356 102.793 68.4569 103.202Z" fill="#003974"/>
<path fill-rule="evenodd" clip-rule="evenodd" d="M79.117 111.634C77.7443 111.634 77.4911 111.26 77.8642 110.365L78.5973 108.79H81.8625L82.5822 110.365C82.9687 111.247 82.7954 111.634 81.3427 111.634V112.114H86.8204V111.634C85.4876 111.634 85.261 111.233 84.7946 110.165L81.1828 101.86H80.8363L77.2378 110.165C76.7181 111.34 76.3449 111.634 75.1987 111.634V112.114H79.117V111.634ZM78.9304 108.015L80.1966 105.025L81.5959 108.015H78.9304Z" fill="#003974"/>
<path fill-rule="evenodd" clip-rule="evenodd" d="M90.4357 109.616C90.4357 111.318 90.197 111.62 88.8712 111.62V112.114H94.3203C98.1387 112.114 99.8092 109.795 99.8092 106.98C99.8092 104.166 98.1387 101.86 94.3203 101.86H88.8712V102.354C90.2368 102.354 90.4357 102.656 90.4357 104.358V109.616ZM94.0817 111.346C92.7161 111.346 92.504 111.071 92.504 109.41V102.629H94.254C96.9189 102.629 97.4625 105.045 97.4625 106.98C97.4625 108.916 96.9057 111.346 94.254 111.346H94.0817Z" fill="#003974"/>
<path d="M110.245 103.074V102.544H114.165V103.074C112.859 103.074 112.623 103.366 112.623 105.011V108.818C112.623 111.016 110.868 112.798 108.703 112.798C106.538 112.798 104.782 111.016 104.782 108.818V104.958C104.782 103.313 104.573 103.021 103.227 103.021V102.544H108.376V103.074C107.004 103.074 106.808 103.366 106.808 105.011V108.646C106.808 110.768 107.932 111.763 109.33 111.763C110.728 111.763 111.722 110.768 111.722 108.646V104.958C111.8 103.313 111.604 103.074 110.245 103.074Z" fill="#003974"/>
<path fill-rule="evenodd" clip-rule="evenodd" d="M119.531 111.634C118.158 111.634 117.905 111.26 118.278 110.365L118.958 108.79H122.316L123.009 110.365C123.383 111.247 123.223 111.634 121.77 111.634V112.114H127.154V111.634C125.821 111.634 125.595 111.233 125.128 110.165L121.517 101.86H121.17L117.572 110.165C117.052 111.34 116.679 111.634 115.533 111.634V112.114H119.531V111.634ZM119.278 108.069L120.61 105.025L121.943 108.069H119.278Z" fill="#003974"/>
<path d="M138.776 104.764H138.301L138.196 104.44C137.985 103.583 137.8 103.141 136.298 103.141H134.677V109.751C134.677 111.361 134.888 111.647 136.245 111.647V112.114H131.065V111.647C132.383 111.647 132.621 111.361 132.621 109.751V103.206H130.986C129.497 103.206 129.312 103.583 129.101 104.505L129.022 104.829H128.521L128.666 102.544H138.644L138.776 104.764Z" fill="#003974"/>
<path d="M141.51 111.686C142.895 111.686 143.145 111.382 143.145 109.668V104.375C143.145 102.662 142.937 102.358 141.51 102.358V101.86H150.375L150.513 104.292H150.015L149.931 103.947C149.682 103.035 149.516 102.565 147.923 102.565H145.292V106.269H146.247C147.965 106.269 148.242 106.048 148.242 104.61H148.768V108.756H148.269C148.269 107.374 147.992 107.112 146.275 107.112H145.319V109.392C145.319 111.106 145.541 111.41 146.981 111.41H148.491C150.084 111.41 150.278 111.009 150.499 110.028L150.582 109.682H151.081L150.943 112.114H141.51V111.686Z" fill="#003974"/>
<path d="M161.816 112.781H161.335V109.017H161.816C162.016 110.64 163.301 111.893 164.887 112.011C165.335 112.054 165.778 111.89 166.098 111.564C166.417 111.238 166.58 110.783 166.543 110.322C166.466 109.56 165.997 108.898 165.314 108.591L163.685 107.739C162.335 107.28 161.428 105.975 161.442 104.511C161.487 103.774 161.817 103.087 162.36 102.604C162.902 102.12 163.611 101.882 164.326 101.943C165.062 101.922 165.781 102.17 166.356 102.643C166.599 102.447 166.769 102.17 166.836 101.86H167.304V105.624H166.823C166.703 104.25 166.169 102.698 164.433 102.698C163.696 102.698 163.098 103.313 163.098 104.072C163.206 104.858 163.716 105.523 164.433 105.816L166.035 106.654C167.242 107.17 168.066 108.337 168.172 109.676C168.141 110.541 167.774 111.357 167.155 111.943C166.536 112.529 165.714 112.835 164.874 112.794C163.968 112.696 163.089 112.421 162.283 111.984C162.042 112.186 161.877 112.467 161.816 112.781Z" fill="#003974"/>
<path d="M180.698 111.66C180.659 111.316 180.512 110.993 180.276 110.737C179.495 111.59 178.392 112.088 177.226 112.114C174.451 111.977 172.273 109.722 172.273 106.987C172.273 104.252 174.451 101.998 177.226 101.86C178.393 101.88 179.499 102.38 180.276 103.238C180.512 102.981 180.659 102.659 180.698 102.315H181.161V105.876H180.685C180.541 104.114 179.087 102.732 177.292 102.653C175.035 102.653 174.401 104.992 174.401 106.994C174.401 108.995 175.035 111.348 177.292 111.348C179.084 111.251 180.53 109.871 180.685 108.111H181.161V111.673L180.698 111.66Z" fill="#003974"/>
<path d="M188.888 109.575C188.888 111.268 189.099 111.568 190.462 111.568V112.06H185.262V111.568C186.585 111.568 186.824 111.268 186.824 109.575V104.345C186.824 102.652 186.625 102.352 185.262 102.352V101.86H190.462V102.406C189.139 102.406 188.888 102.707 188.888 104.4V106.325H193.929V104.345C193.929 102.652 193.73 102.352 192.354 102.352V101.86H197.568V102.406C196.244 102.406 195.993 102.707 195.993 104.4V109.629C195.993 111.323 196.205 111.623 197.568 111.623V112.114H192.354V111.623C193.678 111.623 193.929 111.323 193.929 109.629V107.021H188.888V109.575Z" fill="#003974"/>
<path fill-rule="evenodd" clip-rule="evenodd" d="M202.355 107.195C202.281 110.188 204.626 112.685 207.617 112.797C209.095 112.826 210.524 112.266 211.589 111.24C212.653 110.213 213.266 108.805 213.291 107.327C213.289 104.333 210.881 101.897 207.888 101.86C204.895 101.824 202.429 104.202 202.355 107.195ZM204.24 107.395C204.24 105.344 205.224 102.827 207.617 102.827V102.841C210.037 102.841 211.008 105.33 211.008 107.395C211.008 109.46 210.01 111.976 207.617 111.976C205.224 111.976 204.24 109.446 204.24 107.395Z" fill="#003974"/>
<path fill-rule="evenodd" clip-rule="evenodd" d="M218.078 107.195C218.004 110.188 220.349 112.685 223.34 112.797C224.819 112.826 226.248 112.266 227.312 111.24C228.377 110.213 228.989 108.805 229.014 107.327C229.012 104.333 226.604 101.897 223.611 101.86C220.618 101.824 218.152 104.202 218.078 107.195ZM219.949 107.395C219.949 105.344 220.934 102.827 223.34 102.827V102.841C225.747 102.841 226.717 105.33 226.717 107.395C226.717 109.46 225.747 111.976 223.34 111.976C220.934 111.976 219.949 109.446 219.949 107.395Z" fill="#003974"/>
<path d="M233.116 102.41V101.86H238.326V102.41C237 102.41 236.735 102.712 236.735 104.417V109.407C236.735 111.111 236.947 111.413 238.326 111.413H240.221C241.732 111.413 241.918 111.015 242.13 110.039L242.21 109.695H242.687L242.554 112.114H233.116V111.62C234.442 111.62 234.68 111.317 234.68 109.613V104.362C234.68 102.657 234.481 102.41 233.116 102.41Z" fill="#003974"/>
<path fill-rule="evenodd" clip-rule="evenodd" d="M251.629 107.664C251.334 109.401 252.261 110.747 253.736 110.747C255.428 110.556 256.766 109.284 256.981 107.664C257.304 105.941 256.334 104.595 254.93 104.595C253.225 104.771 251.864 106.036 251.629 107.664ZM252.766 107.664C253.033 106.251 253.736 105.12 254.775 105.12C255.801 105.12 256.053 106.264 255.801 107.664C255.548 109.064 254.873 110.222 253.82 110.222C252.766 110.222 252.499 109.078 252.766 107.664Z" fill="#003974"/>
<path d="M260.378 105.252L260.485 104.649H261.564L261.844 102.962C262.19 100.947 263.469 99.8092 264.509 99.8092C265.548 99.8092 266.001 100.563 265.921 101.071C265.88 101.329 265.655 101.513 265.401 101.496C264.695 101.496 265.295 100.303 264.362 100.303C263.829 100.303 263.123 101.057 262.79 102.962L262.51 104.649H263.842L263.736 105.252H262.403L261.231 112.107C260.884 114.109 260.032 114.849 259.059 114.849C258.086 114.849 257.727 114.122 257.727 113.629C257.755 113.344 257.995 113.133 258.273 113.149C258.979 113.149 258.273 114.342 259.179 114.342C259.685 114.342 259.978 113.752 260.258 112.121L261.431 105.266L260.378 105.252Z" fill="#003974"/>
<path d="M275.501 111.686C276.876 111.686 277.123 111.382 277.123 109.668V104.375C277.123 102.662 276.917 102.358 275.501 102.358V101.86H284.301L284.439 104.292H283.944L283.861 103.947C283.614 103.035 283.449 102.565 281.881 102.565H279.324V106.269H280.272C281.978 106.269 282.253 106.048 282.253 104.61H282.748V108.756H282.253C282.253 107.374 281.978 107.112 280.272 107.112H279.324V109.392C279.324 111.106 279.544 111.41 280.974 111.41H282.514C284.081 111.41 284.274 111.009 284.494 110.028L284.576 109.682H285.072L284.934 112.114H275.57L275.501 111.686Z" fill="#003974"/>
<path fill-rule="evenodd" clip-rule="evenodd" d="M290.107 109.616C290.107 111.318 289.855 111.62 288.529 111.62L288.49 112.114H293.939C297.757 112.114 299.428 109.795 299.428 106.98C299.428 104.166 297.757 101.86 293.939 101.86H288.529V102.354C289.908 102.354 290.107 102.656 290.107 104.358V109.616ZM293.74 111.346C292.374 111.346 292.162 111.071 292.162 109.41L292.189 102.629H293.939C296.59 102.629 297.147 105.045 297.147 106.98C297.147 108.916 296.59 111.346 293.939 111.346H293.74Z" fill="#003974"/>
<path d="M309.859 103.074V102.544H313.784V103.074C312.475 103.074 312.253 103.366 312.253 105.011V108.818C312.253 111.016 310.496 112.798 308.328 112.798C306.16 112.798 304.403 111.016 304.403 108.818V104.958C304.403 103.313 304.193 103.021 302.846 103.021V102.544H308.001V103.074C306.692 103.074 306.444 103.366 306.444 105.011V108.646C306.444 110.768 307.556 111.763 308.969 111.763C310.382 111.763 311.35 110.768 311.35 108.646V104.958C311.416 103.313 311.219 103.074 309.859 103.074Z" fill="#003974"/>
<path d="M325.627 111.66C325.588 111.316 325.44 110.993 325.204 110.737C324.424 111.59 323.32 112.088 322.155 112.114C319.38 111.977 317.202 109.722 317.202 106.987C317.202 104.252 319.38 101.998 322.155 101.86C323.322 101.88 324.428 102.38 325.204 103.238C325.44 102.981 325.588 102.659 325.627 102.315H326.089V105.876H325.614C325.469 104.114 324.015 102.732 322.221 102.653C319.976 102.653 319.329 104.992 319.329 106.994C319.329 108.995 319.976 111.348 322.221 111.348C324.012 111.251 325.459 109.871 325.614 108.111H326.089V111.673L325.627 111.66Z" fill="#003974"/>
<path fill-rule="evenodd" clip-rule="evenodd" d="M333.51 111.634C332.122 111.634 331.882 111.26 332.256 110.365L332.936 108.79H336.232L336.926 110.365C337.299 111.247 337.139 111.634 335.685 111.634V112.114H341.129V111.634C339.808 111.634 339.581 111.233 339.114 110.165L335.498 101.86H335.151L331.549 110.165C331.028 111.34 330.641 111.634 329.507 111.634V112.114H333.51V111.634ZM333.257 108.069L334.591 105.025L335.925 108.069H333.257Z" fill="#003974"/>
<path d="M352.067 104.764H351.592L351.512 104.44C351.301 103.583 351.117 103.141 349.612 103.141H347.976V109.751C347.976 111.361 348.187 111.647 349.546 111.647V112.114H344.359V111.647C345.679 111.647 345.917 111.361 345.917 109.751V103.206H344.28C342.789 103.206 342.604 103.583 342.393 104.505L342.314 104.829H341.812L341.958 102.544H351.935L352.067 104.764Z" fill="#003974"/>
<path d="M355.485 112.06V111.568C356.876 111.568 357.141 111.268 357.141 109.575V104.345C357.141 102.652 356.932 102.352 355.485 102.352V101.86H360.954V102.406C359.562 102.406 359.298 102.707 359.298 104.4V109.629C359.298 111.323 359.521 111.623 360.954 111.623V112.114L355.485 112.06Z" fill="#003974"/>
<path fill-rule="evenodd" clip-rule="evenodd" d="M365.057 107.195C364.983 110.188 367.328 112.684 370.32 112.797C371.799 112.83 373.23 112.271 374.295 111.243C375.361 110.216 375.972 108.806 375.994 107.326C375.992 104.333 373.584 101.897 370.59 101.86C367.597 101.824 365.131 104.202 365.057 107.195ZM366.929 107.409C366.929 105.357 367.913 102.841 370.32 102.841C372.685 102.841 373.697 105.344 373.697 107.409C373.697 109.474 372.726 111.99 370.32 111.99C367.913 111.99 366.929 109.46 366.929 107.409Z" fill="#003974"/>
<path d="M389.228 104.961C389.228 103.314 389.008 103.022 387.591 103.022V102.544H391.717V103.075C390.273 103.075 390.067 103.367 390.067 105.014V112.798H389.64L382.557 104.629V110.102C382.557 111.749 382.777 112.041 384.194 112.041V112.519H380.095V112.041C381.471 112.041 381.718 111.749 381.718 110.102V104.961C381.718 103.314 381.512 103.022 380.095 103.022V102.544H383.52L389.228 109.185V104.961Z" fill="#003974"/>
<path d="M265.927 45.4992C265.927 43.7882 264.005 42.3847 261.662 42.3847C259.319 42.3847 257.575 43.7214 257.438 45.2586L245.421 89.5288C246.1 90.6968 247.19 91.5811 248.487 92.015C250.227 92.5705 252.133 92.2721 253.61 91.213L265.736 46.5685C265.881 46.2308 265.946 45.8652 265.927 45.4992Z" fill="#A30B35"/>
</svg>
