<?xml version="1.0" encoding="UTF-8" standalone="no"?>
<svg width="82px" height="82px" viewBox="0 0 82 82" version="1.1" xmlns="http://www.w3.org/2000/svg" xmlns:xlink="http://www.w3.org/1999/xlink">
    <!-- Generator: sketchtool 39.1 (31720) - http://www.bohemiancoding.com/sketch -->
    <title>116164DA-6208-4987-B66E-63784FF03601</title>
    <desc>Created with sketchtool.</desc>
    <defs>
        <circle id="path-1" cx="41" cy="41" r="34.375"></circle>
        <mask id="mask-2" maskContentUnits="userSpaceOnUse" maskUnits="objectBoundingBox" x="0" y="0" width="68.75" height="68.75" fill="white">
            <use xlink:href="#path-1"></use>
        </mask>
        <path d="M41,20 C46.5228475,20 51,15.5228475 51,10 C51,4.4771525 46.5228475,0 41,0 C35.4771525,0 31,4.4771525 31,10 C31,15.5228475 35.4771525,20 41,20 Z M41,82 C46.5228475,82 51,77.5228475 51,72 C51,66.4771525 46.5228475,62 41,62 C35.4771525,62 31,66.4771525 31,72 C31,77.5228475 35.4771525,82 41,82 Z M62,41 C62,46.5228475 66.4771525,51 72,51 C77.5228475,51 82,46.5228475 82,41 C82,35.4771525 77.5228475,31 72,31 C66.4771525,31 62,35.4771525 62,41 Z M3.55271368e-15,41 C3.55271368e-15,46.5228475 4.4771525,51 10,51 C15.5228475,51 20,46.5228475 20,41 C20,35.4771525 15.5228475,31 10,31 C4.4771525,31 7.10542736e-15,35.4771525 3.55271368e-15,41 Z" id="path-3"></path>
        <mask id="mask-4" maskContentUnits="userSpaceOnUse" maskUnits="objectBoundingBox" x="0" y="0" width="82" height="82" fill="white">
            <use xlink:href="#path-3"></use>
        </mask>
    </defs>
    <g id="Page-1" stroke="none" stroke-width="1" fill="none" fill-rule="evenodd">
        <g id="001a_Mainpage" transform="translate(-759.000000, -1532.000000)" stroke="#20B1A5" stroke-width="4">
            <g id="We-build" transform="translate(0.000000, 1450.000000)">
                <g id="Icon" transform="translate(759.000000, 82.000000)">
                    <use id="Oval-34" mask="url(#mask-2)" xlink:href="#path-1"></use>
                    <use id="Combined-Shape" mask="url(#mask-4)" fill="#FFFFFF" xlink:href="#path-3"></use>
                </g>
            </g>
        </g>
    </g>
</svg>