<?xml version="1.0" encoding="UTF-8" standalone="no"?>
<svg width="82px" height="91px" viewBox="0 0 82 91" version="1.1" xmlns="http://www.w3.org/2000/svg" xmlns:xlink="http://www.w3.org/1999/xlink">
    <!-- Generator: sketchtool 39.1 (31720) - http://www.bohemiancoding.com/sketch -->
    <title>D2B1C6AA-E8CC-4D0C-8561-3D091B0406F0</title>
    <desc>Created with sketchtool.</desc>
    <defs>
        <path d="M33.252035,81 L31.991155,81 C30.8914705,81 30,80.0976562 30,79.0054385 L30,71 C30,71 29,67 28,65 C27,63 24,59 24,59 L24.0589253,59 C19.6984539,54.6545487 17,48.6424032 17,42 C17,28.745166 27.745166,18 41,18 C54.254834,18 65,28.745166 65,42 C65,48.6424032 62.3015461,54.6545487 57.9410747,59 L58,59 C58,59 55,63 54,65 C53.0000019,66.9999962 52.0000038,70.9999849 52,71 L52,79.0054385 C52,80.1070044 51.1103261,81 50.008845,81 L48.747965,81 C47.8598794,84.4504544 44.7276789,87 41,87 C37.2723211,87 34.1401206,84.4504544 33.252035,81 Z" id="path-1"></path>
        <filter x="-50%" y="-50%" width="200%" height="200%" filterUnits="objectBoundingBox" id="filter-2">
            <feOffset dx="3" dy="4" in="SourceAlpha" result="shadowOffsetOuter1"></feOffset>
            <feComposite in="shadowOffsetOuter1" in2="SourceAlpha" operator="out" result="shadowOffsetOuter1"></feComposite>
            <feColorMatrix values="0 0 0 0 0   0 0 0 0 0   0 0 0 0 0  0 0 0 0.03 0" type="matrix" in="shadowOffsetOuter1"></feColorMatrix>
        </filter>
        <mask id="mask-3" maskContentUnits="userSpaceOnUse" maskUnits="objectBoundingBox" x="0" y="0" width="48" height="69" fill="white">
            <use xlink:href="#path-1"></use>
        </mask>
        <path d="M31,54 C31,51.790861 32.7924676,50 34.99923,50 L47.00077,50 C49.2094838,50 51,51.7953562 51,54 L51,54 C51,56.209139 49.204736,58 47.0088816,58 L45.0164442,58 L45,69 L37,69 L37.0522039,58 L35.0032037,58 C32.7922954,58 31,56.2046438 31,54 L31,54 Z" id="path-4"></path>
        <mask id="mask-5" maskContentUnits="userSpaceOnUse" maskUnits="objectBoundingBox" x="0" y="0" width="20" height="19" fill="white">
            <use xlink:href="#path-4"></use>
        </mask>
    </defs>
    <g id="Page-1" stroke="none" stroke-width="1" fill="none" fill-rule="evenodd">
        <g id="001a_Mainpage" transform="translate(-959.000000, -1087.000000)">
            <g id="What-can-we-do" transform="translate(0.000000, 585.000000)">
                <g id="Group-18" transform="translate(430.000000, 187.000000)">
                    <g id="Cell" transform="translate(391.000000, 315.000000)">
                        <g id="Icon" transform="translate(138.000000, 0.000000)">
                            <g id="Combined-Shape">
                                <use fill="black" fill-opacity="1" filter="url(#filter-2)" xlink:href="#path-1"></use>
                                <use stroke="#DEDFE4" mask="url(#mask-3)" stroke-width="4" fill="#FFFFFF" fill-rule="evenodd" xlink:href="#path-1"></use>
                            </g>
                            <path d="M37.940638,25.2745448 C36.9076726,25.4622635 35.9072409,25.7433246 34.9483988,26.1086723 M31.4748599,27.9170541 C28.0512922,30.2371448 25.5185813,33.772843 24.4966545,37.9042213" id="Oval-272" stroke="#DEDFE4" stroke-width="2" stroke-linecap="round"></path>
                            <use id="Rectangle-509" stroke="#20B1A5" mask="url(#mask-5)" stroke-width="4" xlink:href="#path-4"></use>
                            <rect id="Rectangle-505" fill="#DEDFE4" x="32" y="79" width="18" height="2"></rect>
                            <rect id="Rectangle-505" fill="#DEDFE4" x="32" y="75" width="18" height="2"></rect>
                            <rect id="Rectangle-505" fill="#DEDFE4" x="32" y="71" width="18" height="2"></rect>
                            <rect id="Rectangle-505" fill="#DEDFE4" x="31" y="67" width="20" height="2"></rect>
                            <path d="M0,41 C0,40.4477153 0.449948758,40 1.00684547,40 L12.9931545,40 C13.5492199,40 14,40.4438648 14,41 C14,41.5522847 13.5500512,42 12.9931545,42 L1.00684547,42 C0.450780073,42 0,41.5561352 0,41 Z M68,41 C68,40.4477153 68.4499488,40 69.0068455,40 L80.9931545,40 C81.5492199,40 82,40.4438648 82,41 C82,41.5522847 81.5500512,42 80.9931545,42 L69.0068455,42 C68.4507801,42 68,41.5561352 68,41 Z M12.008622,12.008622 C12.3991463,11.6180977 13.0338906,11.619677 13.427676,12.0134625 L21.9032764,20.4890629 C22.296474,20.8822605 22.3013639,21.51487 21.9081169,21.9081169 C21.5175926,22.2986412 20.8828483,22.2970619 20.4890629,21.9032764 L12.0134625,13.427676 C11.6202648,13.0344784 11.615375,12.4018689 12.008622,12.008622 Z M60.0918831,60.0918831 C60.4824074,59.7013588 61.1171517,59.7029381 61.5109371,60.0967236 L69.9865375,68.572324 C70.3797352,68.9655216 70.384625,69.5981311 69.991378,69.991378 C69.6008537,70.3819023 68.9661094,70.380323 68.572324,69.9865375 L60.0967236,61.5109371 C59.703526,61.1177395 59.6986361,60.48513 60.0918831,60.0918831 Z M41,2.27373675e-13 C41.5522847,2.27475129e-13 42,0.449948758 42,1.00684547 L42,12.9931545 C42,13.5492199 41.5561352,14 41,14 C40.4477153,14 40,13.5500512 40,12.9931545 L40,1.00684547 C40,0.450780073 40.4438648,2.27271515e-13 41,2.27373675e-13 Z M69.991378,12.008622 C70.3819023,12.3991463 70.380323,13.0338906 69.9865375,13.427676 L61.5109371,21.9032764 C61.1177395,22.296474 60.48513,22.3013639 60.0918831,21.9081169 C59.7013588,21.5175926 59.7029381,20.8828483 60.0967236,20.4890629 L68.572324,12.0134625 C68.9655216,11.6202648 69.5981311,11.615375 69.991378,12.008622 Z M21.9081169,60.0918831 C22.2986412,60.4824074 22.2970619,61.1171517 21.9032764,61.5109371 L13.427676,69.9865375 C13.0344784,70.3797352 12.4018689,70.384625 12.008622,69.991378 C11.6180977,69.6008537 11.619677,68.9661094 12.0134625,68.572324 L20.4890629,60.0967236 C20.8822605,59.703526 21.51487,59.6986361 21.9081169,60.0918831 Z" id="Combined-Shape" fill="#20B1A5"></path>
                        </g>
                    </g>
                </g>
            </g>
        </g>
    </g>
</svg>