<?xml version="1.0" encoding="UTF-8" standalone="no"?>
<svg width="79px" height="80px" viewBox="0 0 79 80" version="1.1" xmlns="http://www.w3.org/2000/svg" xmlns:xlink="http://www.w3.org/1999/xlink">
    <!-- Generator: sketchtool 39.1 (31720) - http://www.bohemiancoding.com/sketch -->
    <title>EACCB32D-DBE4-4FA9-B38C-C7F5B0844C98</title>
    <desc>Created with sketchtool.</desc>
    <defs>
        <path d="M55.6468189,9.36898681 L55.8137821,9.43819479 L57.322546,7.92943093 C58.5956835,6.65629342 60.658331,6.65477718 61.933486,7.92993215 L68.0700678,14.066514 C69.3434822,15.3399283 69.3383143,17.4097088 68.0705691,18.677454 L66.5618052,20.1862179 L66.6310132,20.3531811 C65.086158,21.3101407 64.0571429,23.020615 64.0571429,24.9714286 C64.0571429,27.9695458 66.4875971,30.4 69.4857143,30.4 C69.9158588,30.4 70.3343184,30.3499713 70.735592,30.2554152 L70.7955239,30.4 L72.7399275,30.4 C74.5404158,30.4 76,31.8574399 76,33.6607813 L76,42.3392187 C76,44.1400985 74.5327899,45.6 72.7399275,45.6 L70.7955239,45.6 L70.735592,45.7445848 C70.3343184,45.6500287 69.9158588,45.6 69.4857143,45.6 C66.4875971,45.6 64.0571429,48.0304542 64.0571429,51.0285714 C64.0571429,52.979385 65.086158,54.6898593 66.6310132,55.6468189 L66.5618052,55.8137821 L68.0705691,57.322546 C69.3437066,58.5956835 69.3452228,60.658331 68.0700678,61.933486 L61.933486,68.0700678 C60.6600717,69.3434822 58.5902912,69.3383143 57.322546,68.0705691 L55.8137821,66.5618052 L55.6468189,66.6310132 C54.6898593,65.086158 52.979385,64.0571429 51.0285714,64.0571429 C48.0304542,64.0571429 45.6,66.4875971 45.6,69.4857143 C45.6,69.9158588 45.6500287,70.3343184 45.7445848,70.735592 L45.6,70.7955239 L45.6,72.7399275 C45.6,74.5404158 44.1425601,76 42.3392187,76 L33.6607813,76 C31.8599015,76 30.4,74.5327899 30.4,72.7399275 L30.4,70.7955239 L30.2554152,70.735592 C30.3499713,70.3343184 30.4,69.9158588 30.4,69.4857143 C30.4,66.4875971 27.9695458,64.0571429 24.9714286,64.0571429 C23.020615,64.0571429 21.3101407,65.086158 20.3531811,66.6310132 L20.1862179,66.5618052 L18.677454,68.0705691 C17.4043165,69.3437066 15.341669,69.3452228 14.066514,68.0700678 L7.92993215,61.933486 C6.65651782,60.6600717 6.66168574,58.5902912 7.92943093,57.322546 L9.43819479,55.8137821 L9.36898681,55.6468189 C10.913842,54.6898593 11.9428571,52.979385 11.9428571,51.0285714 C11.9428571,48.0304542 9.51240293,45.6 6.51428571,45.6 C6.08414123,45.6 5.66568157,45.6500287 5.26440799,45.7445848 L5.20447611,45.6 L3.26007252,45.6 C1.45958418,45.6 0,44.1425601 0,42.3392187 L0,33.6607813 C0,31.8599015 1.46721008,30.4 3.26007252,30.4 L5.20447611,30.4 L5.26440799,30.2554152 C5.66568157,30.3499713 6.08414123,30.4 6.51428571,30.4 C9.51240293,30.4 11.9428571,27.9695458 11.9428571,24.9714286 C11.9428571,23.020615 10.913842,21.3101407 9.36898681,20.3531811 L9.43819479,20.1862179 L7.92943093,18.677454 C6.65629342,17.4043165 6.65477718,15.341669 7.92993215,14.066514 L14.066514,7.92993215 C15.3399283,6.65651782 17.4097088,6.66168574 18.677454,7.92943093 L20.1862179,9.43819479 L20.3531811,9.36898681 C21.3101407,10.913842 23.020615,11.9428571 24.9714286,11.9428571 C27.9695458,11.9428571 30.4,9.51240293 30.4,6.51428571 C30.4,6.08414123 30.3499713,5.66568157 30.2554152,5.26440799 L30.4,5.20447611 L30.4,3.26007252 C30.4,1.45958418 31.8574399,0 33.6607813,0 L42.3392187,0 C44.1400985,0 45.6,1.46721008 45.6,3.26007252 L45.6,5.20447611 L45.7445848,5.26440799 C45.6500287,5.66568157 45.6,6.08414123 45.6,6.51428571 C45.6,9.51240293 48.0304542,11.9428571 51.0285714,11.9428571 C52.979385,11.9428571 54.6898593,10.913842 55.6468189,9.36898681 Z M38.0571429,49.0571429 C44.1322751,49.0571429 49.0571429,44.1322751 49.0571429,38.0571429 C49.0571429,31.9820106 44.1322751,27.0571429 38.0571429,27.0571429 C31.9820106,27.0571429 27.0571429,31.9820106 27.0571429,38.0571429 C27.0571429,44.1322751 31.9820106,49.0571429 38.0571429,49.0571429 L38.0571429,49.0571429 Z" id="path-1"></path>
        <filter x="-50%" y="-50%" width="200%" height="200%" filterUnits="objectBoundingBox" id="filter-2">
            <feOffset dx="3" dy="4" in="SourceAlpha" result="shadowOffsetOuter1"></feOffset>
            <feComposite in="shadowOffsetOuter1" in2="SourceAlpha" operator="out" result="shadowOffsetOuter1"></feComposite>
            <feColorMatrix values="0 0 0 0 0   0 0 0 0 0   0 0 0 0 0  0 0 0 0.03 0" type="matrix" in="shadowOffsetOuter1"></feColorMatrix>
        </filter>
        <mask id="mask-3" maskContentUnits="userSpaceOnUse" maskUnits="objectBoundingBox" x="0" y="0" width="76" height="76" fill="white">
            <use xlink:href="#path-1"></use>
        </mask>
        <path d="M19,38 C29.4934102,38 38,29.4934102 38,19 C38,8.50658975 29.4934102,0 19,0 C8.50658975,0 0,8.50658975 0,19 C0,29.4934102 8.50658975,38 19,38 Z" id="path-4"></path>
        <filter x="-50%" y="-50%" width="200%" height="200%" filterUnits="objectBoundingBox" id="filter-5">
            <feOffset dx="1" dy="2" in="SourceAlpha" result="shadowOffsetOuter1"></feOffset>
            <feComposite in="shadowOffsetOuter1" in2="SourceAlpha" operator="out" result="shadowOffsetOuter1"></feComposite>
            <feColorMatrix values="0 0 0 0 0   0 0 0 0 0   0 0 0 0 0  0 0 0 0.0483752264 0" type="matrix" in="shadowOffsetOuter1"></feColorMatrix>
        </filter>
        <mask id="mask-6" maskContentUnits="userSpaceOnUse" maskUnits="objectBoundingBox" x="0" y="0" width="38" height="38" fill="white">
            <use xlink:href="#path-4"></use>
        </mask>
    </defs>
    <g id="Page-1" stroke="none" stroke-width="1" fill="none" fill-rule="evenodd">
        <g id="001a_Mainpage" transform="translate(-562.000000, -1096.000000)">
            <g id="What-can-we-do" transform="translate(0.000000, 585.000000)">
                <g id="Group-18" transform="translate(430.000000, 187.000000)">
                    <g id="Cell" transform="translate(0.000000, 321.000000)">
                        <g id="Icon" transform="translate(132.000000, 3.000000)">
                            <g id="Combined-Shape">
                                <use fill="black" fill-opacity="1" filter="url(#filter-2)" xlink:href="#path-1"></use>
                                <use stroke="#DEDFE4" mask="url(#mask-3)" stroke-width="4" fill="#FFFFFF" fill-rule="evenodd" xlink:href="#path-1"></use>
                            </g>
                            <g id="Group-12" transform="translate(19.000000, 19.000000)">
                                <g id="Oval-32">
                                    <use fill="black" fill-opacity="1" filter="url(#filter-5)" xlink:href="#path-4"></use>
                                    <use stroke="#DEDFE4" mask="url(#mask-6)" stroke-width="4" fill="#FFFFFF" fill-rule="evenodd" xlink:href="#path-4"></use>
                                </g>
                                <path d="M16.7555038,22.7496529 L11.5391014,17.5332505 C10.9621088,16.9562579 10.0067175,16.9506141 9.4209311,17.5364005 C8.83106067,18.126271 8.83373436,19.0705241 9.41778109,19.6545709 L15.7880421,26.0248319 C16.3650347,26.6018245 17.320426,26.6074684 17.9062125,26.0216819 C18.0599404,25.867954 18.1734233,25.6901566 18.2468587,25.5009386 L28.6810983,15.066699 C29.2762934,14.4715039 29.2695081,13.5285418 28.6837217,12.9427553 C28.0938512,12.3528849 27.1470132,12.3581434 26.559778,12.9453786 L16.7555038,22.7496529 Z" id="Combined-Shape" fill="#20B1A5"></path>
                            </g>
                        </g>
                    </g>
                </g>
            </g>
        </g>
    </g>
</svg>