<?xml version="1.0" encoding="UTF-8" standalone="no"?>
<svg width="93px" height="86px" viewBox="0 0 93 86" version="1.1" xmlns="http://www.w3.org/2000/svg" xmlns:xlink="http://www.w3.org/1999/xlink">
    <!-- Generator: sketchtool 39.1 (31720) - http://www.bohemiancoding.com/sketch -->
    <title>EBF6552D-28A3-4348-8ECB-31F6E8AADBC1</title>
    <desc>Created with sketchtool.</desc>
    <defs>
        <filter x="-50%" y="-50%" width="200%" height="200%" filterUnits="objectBoundingBox" id="filter-1">
            <feOffset dx="3" dy="4" in="SourceAlpha" result="shadowOffsetOuter1"></feOffset>
            <feColorMatrix values="0 0 0 0 0   0 0 0 0 0   0 0 0 0 0  0 0 0 0.03 0" type="matrix" in="shadowOffsetOuter1" result="shadowMatrixOuter1"></feColorMatrix>
            <feMerge>
                <feMergeNode in="shadowMatrixOuter1"></feMergeNode>
                <feMergeNode in="SourceGraphic"></feMergeNode>
            </feMerge>
        </filter>
        <rect id="path-2" x="1.27897692e-13" y="6.43902439" width="59.2" height="59.5609756" rx="4"></rect>
        <mask id="mask-3" maskContentUnits="userSpaceOnUse" maskUnits="objectBoundingBox" x="0" y="0" width="59.2" height="59.5609756" fill="white">
            <use xlink:href="#path-2"></use>
        </mask>
        <path d="M22,6.43902439 C22,2.88284942 19.1346224,-2.55795385e-13 15.6,-2.55795385e-13 C12.0653776,-2.55795385e-13 9.2,2.88284942 9.2,6.43902439" id="path-4"></path>
        <mask id="mask-5" maskContentUnits="userSpaceOnUse" maskUnits="objectBoundingBox" x="0" y="0" width="12.8" height="12.8780488" fill="white">
            <use xlink:href="#path-4"></use>
        </mask>
        <path d="M22,6.43902439 C22,2.88284942 19.1346224,-1.70530257e-13 15.6,-1.70530257e-13 C12.0653776,-1.70530257e-13 9.2,2.88284942 9.2,6.43902439" id="path-6"></path>
        <mask id="mask-7" maskContentUnits="userSpaceOnUse" maskUnits="objectBoundingBox" x="0" y="0" width="12.8" height="12.8780488" fill="white">
            <use xlink:href="#path-6"></use>
        </mask>
        <path d="M26.4,13.6829268 L26.4,1.5949033 C26.4,0.714062529 27.1138522,2.13162821e-13 28.0097678,2.13162821e-13 L61.6073681,2.13162821e-13 C63.8124378,2.13162821e-13 65.6,1.79709592 65.6,3.99866349 L65.6,37.8441211 C65.6,38.7249619 64.8861478,39.4390244 63.9902322,39.4390244 L53.439971,39.4390244 C52.6987385,43.1128747 49.4703327,45.8780488 45.6,45.8780488 C41.7296673,45.8780488 38.5012615,43.1128747 37.760029,39.4390244 L28.0097678,39.4390244 C27.1207176,39.4390244 26.4,38.7208194 26.4,37.8441211 L26.4,26.5609756 C29.9346224,26.5609756 32.8,23.6781262 32.8,20.1219512 C32.8,16.5657762 29.9346224,13.6829268 26.4,13.6829268 Z" id="path-8"></path>
        <mask id="mask-9" maskContentUnits="userSpaceOnUse" maskUnits="objectBoundingBox" x="0" y="0" width="39.2" height="45.8780488" fill="white">
            <use xlink:href="#path-8"></use>
        </mask>
    </defs>
    <g id="Page-1" stroke="none" stroke-width="1" fill="none" fill-rule="evenodd">
        <g id="001a_Mainpage" transform="translate(-559.000000, -778.000000)">
            <g id="What-can-we-do" transform="translate(0.000000, 585.000000)">
                <g id="Group-18" transform="translate(430.000000, 187.000000)">
                    <g id="Cell">
                        <g id="Icon" filter="url(#filter-1)" transform="translate(175.000000, 48.000000) rotate(-315.000000) translate(-175.000000, -48.000000) translate(141.000000, 15.000000)">
                            <use id="Rectangle-25" stroke="#DEDFE4" mask="url(#mask-3)" stroke-width="4" fill="#FFFFFF" xlink:href="#path-2"></use>
                            <g id="Group" transform="translate(0.400000, 29.780488)">
                                <use id="Oval-15" stroke="#DEDFE4" mask="url(#mask-5)" stroke-width="4" xlink:href="#path-4"></use>
                                <rect id="Rectangle-26" fill="#DEDFE4" x="21" y="4.82926829" width="8.2" height="2"></rect>
                                <rect id="Rectangle-26" fill="#DEDFE4" x="-3.17967874e-13" y="4.82926829" width="10" height="2"></rect>
                            </g>
                            <g id="Group" transform="translate(30.460976, 50.502439) rotate(-90.000000) translate(-30.460976, -50.502439) translate(15.460976, 44.002439)">
                                <use id="Oval-15" stroke="#DEDFE4" mask="url(#mask-7)" stroke-width="4" xlink:href="#path-6"></use>
                                <rect id="Rectangle-26" fill="#DEDFE4" x="21" y="4.82926829" width="8.2" height="2"></rect>
                                <rect id="Rectangle-26" fill="#DEDFE4" x="-2.32702746e-13" y="4.82926829" width="10" height="2"></rect>
                            </g>
                            <path d="M59.2,41.8536585 L55.9604998,41.8536585 C55.5591203,45.920967 52.1482785,49.097561 48,49.097561 C43.8517215,49.097561 40.4408797,45.920967 40.0395002,41.8536585 L30.3974813,41.8536585 C29.5152167,41.8536585 28.8,41.1354536 28.8,40.2464365 L28.8,28.9756098 C32.3346224,28.9756098 35.2,26.0927603 35.2,22.5365854 C35.2,18.9804104 32.3346224,16.097561 28.8,16.097561 L28.8,4.02185617 L28.8,4.02185617 C28.8,3.13421196 29.5138522,2.41463415 30.3974813,2.41463415 L59.2,2.41463415" id="Combined-Shape" fill-opacity="0.05" fill="#000000"></path>
                            <use id="Combined-Shape" stroke="#20B1A5" mask="url(#mask-9)" stroke-width="4" fill="#FFFFFF" xlink:href="#path-8"></use>
                        </g>
                    </g>
                </g>
            </g>
        </g>
    </g>
</svg>