<?xml version="1.0" encoding="UTF-8" standalone="no"?>
<svg width="165px" height="118px" viewBox="0 0 165 118" version="1.1" xmlns="http://www.w3.org/2000/svg" xmlns:xlink="http://www.w3.org/1999/xlink">
    <!-- Generator: sketchtool 39.1 (31720) - http://www.bohemiancoding.com/sketch -->
    <title>00EC99C3-A2CF-412A-8A04-CA9AEF420C71</title>
    <desc>Created with sketchtool.</desc>
    <defs>
        <filter x="-50%" y="-50%" width="200%" height="200%" filterUnits="objectBoundingBox" id="filter-1">
            <feOffset dx="3" dy="4" in="SourceAlpha" result="shadowOffsetOuter1"></feOffset>
            <feColorMatrix values="0 0 0 0 0   0 0 0 0 0   0 0 0 0 0  0 0 0 0.03 0" type="matrix" in="shadowOffsetOuter1" result="shadowMatrixOuter1"></feColorMatrix>
            <feMerge>
                <feMergeNode in="shadowMatrixOuter1"></feMergeNode>
                <feMergeNode in="SourceGraphic"></feMergeNode>
            </feMerge>
        </filter>
        <rect id="path-2" x="0" y="17" width="146" height="98" rx="5"></rect>
        <mask id="mask-3" maskContentUnits="userSpaceOnUse" maskUnits="objectBoundingBox" x="0" y="0" width="146" height="98" fill="white">
            <use xlink:href="#path-2"></use>
        </mask>
        <path d="M162,14 L162,94.0043738 C162,96.763382 159.765112,99 156.995488,99 L21.004512,99 C18.2405963,99 16,96.7690027 16,94.0054348 L16,5.99456525 C16,3.23614303 18.2370275,1 20.9963005,1 L149,1 L162,14 Z" id="path-4"></path>
        <mask id="mask-5" maskContentUnits="userSpaceOnUse" maskUnits="objectBoundingBox" x="0" y="0" width="146" height="98" fill="white">
            <use xlink:href="#path-4"></use>
        </mask>
        <path d="M162,16 L151.994783,16 C149.23624,16 147,13.7543484 147,11.0052172 L147,1" id="path-6"></path>
        <mask id="mask-7" maskContentUnits="userSpaceOnUse" maskUnits="objectBoundingBox" x="0" y="0" width="15" height="15.0349488" fill="white">
            <use xlink:href="#path-6"></use>
        </mask>
    </defs>
    <g id="Page-1" stroke="none" stroke-width="1" fill="none" fill-rule="evenodd">
        <g id="002a_Solutions" transform="translate(-359.000000, -1606.000000)">
            <g id="Content-discovery" transform="translate(0.000000, 1499.000000)">
                <g id="Group-2" transform="translate(355.000000, 79.000000)">
                    <g id="Group-14" filter="url(#filter-1)" transform="translate(4.000000, 27.000000)">
                        <use id="Rectangle-11" stroke="#DEDFE4" mask="url(#mask-3)" stroke-width="4" fill="#FFFFFF" xlink:href="#path-2"></use>
                        <path d="M144,101.999999 L18.0024194,102 C15.2396595,102 13,99.7630084 13,97.0050162 L13,19.1678534 L28,19.1678534 L144,93.9999991" id="Rectangle-11" fill="#000000" opacity="0.03"></path>
                        <use id="Rectangle-11" stroke="#DEDFE4" mask="url(#mask-5)" stroke-width="4" fill="#FFFFFF" xlink:href="#path-4"></use>
                        <g id="Group" transform="translate(53.000000, 31.000000)">
                            <path d="M18.116,34.384 C17.352,35.148 16.112,35.148 15.348,34.384 L1.61,20.645 C0.701,19.736 0.701,18.263 1.61,17.355 L15.349,3.616 C16.113,2.852 17.353,2.852 18.117,3.616 L18.76,4.259 C19.593,5.092 19.593,6.443 18.76,7.277 L7.143,18.893 C7.084,18.952 7.084,19.048 7.143,19.107 L18.884,30.848 C19.648,31.612 19.648,32.852 18.884,33.616 L18.116,34.384 L18.116,34.384 Z" id="Shape" fill="#20B1A5"></path>
                            <path d="M54.019,34.384 C54.783,35.148 56.023,35.148 56.787,34.384 L70.526,20.645 C71.435,19.736 71.435,18.263 70.526,17.355 L56.787,3.616 C56.023,2.852 54.783,2.852 54.019,3.616 L53.376,4.259 C52.543,5.092 52.543,6.443 53.376,7.277 L64.992,18.893 C65.051,18.952 65.051,19.048 64.992,19.107 L53.251,30.848 C52.487,31.612 52.487,32.852 53.251,33.616 L54.019,34.384 L54.019,34.384 Z" id="Shape" fill="#20B1A5"></path>
                            <path d="M47.388,2.954 C47.251,2.453 46.921,2.027 46.471,1.77 L45.528,1.231 C44.59,0.695 43.394,1.021 42.858,1.959 L24.8,33.56 C24.542,34.011 24.475,34.545 24.611,35.046 C24.748,35.547 25.078,35.973 25.528,36.23 L26.471,36.769 C27.409,37.305 28.605,36.979 29.141,36.041 L47.2,4.44 C47.457,3.989 47.525,3.454 47.388,2.954 L47.388,2.954 Z" id="Shape" fill="#FFCD4E"></path>
                        </g>
                        <path d="M160,18.0000003 L149.994783,18 C147.23624,18 145,15.7543484 145,13.0052172 L145,3 C145,2.99414062 148,3 148,3 L148,11.0000003 C148,11.0000003 148.820156,14.5105726 149.994783,15.0000003 C152.820156,16.1772393 160,16.0000003 160,16.0000003" id="Rectangle-28" fill="#000000" opacity="0.03"></path>
                        <use id="Rectangle-28" stroke="#DEDFE4" mask="url(#mask-7)" stroke-width="4" stroke-linecap="square" stroke-linejoin="round" xlink:href="#path-6"></use>
                    </g>
                </g>
            </g>
        </g>
    </g>
</svg>