<?xml version="1.0" encoding="UTF-8" standalone="no"?>
<svg width="152px" height="142px" viewBox="0 0 152 142" version="1.1" xmlns="http://www.w3.org/2000/svg" xmlns:xlink="http://www.w3.org/1999/xlink">
    <!-- Generator: sketchtool 39.1 (31720) - http://www.bohemiancoding.com/sketch -->
    <title>E8E624F6-29D6-4052-BD87-05A39E939CE6</title>
    <desc>Created with sketchtool.</desc>
    <defs>
        <rect id="path-1" x="0" y="0" width="10" height="142" rx="5"></rect>
        <mask id="mask-2" maskContentUnits="userSpaceOnUse" maskUnits="objectBoundingBox" x="0" y="0" width="10" height="142" fill="white">
            <use xlink:href="#path-1"></use>
        </mask>
        <rect id="path-3" x="2.40163445e-12" y="-1.81188398e-13" width="10" height="115" rx="5"></rect>
        <mask id="mask-4" maskContentUnits="userSpaceOnUse" maskUnits="objectBoundingBox" x="0" y="0" width="10" height="115" fill="white">
            <use xlink:href="#path-3"></use>
        </mask>
        <rect id="path-5" x="2.40163445e-12" y="-1.81188398e-13" width="10" height="115" rx="5"></rect>
        <mask id="mask-6" maskContentUnits="userSpaceOnUse" maskUnits="objectBoundingBox" x="0" y="0" width="10" height="115" fill="white">
            <use xlink:href="#path-5"></use>
        </mask>
        <rect id="path-7" x="3" y="9" width="146" height="98" rx="6"></rect>
        <mask id="mask-8" maskContentUnits="userSpaceOnUse" maskUnits="objectBoundingBox" x="0" y="0" width="146" height="98" fill="white">
            <use xlink:href="#path-7"></use>
        </mask>
        <rect id="path-9" x="0" y="97" width="152" height="10" rx="5"></rect>
        <mask id="mask-10" maskContentUnits="userSpaceOnUse" maskUnits="objectBoundingBox" x="0" y="0" width="152" height="10" fill="white">
            <use xlink:href="#path-9"></use>
        </mask>
        <filter x="-50%" y="-50%" width="200%" height="200%" filterUnits="objectBoundingBox" id="filter-11">
            <feOffset dx="3" dy="4" in="SourceAlpha" result="shadowOffsetOuter1"></feOffset>
            <feColorMatrix values="0 0 0 0 0   0 0 0 0 0   0 0 0 0 0  0 0 0 0.03 0" type="matrix" in="shadowOffsetOuter1" result="shadowMatrixOuter1"></feColorMatrix>
            <feMerge>
                <feMergeNode in="shadowMatrixOuter1"></feMergeNode>
                <feMergeNode in="SourceGraphic"></feMergeNode>
            </feMerge>
        </filter>
        <circle id="path-12" cx="7" cy="57" r="7"></circle>
        <mask id="mask-13" maskContentUnits="userSpaceOnUse" maskUnits="objectBoundingBox" x="0" y="0" width="14" height="14" fill="white">
            <use xlink:href="#path-12"></use>
        </mask>
        <circle id="path-14" cx="37" cy="27" r="7"></circle>
        <mask id="mask-15" maskContentUnits="userSpaceOnUse" maskUnits="objectBoundingBox" x="0" y="0" width="14" height="14" fill="white">
            <use xlink:href="#path-14"></use>
        </mask>
        <circle id="path-16" cx="71" cy="47" r="7"></circle>
        <mask id="mask-17" maskContentUnits="userSpaceOnUse" maskUnits="objectBoundingBox" x="0" y="0" width="14" height="14" fill="white">
            <use xlink:href="#path-16"></use>
        </mask>
        <circle id="path-18" cx="107" cy="7" r="7"></circle>
        <mask id="mask-19" maskContentUnits="userSpaceOnUse" maskUnits="objectBoundingBox" x="0" y="0" width="14" height="14" fill="white">
            <use xlink:href="#path-18"></use>
        </mask>
    </defs>
    <g id="Page-1" stroke="none" stroke-width="1" fill="none" fill-rule="evenodd">
        <g id="002a_Solutions" transform="translate(-364.000000, -2248.000000)">
            <g id="Content-discovery" transform="translate(0.000000, 2155.000000)">
                <g id="Group-2" transform="translate(354.000000, 79.000000)">
                    <g id="Group-4" transform="translate(10.000000, 14.000000)">
                        <g id="Group-7" transform="translate(71.000000, 0.000000)">
                            <use id="Rectangle-13" stroke="#DEDFE4" mask="url(#mask-2)" stroke-width="4" fill="#FFFFFF" xlink:href="#path-1"></use>
                            <rect id="Rectangle-15" fill="#000000" opacity="0.05" x="2" y="107" width="6" height="3"></rect>
                        </g>
                        <g id="Group-7" transform="translate(51.711724, 85.914828) rotate(-345.000000) translate(-51.711724, -85.914828) translate(46.711724, 28.414828)">
                            <use id="Rectangle-13" stroke="#DEDFE4" mask="url(#mask-4)" stroke-width="4" fill="#FFFFFF" xlink:href="#path-3"></use>
                            <polygon id="Rectangle-15" fill="#000000" opacity="0.05" points="1.74118095 76 7.74118095 76 7.65773944 81.7226662 2.05966323 83.2226662"></polygon>
                        </g>
                        <g id="Group-7" transform="translate(99.711724, 85.834830) scale(-1, 1) rotate(-345.000000) translate(-99.711724, -85.834830) translate(94.711724, 28.334830)">
                            <use id="Rectangle-13" stroke="#DEDFE4" mask="url(#mask-6)" stroke-width="4" fill="#FFFFFF" xlink:href="#path-5"></use>
                            <polygon id="Rectangle-15" fill="#000000" opacity="0.05" points="1.74118095 76 7.74118095 76 7.65773944 81.7226662 2.05966323 83.2226662"></polygon>
                        </g>
                        <use id="Rectangle-11" stroke="#DEDFE4" mask="url(#mask-8)" stroke-width="4" fill="#FFFFFF" xlink:href="#path-7"></use>
                        <path d="M86.5969869,77.8923612 L85.2773147,74.6903811 L80.4061453,73.7790838 L81.688898,77.4639993 L86.5969869,77.8923612 L86.5969869,77.8923612 Z M83.3366321,43.7801078 L85.4709415,46.7124306 L86.790413,44.7913228 L84.9277832,41.8993282 L83.3366321,43.7801078 L83.3366321,43.7801078 Z M89.7026408,38.0960364 L90.7490282,40.5981915 L92.6897108,39.5520655 L91.9717866,37.2429241 L89.7026408,38.0960364 L89.7026408,38.0960364 Z M88.8597119,29.0366337 C77.3803499,28.4784591 56.8314272,39.3572461 53.8808754,83 L82.0285977,83 C75.7169651,66.6504196 76.4491353,54.3139983 80.7889847,45.95422 C87.1000153,33.7961657 96.4934245,32.9914072 105.263616,38.1161002 C105.57362,37.3795585 106,36.4467929 106,36.4467929 C100.994997,31.6354963 96.3100308,29.3979826 88.8597119,29.0366337 L88.8597119,29.0366337 Z M98.7824347,38.2725977 L101.168359,38.3891683 L101.188223,37.2814465 L98.7039807,36.7766416 L98.7824347,38.2725977 L98.7824347,38.2725977 Z M80.4460746,50.5123116 L79.6496965,53.2496143 L82.5219949,55.8900089 L83.2399191,53.3461211 L80.4460746,50.5123116 L80.4460746,50.5123116 Z M58.2275468,52.5132732 L53.7651006,50.5723023 L52.2514003,54.9953646 L56.8314272,56.7029937 L58.2275468,52.5132732 L58.2275468,52.5132732 Z M102.27454,30.8209065 L99.0155895,28.4917012 L99.0155895,30.0045109 L102.157762,31.9468863 L102.27454,30.8209065 L102.27454,30.8209065 Z M89.1558707,27.753755 L88.4194868,25.3115906 L84.5395263,25 L85.664167,27.6771114 L89.1558707,27.753755 L89.1558707,27.753755 Z M77.3594824,29.8496184 L75.0704722,26.8625215 L71.8500468,28.7633649 L74.5273138,31.6754232 L77.3594824,29.8496184 L77.3594824,29.8496184 Z M66.416256,38.7374757 L62.8467003,36.0968804 L60.3626588,39.4738168 L64.2819466,41.919392 L66.416256,38.7374757 L66.416256,38.7374757 Z M47,73.8689696 L52.4588719,74.4905458 L53.6493258,69.4176174 L48.422806,68.4896671 L47,73.8689696 L47,73.8689696 Z M78.79513,63.8633587 L82.9866993,65.7840652 L82.560319,62.7971689 L78.736741,60.7414331 L78.79513,63.8633587 L78.79513,63.8633587 Z" id="Fill-29" fill="#DEDFE4" opacity="0.400000006"></path>
                        <use id="Rectangle-14" stroke="#DEDFE4" mask="url(#mask-10)" stroke-width="4" fill="#FDFDFD" xlink:href="#path-9"></use>
                        <rect id="Rectangle-16" fill="#20B1A5" x="43" y="93" width="18" height="4" rx="2"></rect>
                        <rect id="Rectangle-19" fill="#FFFFFF" opacity="0.5" x="44" y="94" width="6" height="1" rx="0.5"></rect>
                        <rect id="Rectangle-19" fill="#FFFFFF" opacity="0.5" x="51" y="94" width="3" height="1" rx="0.5"></rect>
                        <rect id="Rectangle-16" fill="#FFD057" x="68" y="93" width="13" height="4" rx="2"></rect>
                        <rect id="Rectangle-19" fill="#FFFFFF" opacity="0.5" x="70" y="94" width="4" height="1" rx="0.5"></rect>
                        <rect id="Rectangle-19" fill="#FFFFFF" opacity="0.5" x="75" y="94" width="1" height="1" rx="0.5"></rect>
                        <g id="Group-8" filter="url(#filter-11)" transform="translate(19.000000, 20.000000)">
                            <path d="M7,57 L37,27" id="Line" stroke="#20B1A5" stroke-width="3" stroke-linecap="square"></path>
                            <path d="M37,27 L71,47" id="Line" stroke="#20B1A5" stroke-width="3" stroke-linecap="square"></path>
                            <path d="M70.5,47.5 L107,7" id="Line" stroke="#20B1A5" stroke-width="3" stroke-linecap="square"></path>
                            <use id="Oval-3" stroke="#FFCD4E" mask="url(#mask-13)" stroke-width="4" fill="#FFFFFF" xlink:href="#path-12"></use>
                            <use id="Oval-3" stroke="#FFCD4E" mask="url(#mask-15)" stroke-width="4" fill="#FFFFFF" xlink:href="#path-14"></use>
                            <use id="Oval-3" stroke="#FFCD4E" mask="url(#mask-17)" stroke-width="4" fill="#FFFFFF" xlink:href="#path-16"></use>
                            <use id="Oval-3" stroke="#FFCD4E" mask="url(#mask-19)" stroke-width="4" fill="#FFFFFF" xlink:href="#path-18"></use>
                        </g>
                    </g>
                </g>
            </g>
        </g>
    </g>
</svg>