<?xml version="1.0" encoding="UTF-8" standalone="no"?>
<svg width="157px" height="156px" viewBox="0 0 157 156" version="1.1" xmlns="http://www.w3.org/2000/svg" xmlns:xlink="http://www.w3.org/1999/xlink">
    <!-- Generator: sketchtool 39.1 (31720) - http://www.bohemiancoding.com/sketch -->
    <title>DE94A6A0-9826-4DE8-A635-429CF762C4D3</title>
    <desc>Created with sketchtool.</desc>
    <defs>
        <filter x="-50%" y="-50%" width="200%" height="200%" filterUnits="objectBoundingBox" id="filter-1">
            <feOffset dx="3" dy="4" in="SourceAlpha" result="shadowOffsetOuter1"></feOffset>
            <feColorMatrix values="0 0 0 0 0   0 0 0 0 0   0 0 0 0 0  0 0 0 0.03 0" type="matrix" in="shadowOffsetOuter1" result="shadowMatrixOuter1"></feColorMatrix>
            <feMerge>
                <feMergeNode in="shadowMatrixOuter1"></feMergeNode>
                <feMergeNode in="SourceGraphic"></feMergeNode>
            </feMerge>
        </filter>
        <path d="M3.52860152,47.6496443 L3.52860152,33.9702998 L38.9360031,33.9702998 C41.1648845,33.9702998 42.97175,35.7779259 42.97175,38.0077968 L42.97175,71.4681579 C42.97175,72.3550234 42.2534699,73.0739699 41.3519972,73.0739699 L30.6553544,73.0739699 C30.1153364,77.0259041 26.733907,80.0704332 22.6430876,80.0704332 C18.5522681,80.0704332 15.1708388,77.0259041 14.6308207,73.0739699 L3.52860152,73.0739699 L3.52860152,60.6073281 C6.96471855,60.4524882 9.70308324,57.6110422 9.70308324,54.1284862 C9.70308324,50.6459302 6.96471855,47.8044842 3.52860152,47.6496443 Z" id="path-2"></path>
        <mask id="mask-3" maskContentUnits="userSpaceOnUse" maskUnits="objectBoundingBox" x="0" y="0" width="39.4431485" height="46.1001333" fill="white">
            <use xlink:href="#path-2"></use>
        </mask>
        <path d="M-5.32907052e-14,81.5875491 L-5.32907052e-14,69.6521671 C-5.32907052e-14,68.7653017 0.718280062,68.0463552 1.6197528,68.0463552 L35.4074015,68.0463552 C37.636283,68.0463552 39.4431485,69.8539812 39.4431485,72.0838521 L39.4431485,107.150025 L26.957613,107.150025 C26.3550641,111.030456 23.0068541,114 18.9667258,114 C14.9265976,114 11.5783876,111.030456 10.9758386,107.150025 L-5.32907052e-14,107.150025 L-5.32907052e-14,94.5285569 C3.36652751,94.3002219 6.02672149,91.4905418 6.02672149,88.058053 C6.02672149,84.6255643 3.36652751,81.8158841 6.97220059e-14,81.5875491 Z" id="path-4"></path>
        <mask id="mask-5" maskContentUnits="userSpaceOnUse" maskUnits="objectBoundingBox" x="0" y="0" width="39.4431485" height="45.9536448" fill="white">
            <use xlink:href="#path-4"></use>
        </mask>
        <path d="M20,55.1190177 L20,41.5778237 L55.4074015,41.5778237 C57.636283,41.5778237 59.4431485,43.3854498 59.4431485,45.6153206 L59.4431485,80.6814937 L46.957613,80.6814937 C46.3550641,84.5619243 43.0068541,87.5314685 38.9667258,87.5314685 C34.9265976,87.5314685 31.5783876,84.5619243 30.9758386,80.6814937 L20,80.6814937 L20,68.0600255 C23.3665275,67.8316905 26.0267215,65.0220103 26.0267215,61.5895216 C26.0267215,58.1570328 23.3665275,55.3473527 20,55.1190177 Z" id="path-6"></path>
        <mask id="mask-7" maskContentUnits="userSpaceOnUse" maskUnits="objectBoundingBox" x="0" y="0" width="39.4431485" height="45.9536448" fill="white">
            <use xlink:href="#path-6"></use>
        </mask>
        <path d="M47.8068619,10.8302608 L59.3037792,10.8302608 L59.3037792,23.1466564 C63.2557134,23.6866744 66.3002424,27.0681038 66.3002424,31.1589232 C66.3002424,35.2497426 63.2557134,38.631172 59.3037792,39.1711901 L59.3037792,50.2734093 L46.8371373,50.2734093 C46.6822975,46.8372922 43.8408515,44.0989275 40.3582955,44.0989275 C36.8757394,44.0989275 34.0342934,46.8372922 33.8794536,50.2734093 L20.2001091,50.2734093 L20.2001091,47.8510724 L30.0389127,46.0989388 L40.3690397,38.2066339 L49.7350652,23.9842021" id="path-8"></path>
        <mask id="mask-9" maskContentUnits="userSpaceOnUse" maskUnits="objectBoundingBox" x="0" y="0" width="46.1001333" height="39.4431485" fill="white">
            <use xlink:href="#path-8"></use>
        </mask>
        <path d="M0.0621778265,53.125063 L0.0621778265,8.12692088 C0.0621778265,3.67288628 3.66957736,0.0621778265 8.11963213,0.0621778265 L44.0126333,0.0621778265" id="path-10"></path>
        <mask id="mask-11" maskContentUnits="userSpaceOnUse" maskUnits="objectBoundingBox" x="0" y="0" width="43.9504555" height="53.0628852" fill="white">
            <use xlink:href="#path-10"></use>
        </mask>
        <filter x="-50%" y="-50%" width="200%" height="200%" filterUnits="objectBoundingBox" id="filter-12">
            <feOffset dx="3" dy="4" in="SourceAlpha" result="shadowOffsetOuter1"></feOffset>
            <feColorMatrix values="0 0 0 0 0   0 0 0 0 0   0 0 0 0 0  0 0 0 0.03 0" type="matrix" in="shadowOffsetOuter1" result="shadowMatrixOuter1"></feColorMatrix>
            <feMerge>
                <feMergeNode in="shadowMatrixOuter1"></feMergeNode>
                <feMergeNode in="SourceGraphic"></feMergeNode>
            </feMerge>
        </filter>
        <rect id="path-13" x="40" y="79" width="10" height="32" rx="5"></rect>
        <mask id="mask-14" maskContentUnits="userSpaceOnUse" maskUnits="objectBoundingBox" x="0" y="0" width="10" height="32" fill="white">
            <use xlink:href="#path-13"></use>
        </mask>
        <path d="M45,90 C69.8528137,90 90,69.8528137 90,45 C90,20.1471863 69.8528137,-1.1155521e-12 45,-1.1155521e-12 C20.1471863,-1.1155521e-12 -1.64845915e-12,20.1471863 -1.64845915e-12,45 C-1.64845915e-12,69.8528137 20.1471863,90 45,90 Z M35,105.990439 C35,102.682011 37.6765363,100 41.0006595,100 L48.9993405,100 C52.3134132,100 55,102.686247 55,105.990439 L55,146.009561 C55,149.317989 52.3234637,152 48.9993405,152 L41.0006595,152 C37.6865868,152 35,149.313753 35,146.009561 L35,105.990439 Z M45,76.25 C62.2588984,76.25 76.25,62.2588984 76.25,45 C76.25,27.7411016 62.2588984,13.75 45,13.75 C27.7411016,13.75 13.75,27.7411016 13.75,45 C13.75,62.2588984 27.7411016,76.25 45,76.25 Z" id="path-15"></path>
        <mask id="mask-16" maskContentUnits="userSpaceOnUse" maskUnits="objectBoundingBox" x="0" y="0" width="90" height="152" fill="white">
            <use xlink:href="#path-15"></use>
        </mask>
    </defs>
    <g id="Page-1" stroke="none" stroke-width="1" fill="none" fill-rule="evenodd">
        <g id="002a_Solutions" transform="translate(-361.000000, -1266.000000)">
            <g id="Content-discovery" transform="translate(0.000000, 1171.000000)">
                <g id="Group-2" transform="translate(340.000000, 83.000000)">
                    <g id="Group-16" filter="url(#filter-1)" transform="translate(71.660254, 74.000000) rotate(-30.000000) translate(-71.660254, -74.000000) translate(22.660254, 17.000000)">
                        <use id="Combined-Shape" stroke="#DEDFE4" mask="url(#mask-3)" stroke-width="4" fill="#FFFFFF" transform="translate(23.250176, 57.020366) rotate(-90.000000) translate(-23.250176, -57.020366) " xlink:href="#path-2"></use>
                        <use id="Combined-Shape" stroke="#DEDFE4" mask="url(#mask-5)" stroke-width="4" fill="#FFFFFF" transform="translate(19.721574, 91.023178) rotate(180.000000) translate(-19.721574, -91.023178) " xlink:href="#path-4"></use>
                        <g id="Group-15" transform="translate(63.761345, 44.216253) scale(-1, -1) translate(-63.761345, -44.216253) translate(30.261345, 0.216253)">
                            <use id="Combined-Shape" stroke="#DEDFE4" mask="url(#mask-7)" stroke-width="4" fill="#FFFFFF" transform="translate(39.721574, 64.554646) rotate(180.000000) translate(-39.721574, -64.554646) " xlink:href="#path-6"></use>
                            <use id="Combined-Shape" stroke="#FFCD4E" mask="url(#mask-9)" stroke-width="4" fill="#FFFFFF" xlink:href="#path-8"></use>
                            <use id="Combined-Shape" stroke="#FFCD4E" mask="url(#mask-11)" stroke-width="8" xlink:href="#path-10"></use>
                        </g>
                    </g>
                    <g id="Icon" transform="translate(53.000000, 6.000000)">
                        <g id="Group-3" filter="url(#filter-12)" transform="translate(77.000000, 89.000000) rotate(-30.000000) translate(-77.000000, -89.000000) translate(32.000000, 13.000000)">
                            <use id="Rectangle-2" stroke="#DEDFE4" mask="url(#mask-14)" stroke-width="4" fill="#FFFFFF" xlink:href="#path-13"></use>
                            <rect id="Rectangle-6" fill="#000000" opacity="0.05" x="42" y="88" width="6" height="4"></rect>
                            <use id="Combined-Shape" stroke="#DEDFE4" mask="url(#mask-16)" stroke-width="4" fill="#FFFFFF" xlink:href="#path-15"></use>
                            <rect id="Rectangle-3" fill="#DEDFE4" x="40" y="100" width="10" height="2"></rect>
                            <rect id="Combined-Shape" fill="#20B1A5" x="37" y="112" width="16" height="2"></rect>
                            <path d="M37,133 L53,133 L53,135 L37,135 L37,133 Z M37,139 L53,139 L53,141 L37,141 L37,139 Z" id="Combined-Shape" fill="#20B1A5"></path>
                        </g>
                    </g>
                </g>
            </g>
        </g>
    </g>
</svg>