<?xml version="1.0" encoding="UTF-8" standalone="no"?>
<svg width="152px" height="142px" viewBox="0 0 152 142" version="1.1" xmlns="http://www.w3.org/2000/svg" xmlns:xlink="http://www.w3.org/1999/xlink">
    <!-- Generator: sketchtool 39.1 (31720) - http://www.bohemiancoding.com/sketch -->
    <title>8F4C6671-A4F7-4C8A-8137-F4D4092E9186</title>
    <desc>Created with sketchtool.</desc>
    <defs>
        <rect id="path-1" x="0" y="0" width="10" height="142" rx="5"></rect>
        <mask id="mask-2" maskContentUnits="userSpaceOnUse" maskUnits="objectBoundingBox" x="0" y="0" width="10" height="142" fill="white">
            <use xlink:href="#path-1"></use>
        </mask>
        <rect id="path-3" x="2.40163445e-12" y="-1.81188398e-13" width="10" height="115" rx="5"></rect>
        <mask id="mask-4" maskContentUnits="userSpaceOnUse" maskUnits="objectBoundingBox" x="0" y="0" width="10" height="115" fill="white">
            <use xlink:href="#path-3"></use>
        </mask>
        <rect id="path-5" x="2.40163445e-12" y="-1.81188398e-13" width="10" height="115" rx="5"></rect>
        <mask id="mask-6" maskContentUnits="userSpaceOnUse" maskUnits="objectBoundingBox" x="0" y="0" width="10" height="115" fill="white">
            <use xlink:href="#path-5"></use>
        </mask>
        <rect id="path-7" x="3" y="9" width="146" height="98" rx="6"></rect>
        <mask id="mask-8" maskContentUnits="userSpaceOnUse" maskUnits="objectBoundingBox" x="0" y="0" width="146" height="98" fill="white">
            <use xlink:href="#path-7"></use>
        </mask>
        <filter x="-50%" y="-50%" width="200%" height="200%" filterUnits="objectBoundingBox" id="filter-9">
            <feOffset dx="3" dy="4" in="SourceAlpha" result="shadowOffsetOuter1"></feOffset>
            <feColorMatrix values="0 0 0 0 0   0 0 0 0 0   0 0 0 0 0  0 0 0 0.03 0" type="matrix" in="shadowOffsetOuter1" result="shadowMatrixOuter1"></feColorMatrix>
            <feMerge>
                <feMergeNode in="shadowMatrixOuter1"></feMergeNode>
                <feMergeNode in="SourceGraphic"></feMergeNode>
            </feMerge>
        </filter>
        <circle id="path-10" cx="7" cy="57" r="7"></circle>
        <mask id="mask-11" maskContentUnits="userSpaceOnUse" maskUnits="objectBoundingBox" x="0" y="0" width="14" height="14" fill="white">
            <use xlink:href="#path-10"></use>
        </mask>
        <circle id="path-12" cx="37" cy="27" r="7"></circle>
        <mask id="mask-13" maskContentUnits="userSpaceOnUse" maskUnits="objectBoundingBox" x="0" y="0" width="14" height="14" fill="white">
            <use xlink:href="#path-12"></use>
        </mask>
        <circle id="path-14" cx="71" cy="47" r="7"></circle>
        <mask id="mask-15" maskContentUnits="userSpaceOnUse" maskUnits="objectBoundingBox" x="0" y="0" width="14" height="14" fill="white">
            <use xlink:href="#path-14"></use>
        </mask>
        <circle id="path-16" cx="107" cy="7" r="7"></circle>
        <mask id="mask-17" maskContentUnits="userSpaceOnUse" maskUnits="objectBoundingBox" x="0" y="0" width="14" height="14" fill="white">
            <use xlink:href="#path-16"></use>
        </mask>
        <rect id="path-18" x="0" y="97" width="152" height="10" rx="5"></rect>
        <mask id="mask-19" maskContentUnits="userSpaceOnUse" maskUnits="objectBoundingBox" x="0" y="0" width="152" height="10" fill="white">
            <use xlink:href="#path-18"></use>
        </mask>
    </defs>
    <g id="Page-1" stroke="none" stroke-width="1" fill="none" fill-rule="evenodd">
        <g id="002a_Solutions" transform="translate(-365.000000, -1920.000000)">
            <g id="Content-discovery" transform="translate(0.000000, 1827.000000)">
                <g id="Group-2" transform="translate(355.000000, 79.000000)">
                    <g id="Group-4" transform="translate(10.000000, 14.000000)">
                        <g id="Group-7" transform="translate(71.000000, 0.000000)">
                            <use id="Rectangle-13" stroke="#DEDFE4" mask="url(#mask-2)" stroke-width="4" fill="#FFFFFF" xlink:href="#path-1"></use>
                            <rect id="Rectangle-15" fill="#000000" opacity="0.05" x="2" y="107" width="6" height="3"></rect>
                        </g>
                        <g id="Group-7" transform="translate(51.711724, 85.914828) rotate(-345.000000) translate(-51.711724, -85.914828) translate(46.711724, 28.414828)">
                            <use id="Rectangle-13" stroke="#DEDFE4" mask="url(#mask-4)" stroke-width="4" fill="#FFFFFF" xlink:href="#path-3"></use>
                            <polygon id="Rectangle-15" fill="#000000" opacity="0.05" points="1.74118095 76 7.74118095 76 7.65773944 81.7226662 2.05966323 83.2226662"></polygon>
                        </g>
                        <g id="Group-7" transform="translate(99.711724, 85.834830) scale(-1, 1) rotate(-345.000000) translate(-99.711724, -85.834830) translate(94.711724, 28.334830)">
                            <use id="Rectangle-13" stroke="#DEDFE4" mask="url(#mask-6)" stroke-width="4" fill="#FFFFFF" xlink:href="#path-5"></use>
                            <polygon id="Rectangle-15" fill="#000000" opacity="0.05" points="1.74118095 76 7.74118095 76 7.65773944 81.7226662 2.05966323 83.2226662"></polygon>
                        </g>
                        <use id="Rectangle-11" stroke="#DEDFE4" mask="url(#mask-8)" stroke-width="4" fill="#FFFFFF" xlink:href="#path-7"></use>
                        <g id="Icon" transform="translate(46.000000, 25.000000)" fill="#F2F2F4">
                            <path d="M43.9316991,7.39656853 L44.0635122,7.45120642 L45.2546416,6.26007705 C46.2597501,5.25496849 47.8881561,5.25377146 48.8948574,6.26047275 L53.7395272,11.1051426 C54.7448543,12.1104697 54.7407744,13.744507 53.7399229,14.7453584 L52.5487936,15.9364878 L52.6034315,16.0683009 C51.383809,16.8237953 50.5714286,18.1741697 50.5714286,19.7142857 C50.5714286,22.0812204 52.4902082,24 54.8571429,24 C55.1967306,24 55.5270935,23.9605037 55.8438884,23.8858541 L55.8912031,24 L57.4262585,24 C58.8476967,24 60,25.1506104 60,26.5743011 L60,33.4256989 C60,34.8474462 58.8416763,36 57.4262585,36 L55.8912031,36 L55.8438884,36.1141459 C55.5270935,36.0394963 55.1967306,36 54.8571429,36 C52.4902082,36 50.5714286,37.9187796 50.5714286,40.2857143 C50.5714286,41.8258303 51.383809,43.1762047 52.6034315,43.9316991 L52.5487936,44.0635122 L53.7399229,45.2546416 C54.7450315,46.2597501 54.7462285,47.8881561 53.7395272,48.8948574 L48.8948574,53.7395272 C47.8895303,54.7448543 46.255493,54.7407744 45.2546416,53.7399229 L44.0635122,52.5487936 L43.9316991,52.6034315 C43.1762047,51.383809 41.8258303,50.5714286 40.2857143,50.5714286 C37.9187796,50.5714286 36,52.4902082 36,54.8571429 C36,55.1967306 36.0394963,55.5270935 36.1141459,55.8438884 L36,55.8912031 L36,57.4262585 C36,58.8476967 34.8493896,60 33.4256989,60 L26.5743011,60 C25.1525538,60 24,58.8416763 24,57.4262585 L24,55.8912031 L23.8858541,55.8438884 C23.9605037,55.5270935 24,55.1967306 24,54.8571429 C24,52.4902082 22.0812204,50.5714286 19.7142857,50.5714286 C18.1741697,50.5714286 16.8237953,51.383809 16.0683009,52.6034315 L15.9364878,52.5487936 L14.7453584,53.7399229 C13.7402499,54.7450315 12.1118439,54.7462285 11.1051426,53.7395272 L6.26047275,48.8948574 C5.25514565,47.8895303 5.25922559,46.255493 6.26007705,45.2546416 L7.45120642,44.0635122 L7.39656853,43.9316991 C8.61619101,43.1762047 9.42857143,41.8258303 9.42857143,40.2857143 C9.42857143,37.9187796 7.50979178,36 5.14285714,36 C4.80326939,36 4.47290651,36.0394963 4.15611157,36.1141459 L4.10879693,36 L2.57374146,36 C1.1523033,36 0,34.8493896 0,33.4256989 L0,26.5743011 C0,25.1525538 1.15832375,24 2.57374146,24 L4.10879693,24 L4.15611157,23.8858541 C4.47290651,23.9605037 4.80326939,24 5.14285714,24 C7.50979178,24 9.42857143,22.0812204 9.42857143,19.7142857 C9.42857143,18.1741697 8.61619101,16.8237953 7.39656853,16.0683009 L7.45120642,15.9364878 L6.26007705,14.7453584 C5.25496849,13.7402499 5.25377146,12.1118439 6.26047275,11.1051426 L11.1051426,6.26047275 C12.1104697,5.25514565 13.744507,5.25922559 14.7453584,6.26007705 L15.9364878,7.45120642 L16.0683009,7.39656853 C16.8237953,8.61619101 18.1741697,9.42857143 19.7142857,9.42857143 C22.0812204,9.42857143 24,7.50979178 24,5.14285714 C24,4.80326939 23.9605037,4.47290651 23.8858541,4.15611157 L24,4.10879693 L24,2.57374146 C24,1.1523033 25.1506104,0 26.5743011,0 L33.4256989,0 C34.8474462,0 36,1.15832375 36,2.57374146 L36,4.10879693 L36.1141459,4.15611157 C36.0394963,4.47290651 36,4.80326939 36,5.14285714 C36,7.50979178 37.9187796,9.42857143 40.2857143,9.42857143 C41.8258303,9.42857143 43.1762047,8.61619101 43.9316991,7.39656853 Z M30.0451128,38.7293233 C34.8412698,38.7293233 38.7293233,34.8412698 38.7293233,30.0451128 C38.7293233,25.2489557 34.8412698,21.3609023 30.0451128,21.3609023 C25.2489557,21.3609023 21.3609023,25.2489557 21.3609023,30.0451128 C21.3609023,34.8412698 25.2489557,38.7293233 30.0451128,38.7293233 Z" id="Combined-Shape"></path>
                        </g>
                        <g id="Group-8" filter="url(#filter-9)" transform="translate(19.000000, 20.000000)">
                            <path d="M7,57 L37,27" id="Line" stroke="#20B1A5" stroke-width="3" stroke-linecap="square"></path>
                            <path d="M37,27 L71,47" id="Line" stroke="#20B1A5" stroke-width="3" stroke-linecap="square"></path>
                            <path d="M70.5,47.5 L107,7" id="Line" stroke="#20B1A5" stroke-width="3" stroke-linecap="square"></path>
                            <use id="Oval-3" stroke="#FFCD4E" mask="url(#mask-11)" stroke-width="4" fill="#FFFFFF" xlink:href="#path-10"></use>
                            <use id="Oval-3" stroke="#FFCD4E" mask="url(#mask-13)" stroke-width="4" fill="#FFFFFF" xlink:href="#path-12"></use>
                            <use id="Oval-3" stroke="#FFCD4E" mask="url(#mask-15)" stroke-width="4" fill="#FFFFFF" xlink:href="#path-14"></use>
                            <use id="Oval-3" stroke="#FFCD4E" mask="url(#mask-17)" stroke-width="4" fill="#FFFFFF" xlink:href="#path-16"></use>
                        </g>
                        <use id="Rectangle-14" stroke="#DEDFE4" mask="url(#mask-19)" stroke-width="4" fill="#FDFDFD" xlink:href="#path-18"></use>
                        <rect id="Rectangle-19" fill="#FFFFFF" opacity="0.5" x="75" y="94" width="1" height="1" rx="0.5"></rect>
                    </g>
                </g>
            </g>
        </g>
    </g>
</svg>