<?xml version="1.0" encoding="UTF-8" standalone="no"?>
<svg width="173px" height="145px" viewBox="0 0 173 145" version="1.1" xmlns="http://www.w3.org/2000/svg" xmlns:xlink="http://www.w3.org/1999/xlink">
    <!-- Generator: sketchtool 39.1 (31720) - http://www.bohemiancoding.com/sketch -->
    <title>6EFBCCA9-5290-433D-8654-E09DD5426140</title>
    <desc>Created with sketchtool.</desc>
    <defs>
        <path d="M105.784484,54 L165.001215,54 C167.761968,54 170,56.2301197 170,59.0061354 L170,118.993865 C170,121.758677 167.756993,124 165.004289,124 L4.99571068,124 C2.23665586,124 0,121.76988 0,118.993865 L0,59.0061354 L0,59.0061354 C0,56.2413232 2.23805112,54 5.00132258,54 L32.0084645,54" id="path-1"></path>
        <filter x="-50%" y="-50%" width="200%" height="200%" filterUnits="objectBoundingBox" id="filter-2">
            <feOffset dx="3" dy="4" in="SourceAlpha" result="shadowOffsetOuter1"></feOffset>
            <feComposite in="shadowOffsetOuter1" in2="SourceAlpha" operator="out" result="shadowOffsetOuter1"></feComposite>
            <feColorMatrix values="0 0 0 0 0   0 0 0 0 0   0 0 0 0 0  0 0 0 0.03 0" type="matrix" in="shadowOffsetOuter1"></feColorMatrix>
        </filter>
        <mask id="mask-3" maskContentUnits="userSpaceOnUse" maskUnits="objectBoundingBox" x="0" y="0" width="170" height="70" fill="white">
            <use xlink:href="#path-1"></use>
        </mask>
        <filter x="-50%" y="-50%" width="200%" height="200%" filterUnits="objectBoundingBox" id="filter-4">
            <feOffset dx="3" dy="4" in="SourceAlpha" result="shadowOffsetOuter1"></feOffset>
            <feColorMatrix values="0 0 0 0 0   0 0 0 0 0   0 0 0 0 0  0 0 0 0.03 0" type="matrix" in="shadowOffsetOuter1" result="shadowMatrixOuter1"></feColorMatrix>
            <feMerge>
                <feMergeNode in="shadowMatrixOuter1"></feMergeNode>
                <feMergeNode in="SourceGraphic"></feMergeNode>
            </feMerge>
        </filter>
        <rect id="path-5" x="40" y="79" width="10" height="32" rx="5"></rect>
        <mask id="mask-6" maskContentUnits="userSpaceOnUse" maskUnits="objectBoundingBox" x="0" y="0" width="10" height="32" fill="white">
            <use xlink:href="#path-5"></use>
        </mask>
        <path d="M45,90 C69.8528137,90 90,69.8528137 90,45 C90,20.1471863 69.8528137,-2.06057393e-13 45,-2.06057393e-13 C20.1471863,-2.06057393e-13 -7.46069873e-14,20.1471863 -7.46069873e-14,45 C-7.46069873e-14,69.8528137 20.1471863,90 45,90 Z M35,105.990439 C35,102.682011 37.6765363,100 41.0006595,100 L48.9993405,100 C52.3134132,100 55,102.686247 55,105.990439 L55,146.009561 C55,149.317989 52.3234637,152 48.9993405,152 L41.0006595,152 C37.6865868,152 35,149.313753 35,146.009561 L35,105.990439 Z M45,76.25 C62.2588984,76.25 76.25,62.2588984 76.25,45 C76.25,27.7411016 62.2588984,13.75 45,13.75 C27.7411016,13.75 13.75,27.7411016 13.75,45 C13.75,62.2588984 27.7411016,76.25 45,76.25 Z" id="path-7"></path>
        <mask id="mask-8" maskContentUnits="userSpaceOnUse" maskUnits="objectBoundingBox" x="0" y="0" width="90" height="152" fill="white">
            <use xlink:href="#path-7"></use>
        </mask>
    </defs>
    <g id="Page-1" stroke="none" stroke-width="1" fill="none" fill-rule="evenodd">
        <g id="002a_Solutions" transform="translate(-355.000000, -935.000000)">
            <g id="Content-discovery" transform="translate(0.000000, 843.000000)">
                <g id="Group-2" transform="translate(354.000000, 75.000000)">
                    <g id="Icon" transform="translate(1.000000, 0.000000)">
                        <g id="Rectangle-31">
                            <use fill="black" fill-opacity="1" filter="url(#filter-2)" xlink:href="#path-1"></use>
                            <use stroke="#DEDFE4" mask="url(#mask-3)" stroke-width="4" fill="#FFFFFF" fill-rule="evenodd" xlink:href="#path-1"></use>
                        </g>
                        <path d="M6,67 C6,66.4477153 6.44610862,66 6.99296544,66 L32.0070346,66 C32.5554342,66 33,66.4438648 33,67 C33,67.5522847 32.5538914,68 32.0070346,68 L6.99296544,68 C6.44456577,68 6,67.5561352 6,67 Z M6,73 C6,72.4477153 6.4463114,72 6.99754465,72 L14.0024554,72 C14.553384,72 15,72.4438648 15,73 C15,73.5522847 14.5536886,74 14.0024554,74 L6.99754465,74 C6.44661595,74 6,73.5561352 6,73 Z M18,73 C18,72.4477153 18.4489202,72 19.007484,72 L31.992516,72 C32.5489341,72 33,72.4438648 33,73 C33,73.5522847 32.5510798,74 31.992516,74 L19.007484,74 C18.4510659,74 18,73.5561352 18,73 Z M6,81 C6,80.4477153 6.45576096,80 7.00247329,80 L16.9975267,80 C17.5511774,80 18,80.4438648 18,81 C18,81.5522847 17.544239,82 16.9975267,82 L7.00247329,82 C6.44882258,82 6,81.5561352 6,81 Z M21,81 C21,80.4477153 21.4509254,80 21.9947712,80 L39.0052288,80 C39.5546258,80 40,80.4438648 40,81 C40,81.5522847 39.5490746,82 39.0052288,82 L21.9947712,82 C21.4453742,82 21,81.5561352 21,81 Z M6,87 C6,86.4477153 6.44371665,86 6.99980749,86 L10.0001925,86 C10.5523709,86 11,86.4438648 11,87 C11,87.5522847 10.5562834,88 10.0001925,88 L6.99980749,88 C6.44762906,88 6,87.5561352 6,87 Z M14,87 C14,86.4477153 14.4530363,86 14.9970301,86 L21.0029699,86 C21.5536144,86 22,86.4438648 22,87 C22,87.5522847 21.5469637,88 21.0029699,88 L14.9970301,88 C14.4463856,88 14,87.5561352 14,87 Z M25,87 C25,86.4477153 25.4489202,86 26.007484,86 L38.992516,86 C39.5489341,86 40,86.4438648 40,87 C40,87.5522847 39.5510798,88 38.992516,88 L26.007484,88 C25.4510659,88 25,87.5561352 25,87 Z" id="Combined-Shape" fill="#DEDFE4"></path>
                        <path d="M108,67 C108,66.4477153 108.450925,66 108.994771,66 L126.005229,66 C126.554626,66 127,66.4438648 127,67 C127,67.5522847 126.549075,68 126.005229,68 L108.994771,68 C108.445374,68 108,67.5561352 108,67 Z M130,67 C130,66.4477153 130.447489,66 130.998502,66 L142.001498,66 C142.552955,66 143,66.4438648 143,67 C143,67.5522847 142.552511,68 142.001498,68 L130.998502,68 C130.447045,68 130,67.5561352 130,67 Z M146,67 C146,66.4477153 146.453036,66 146.99703,66 L153.00297,66 C153.553614,66 154,66.4438648 154,67 C154,67.5522847 153.546964,68 153.00297,68 L146.99703,68 C146.446386,68 146,67.5561352 146,67 Z M157,67 C157,66.4477153 157.437881,66 158.002929,66 L162.997071,66 C163.550973,66 164,66.4438648 164,67 C164,67.5522847 163.562119,68 162.997071,68 L158.002929,68 C157.449027,68 157,67.5561352 157,67 Z M108,73 C108,72.4477153 108.446311,72 108.997545,72 L116.002455,72 C116.553384,72 117,72.4438648 117,73 C117,73.5522847 116.553689,74 116.002455,74 L108.997545,74 C108.446616,74 108,73.5561352 108,73 Z M120,73 C120,72.4477153 120.447489,72 120.998502,72 L132.001498,72 C132.552955,72 133,72.4438648 133,73 C133,73.5522847 132.552511,74 132.001498,74 L120.998502,74 C120.447045,74 120,73.5561352 120,73 Z M136,73 C136,72.4477153 136.447489,72 136.998502,72 L148.001498,72 C148.552955,72 149,72.4438648 149,73 C149,73.5522847 148.552511,74 148.001498,74 L136.998502,74 C136.447045,74 136,73.5561352 136,73 Z M152,73 C152,72.4477153 152.443353,72 153.009369,72 L154.990631,72 C155.54809,72 156,72.4438648 156,73 C156,73.5522847 155.556647,74 154.990631,74 L153.009369,74 C152.45191,74 152,73.5561352 152,73 Z M159,73 C159,72.4477153 159.443717,72 159.999807,72 L163.000193,72 C163.552371,72 164,72.4438648 164,73 C164,73.5522847 163.556283,74 163.000193,74 L159.999807,74 C159.447629,74 159,73.5561352 159,73 Z M108,81 C108,80.4477153 108.455761,80 109.002473,80 L118.997527,80 C119.551177,80 120,80.4438648 120,81 C120,81.5522847 119.544239,82 118.997527,82 L109.002473,82 C108.448823,82 108,81.5561352 108,81 Z M123,81 C123,80.4477153 123.450925,80 123.994771,80 L141.005229,80 C141.554626,80 142,80.4438648 142,81 C142,81.5522847 141.549075,82 141.005229,82 L123.994771,82 C123.445374,82 123,81.5561352 123,81 Z M145,81 C145,80.4477153 145.450925,80 145.994771,80 L163.005229,80 C163.554626,80 164,80.4438648 164,81 C164,81.5522847 163.549075,82 163.005229,82 L145.994771,82 C145.445374,82 145,81.5561352 145,81 Z M108,87 C108,86.4477153 108.443717,86 108.999807,86 L112.000193,86 C112.552371,86 113,86.4438648 113,87 C113,87.5522847 112.556283,88 112.000193,88 L108.999807,88 C108.447629,88 108,87.5561352 108,87 Z M116,87 C116,86.4477153 116.453036,86 116.99703,86 L123.00297,86 C123.553614,86 124,86.4438648 124,87 C124,87.5522847 123.546964,88 123.00297,88 L116.99703,88 C116.446386,88 116,87.5561352 116,87 Z M127,87 C127,86.4477153 127.44892,86 128.007484,86 L140.992516,86 C141.548934,86 142,86.4438648 142,87 C142,87.5522847 141.55108,88 140.992516,88 L128.007484,88 C127.451066,88 127,87.5561352 127,87 Z M145,87 C145,86.4477153 145.443717,86 145.999807,86 L149.000193,86 C149.552371,86 150,86.4438648 150,87 C150,87.5522847 149.556283,88 149.000193,88 L145.999807,88 C145.447629,88 145,87.5561352 145,87 Z M153,87 C153,86.4477153 153.444837,86 153.995577,86 L163.004423,86 C163.554265,86 164,86.4438648 164,87 C164,87.5522847 163.555163,88 163.004423,88 L153.995577,88 C153.445735,88 153,87.5561352 153,87 Z" id="Combined-Shape" fill="#DEDFE4"></path>
                        <path d="M6,110 C6,109.447715 6.45530558,109 6.99180311,109 L25.0081969,109 C25.5559546,109 26,109.443865 26,110 C26,110.552285 25.5446944,111 25.0081969,111 L6.99180311,111 C6.44404538,111 6,110.556135 6,110 Z M29,110 C29,109.447715 29.4553056,109 29.9918031,109 L48.0081969,109 C48.5559546,109 49,109.443865 49,110 C49,110.552285 48.5446944,111 48.0081969,111 L29.9918031,111 C29.4440454,111 29,110.556135 29,110 Z M6,116 C6,115.447715 6.4556644,115 6.99539757,115 L15.0046024,115 C15.5543453,115 16,115.443865 16,116 C16,116.552285 15.5443356,117 15.0046024,117 L6.99539757,117 C6.44565467,117 6,116.556135 6,116 Z M19,116 C19,115.447715 19.4489202,115 20.007484,115 L32.992516,115 C33.5489341,115 34,115.443865 34,116 C34,116.552285 33.5510798,117 32.992516,117 L20.007484,117 C19.4510659,117 19,116.556135 19,116 Z M37,116 C37,115.447715 37.4437166,115 37.9998075,115 L41.0001925,115 C41.5523709,115 42,115.443865 42,116 C42,116.552285 41.5562834,117 41.0001925,117 L37.9998075,117 C37.4476291,117 37,116.556135 37,116 Z M45,116 C45,115.447715 45.4378814,115 46.0029293,115 L50.9970707,115 C51.5509732,115 52,115.443865 52,116 C52,116.552285 51.5621186,117 50.9970707,117 L46.0029293,117 C45.4490268,117 45,116.556135 45,116 Z" id="Combined-Shape" fill="#DEDFE4"></path>
                        <path d="M37,51 C37,49.8954305 37.8892617,49 39.0017433,49 L66.9982567,49 C68.103789,49 69,49.8877296 69,51 C69,52.1045695 68.1107383,53 66.9982567,53 L39.0017433,53 C37.896211,53 37,52.1122704 37,51 Z M75,51 C75,49.8954305 75.8892617,49 77.0017433,49 L104.998257,49 C106.103789,49 107,49.8877296 107,51 C107,52.1045695 106.110738,53 104.998257,53 L77.0017433,53 C75.896211,53 75,52.1122704 75,51 Z M37,65 C37,63.8954305 37.8945138,63 38.9940603,63 L51.0059397,63 C52.1072288,63 53,63.8877296 53,65 C53,66.1045695 52.1054862,67 51.0059397,67 L38.9940603,67 C37.8927712,67 37,66.1122704 37,65 Z M59,65 C59,63.8954305 59.9023438,63 60.9945615,63 L78.0054385,63 C79.1070044,63 80,63.8877296 80,65 C80,66.1045695 79.0976562,67 78.0054385,67 L60.9945615,67 C59.8929956,67 59,66.1122704 59,65 Z M37,79 C37,77.8954305 37.8865548,77 39.0059191,77 L41.9940809,77 C43.1019194,77 44,77.8877296 44,79 C44,80.1045695 43.1134452,81 41.9940809,81 L39.0059191,81 C37.8980806,81 37,80.1122704 37,79 Z M50,79 C50,77.8954305 50.8945138,77 51.9940603,77 L64.0059397,77 C65.1072288,77 66,77.8877296 66,79 C66,80.1045695 65.1054862,81 64.0059397,81 L51.9940603,81 C50.8927712,81 50,80.1122704 50,79 Z M72,79 C72,77.8954305 72.9023438,77 73.9945615,77 L91.0054385,77 C92.1070044,77 93,77.8877296 93,79 C93,80.1045695 92.0976562,81 91.0054385,81 L73.9945615,81 C72.8929956,81 72,80.1122704 72,79 Z M99,79 C99,77.8954305 99.8867064,77 100.998101,77 L105.001899,77 C106.10542,77 107,77.8877296 107,79 C107,80.1045695 106.113294,81 105.001899,81 L100.998101,81 C99.8945804,81 99,80.1122704 99,79 Z M86,65 C86,63.8954305 86.9023438,63 87.9945615,63 L105.005439,63 C106.107004,63 107,63.8877296 107,65 C107,66.1045695 106.097656,67 105.005439,67 L87.9945615,67 C86.8929956,67 86,66.1122704 86,65 Z" id="Combined-Shape" fill="#FFCD4E"></path>
                        <g id="Group-3" filter="url(#filter-4)" transform="translate(85.000000, 89.000000) rotate(-30.000000) translate(-85.000000, -89.000000) translate(40.000000, 13.000000)">
                            <use id="Rectangle-2" stroke="#DEDFE4" mask="url(#mask-6)" stroke-width="4" fill="#FFFFFF" xlink:href="#path-5"></use>
                            <rect id="Rectangle-6" fill="#000000" opacity="0.05" x="42" y="88" width="6" height="4"></rect>
                            <use id="Combined-Shape" stroke="#DEDFE4" mask="url(#mask-8)" stroke-width="4" fill="#FFFFFF" xlink:href="#path-7"></use>
                            <rect id="Rectangle-3" fill="#DEDFE4" x="40" y="100" width="10" height="2"></rect>
                            <rect id="Combined-Shape" fill="#20B1A5" x="37" y="112" width="16" height="2"></rect>
                            <path d="M37,133 L53,133 L53,135 L37,135 L37,133 Z M37,139 L53,139 L53,141 L37,141 L37,139 Z" id="Combined-Shape" fill="#20B1A5"></path>
                        </g>
                    </g>
                </g>
            </g>
        </g>
    </g>
</svg>