<?xml version="1.0" encoding="UTF-8" standalone="no"?>
<svg width="152px" height="142px" viewBox="0 0 152 142" version="1.1" xmlns="http://www.w3.org/2000/svg" xmlns:xlink="http://www.w3.org/1999/xlink">
    <!-- Generator: sketchtool 39.1 (31720) - http://www.bohemiancoding.com/sketch -->
    <title>264DFB73-02C7-4F13-BE57-C512850A376F</title>
    <desc>Created with sketchtool.</desc>
    <defs>
        <rect id="path-1" x="0" y="0" width="10" height="142" rx="5"></rect>
        <mask id="mask-2" maskContentUnits="userSpaceOnUse" maskUnits="objectBoundingBox" x="0" y="0" width="10" height="142" fill="white">
            <use xlink:href="#path-1"></use>
        </mask>
        <rect id="path-3" x="2.40163445e-12" y="-1.81188398e-13" width="10" height="115" rx="5"></rect>
        <mask id="mask-4" maskContentUnits="userSpaceOnUse" maskUnits="objectBoundingBox" x="0" y="0" width="10" height="115" fill="white">
            <use xlink:href="#path-3"></use>
        </mask>
        <rect id="path-5" x="2.40163445e-12" y="-1.81188398e-13" width="10" height="115" rx="5"></rect>
        <mask id="mask-6" maskContentUnits="userSpaceOnUse" maskUnits="objectBoundingBox" x="0" y="0" width="10" height="115" fill="white">
            <use xlink:href="#path-5"></use>
        </mask>
        <rect id="path-7" x="3" y="9" width="146" height="98" rx="6"></rect>
        <mask id="mask-8" maskContentUnits="userSpaceOnUse" maskUnits="objectBoundingBox" x="0" y="0" width="146" height="98" fill="white">
            <use xlink:href="#path-7"></use>
        </mask>
        <rect id="path-9" x="0" y="97" width="152" height="10" rx="5"></rect>
        <mask id="mask-10" maskContentUnits="userSpaceOnUse" maskUnits="objectBoundingBox" x="0" y="0" width="152" height="10" fill="white">
            <use xlink:href="#path-9"></use>
        </mask>
        <filter x="-50%" y="-50%" width="200%" height="200%" filterUnits="objectBoundingBox" id="filter-11">
            <feOffset dx="3" dy="4" in="SourceAlpha" result="shadowOffsetOuter1"></feOffset>
            <feColorMatrix values="0 0 0 0 0   0 0 0 0 0   0 0 0 0 0  0 0 0 0.03 0" type="matrix" in="shadowOffsetOuter1" result="shadowMatrixOuter1"></feColorMatrix>
            <feMerge>
                <feMergeNode in="shadowMatrixOuter1"></feMergeNode>
                <feMergeNode in="SourceGraphic"></feMergeNode>
            </feMerge>
        </filter>
        <circle id="path-12" cx="7" cy="57" r="7"></circle>
        <mask id="mask-13" maskContentUnits="userSpaceOnUse" maskUnits="objectBoundingBox" x="0" y="0" width="14" height="14" fill="white">
            <use xlink:href="#path-12"></use>
        </mask>
        <circle id="path-14" cx="37" cy="27" r="7"></circle>
        <mask id="mask-15" maskContentUnits="userSpaceOnUse" maskUnits="objectBoundingBox" x="0" y="0" width="14" height="14" fill="white">
            <use xlink:href="#path-14"></use>
        </mask>
        <circle id="path-16" cx="71" cy="47" r="7"></circle>
        <mask id="mask-17" maskContentUnits="userSpaceOnUse" maskUnits="objectBoundingBox" x="0" y="0" width="14" height="14" fill="white">
            <use xlink:href="#path-16"></use>
        </mask>
        <circle id="path-18" cx="107" cy="7" r="7"></circle>
        <mask id="mask-19" maskContentUnits="userSpaceOnUse" maskUnits="objectBoundingBox" x="0" y="0" width="14" height="14" fill="white">
            <use xlink:href="#path-18"></use>
        </mask>
    </defs>
    <g id="Page-1" stroke="none" stroke-width="1" fill="none" fill-rule="evenodd">
        <g id="002a_Solutions" transform="translate(-364.000000, -2576.000000)">
            <g id="Content-discovery" transform="translate(0.000000, 2483.000000)">
                <g id="Group-2" transform="translate(354.000000, 79.000000)">
                    <g id="Group-4" transform="translate(10.000000, 14.000000)">
                        <g id="Group-7" transform="translate(71.000000, 0.000000)">
                            <use id="Rectangle-13" stroke="#DEDFE4" mask="url(#mask-2)" stroke-width="4" fill="#FFFFFF" xlink:href="#path-1"></use>
                            <rect id="Rectangle-15" fill="#000000" opacity="0.05" x="2" y="107" width="6" height="3"></rect>
                        </g>
                        <g id="Group-7" transform="translate(51.711724, 85.914828) rotate(-345.000000) translate(-51.711724, -85.914828) translate(46.711724, 28.414828)">
                            <use id="Rectangle-13" stroke="#DEDFE4" mask="url(#mask-4)" stroke-width="4" fill="#FFFFFF" xlink:href="#path-3"></use>
                            <polygon id="Rectangle-15" fill="#000000" opacity="0.05" points="1.74118095 76 7.74118095 76 7.65773944 81.7226662 2.05966323 83.2226662"></polygon>
                        </g>
                        <g id="Group-7" transform="translate(99.711724, 85.834830) scale(-1, 1) rotate(-345.000000) translate(-99.711724, -85.834830) translate(94.711724, 28.334830)">
                            <use id="Rectangle-13" stroke="#DEDFE4" mask="url(#mask-6)" stroke-width="4" fill="#FFFFFF" xlink:href="#path-5"></use>
                            <polygon id="Rectangle-15" fill="#000000" opacity="0.05" points="1.74118095 76 7.74118095 76 7.65773944 81.7226662 2.05966323 83.2226662"></polygon>
                        </g>
                        <use id="Rectangle-11" stroke="#DEDFE4" mask="url(#mask-8)" stroke-width="4" fill="#FFFFFF" xlink:href="#path-7"></use>
                        <g id="Group" opacity="0.100000001" transform="translate(56.000000, 33.000000)"></g>
                        <path d="M46,54.9989231 C46,66.8728502 52.9002978,77.1356462 62.9085898,81.9972865 L48.5977633,42.7899174 C46.9332457,46.5206235 46,50.6496105 46,54.9989231 Z M96.2525437,53.4859145 C96.2525437,49.7770998 94.9202939,47.2105181 93.7790718,45.2124047 C92.2586193,42.740097 90.8320917,40.6487689 90.8320917,38.1764612 C90.8320917,35.4192131 92.9231552,32.8522783 95.8701354,32.8522783 C96.0032544,32.8522783 96.1293114,32.8681671 96.2588995,32.8762881 C90.9214262,27.9860478 83.8103271,25 76.0000883,25 C65.5186411,25 56.2984703,30.377852 50.9341614,38.5214261 C51.6385977,38.5440236 52.3020743,38.557794 52.8649171,38.557794 C56.0022187,38.557794 60.860534,38.1764612 60.860534,38.1764612 C62.4770299,38.0818341 62.6680575,40.4573964 61.0526209,40.6487689 C61.0526209,40.6487689 59.4265912,40.8387292 57.6190677,40.9337093 L68.5433034,73.4289147 L75.1095678,53.7397833 L70.4359243,40.9337093 C68.8194283,40.8387292 67.289089,40.6487689 67.289089,40.6487689 C65.67224,40.5530826 65.8618552,38.0818341 67.4794104,38.1764612 C67.4794104,38.1764612 72.433063,38.557794 75.3807493,38.557794 C78.5173446,38.557794 83.3767192,38.1764612 83.3767192,38.1764612 C84.9939214,38.0818341 85.1845959,40.4573964 83.5680999,40.6487689 C83.5680999,40.6487689 81.9406579,40.8387292 80.1348998,40.9337093 L90.9768631,73.1814014 L93.9697463,63.183773 C95.2649204,59.0325416 96.2525437,56.0532024 96.2525437,53.4859145 Z M76.5268442,57.6231284 L67.5245367,83.7776165 C70.213047,84.5681759 73.0555092,85 76.0000177,85 C79.493598,85 82.8445256,84.3969292 85.9627596,83.2995381 C85.8829588,83.1706617 85.8084545,83.0343706 85.7477212,82.8860745 L76.5268442,57.6231284 Z M102.325632,40.6070695 C102.454514,41.56252 102.527253,42.5875285 102.527253,43.6919814 C102.527253,46.734876 101.957348,50.156985 100.245868,54.4367397 L91.0828993,80.9287779 C100.001875,75.7288812 106,66.0663313 106,54.9988525 C106,49.7830669 104.667397,44.8797625 102.325632,40.6070695 Z" id="Combined-Shape" fill="#DEDFE4" opacity="0.400000006"></path>
                        <use id="Rectangle-14" stroke="#DEDFE4" mask="url(#mask-10)" stroke-width="4" fill="#FDFDFD" xlink:href="#path-9"></use>
                        <rect id="Rectangle-16" fill="#20B1A5" x="103" y="93" width="16" height="4" rx="2"></rect>
                        <rect id="Rectangle-19" fill="#FFFFFF" opacity="0.5" x="105" y="94" width="6" height="1" rx="0.5"></rect>
                        <rect id="Rectangle-19" fill="#FFFFFF" opacity="0.5" x="112" y="94" width="3" height="1" rx="0.5"></rect>
                        <rect id="Rectangle-16" fill="#FFCD4E" x="83" y="93" width="13" height="4" rx="2"></rect>
                        <rect id="Rectangle-19" fill="#FFFFFF" opacity="0.5" x="85" y="94" width="4" height="1" rx="0.5"></rect>
                        <rect id="Rectangle-19" fill="#FFFFFF" opacity="0.5" x="90" y="94" width="1" height="1" rx="0.5"></rect>
                        <g id="Group-8" filter="url(#filter-11)" transform="translate(19.000000, 20.000000)">
                            <path d="M7,57 L37,27" id="Line" stroke="#20B1A5" stroke-width="3" stroke-linecap="square"></path>
                            <path d="M37,27 L71,47" id="Line" stroke="#20B1A5" stroke-width="3" stroke-linecap="square"></path>
                            <path d="M70.5,47.5 L107,7" id="Line" stroke="#20B1A5" stroke-width="3" stroke-linecap="square"></path>
                            <use id="Oval-3" stroke="#FFCD4E" mask="url(#mask-13)" stroke-width="4" fill="#FFFFFF" xlink:href="#path-12"></use>
                            <use id="Oval-3" stroke="#FFCD4E" mask="url(#mask-15)" stroke-width="4" fill="#FFFFFF" xlink:href="#path-14"></use>
                            <use id="Oval-3" stroke="#FFCD4E" mask="url(#mask-17)" stroke-width="4" fill="#FFFFFF" xlink:href="#path-16"></use>
                            <use id="Oval-3" stroke="#FFCD4E" mask="url(#mask-19)" stroke-width="4" fill="#FFFFFF" xlink:href="#path-18"></use>
                        </g>
                    </g>
                </g>
            </g>
        </g>
    </g>
</svg>