<svg width="350" height="62" viewBox="0 0 350 62" fill="none" xmlns="http://www.w3.org/2000/svg">
<path d="M78.9084 9.37989C79.5994 12.1 78.8305 14.9564 77.9206 17.6084C77.0106 20.2604 75.9401 22.9513 76.0228 25.7541C76.0812 27.7103 76.7041 29.5983 77.0496 31.5204C77.2442 32.6104 77.3464 33.7831 76.8647 34.7806C76.091 36.3864 73.9791 37.0044 72.2614 36.5275C70.5388 36.0555 69.1812 34.7417 68.1009 33.3257C67.0158 31.9048 66.135 30.3379 64.9283 29.0241C64.7239 28.8002 64.5146 28.591 64.2859 28.3866C65.1472 26.5375 65.7701 24.4403 66.0718 22.1873C66.8211 16.6206 65.4295 11.4674 62.7142 8.35315H62.7191C62.3639 7.62811 61.9162 6.96633 61.3955 6.36294C63.7215 4.16836 66.7725 2.74261 69.95 2.78154C73.9353 2.83507 77.9206 5.51625 78.9084 9.37989Z" fill="#996442"/>
<path d="M66.2762 35.1794C67.4003 37.6465 66.9623 40.5759 65.8918 43.0673C63.9503 47.6122 60.0672 51.1595 55.6099 53.286C54.3544 53.8845 53.0552 54.3808 51.7268 54.7798C48.3449 55.8066 44.7635 56.2299 41.2161 56.264C37.445 56.3029 33.6397 55.9088 30.0242 54.8626C28.7153 54.4879 27.4306 54.0256 26.1849 53.466C21.4989 51.3736 17.3482 47.8652 15.0222 43.2862C13.9614 41.1987 13.2851 38.7998 13.796 36.5176C14.2923 34.2841 15.8981 32.4447 17.9029 31.3012C17.9224 31.2915 17.9419 31.2769 17.9613 31.2671C18.4966 30.9606 18.9394 30.7319 19.6547 30.508C21.898 29.7927 24.3261 30.1333 26.1849 30.581C26.1022 30.654 26.0244 30.7319 25.9465 30.8097C25.0901 31.6759 24.404 32.6734 23.9806 33.778C23.1339 36.0066 23.5427 38.7268 25.3772 40.3618C26.2579 41.1452 27.3868 41.6318 28.579 41.8897H28.5888C29.8977 44.1232 31.3137 46.2983 33.1677 48.0939C33.6056 50.016 34.6129 51.8407 36.2576 52.9064C37.299 53.5828 38.5447 53.8942 39.7855 53.8699H40.5203C41.7611 53.8942 43.0068 53.5828 44.053 52.9064C45.6978 51.8407 46.705 50.016 47.143 48.0939C48.9921 46.3032 50.4032 44.1329 51.717 41.9043C51.7706 41.8946 51.8192 41.88 51.8728 41.8702C53.026 41.6075 54.116 41.1257 54.9676 40.3618C56.7972 38.7268 57.2108 36.0066 56.3641 33.778C56.0624 32.9946 55.6245 32.2744 55.0892 31.6077C55.0746 31.5883 55.0551 31.5688 55.0406 31.5494C54.8508 31.3207 54.6464 31.0968 54.4372 30.8827C55.9554 30.6832 57.6195 30.5275 58.9188 30.5421C59.2253 30.5616 59.5319 30.5956 59.8336 30.6443C60.7387 30.7903 61.634 31.0676 62.4613 31.4666C62.6121 31.5396 62.7581 31.6126 62.9041 31.6953C64.3639 32.4885 65.5901 33.671 66.2762 35.1794Z" fill="#FFCE59"/>
<path d="M64.2863 28.3865C63.7608 29.5105 63.1476 30.5421 62.4615 31.4667C61.6343 31.0677 60.739 30.7903 59.8339 30.6443C59.5322 30.5957 59.2256 30.5616 58.9191 30.5421C57.6198 30.5275 55.9556 30.6832 54.4374 30.8827C54.3012 30.7465 54.1649 30.6151 54.0238 30.4886C57.7463 30.2404 60.6757 27.35 60.6757 23.8221C60.6757 20.2942 57.4641 17.1411 53.4983 17.1411C49.5325 17.1411 46.3209 20.1337 46.3209 23.8221C46.3209 25.097 46.7053 26.2843 47.3671 27.3013C46.9729 27.2284 46.5593 27.1554 46.136 27.0921C45.7856 27.0386 45.4255 26.9899 45.0557 26.951C44.501 24.6299 44.355 22.0168 44.72 19.3113C45.8635 10.8152 51.5713 4.56721 57.469 5.36037C59.503 5.63287 61.2937 6.70827 62.7146 8.35299C65.4298 11.4673 66.8215 16.6204 66.0721 22.1871C65.7705 24.4401 65.1476 26.5374 64.2863 28.3865Z" fill="#D88A4E"/>
<path d="M62.7193 8.34771H62.7145C61.2936 6.70785 59.5029 5.63246 57.4689 5.35996C51.5712 4.56679 45.8634 10.8148 44.7199 19.3109C44.3549 22.0164 44.5009 24.6295 45.0556 26.9506C44.8415 26.9214 44.6225 26.897 44.4036 26.8776C41.6883 26.6002 38.6519 26.5808 35.8783 26.8581C35.7566 26.8679 35.635 26.8825 35.5133 26.897C36.0583 24.5857 36.1945 21.9969 35.8345 19.3109C34.6909 10.8148 28.9831 4.56679 23.0854 5.35996C21.0514 5.63246 19.2656 6.70785 17.8398 8.35257C18.1367 7.74432 18.5016 7.17986 18.9201 6.65919C20.8325 4.2505 23.8202 2.7323 26.1413 2.03159C30.7154 0.649633 35.489 0.761552 40.282 0.907533C45.0751 0.761552 49.8487 0.649633 54.4276 2.03159C56.6514 2.7031 59.4834 4.12885 61.4006 6.36236C61.9213 6.96575 62.369 7.62753 62.7242 8.34771H62.7193Z" fill="#FFCE59"/>
<path d="M60.6751 23.8217C60.6751 27.3496 57.7458 30.24 54.0233 30.4882C53.235 29.7631 52.3396 29.1354 51.4005 28.6001C50.6073 28.1476 49.4735 27.7583 48.1256 27.4566C47.8775 27.4031 47.6244 27.3496 47.3665 27.3009C46.7047 26.2839 46.3203 25.0966 46.3203 23.8217C46.3203 20.1332 49.5368 17.1406 53.4977 17.1406C57.4587 17.1406 60.6751 20.1332 60.6751 23.8217ZM57.6825 23.7974C57.6825 21.1162 55.5123 18.9411 52.8311 18.9411C50.1499 18.9411 47.9748 21.1162 47.9748 23.7974C47.9748 26.4786 50.145 28.6488 52.8311 28.6488C55.5171 28.6488 57.6825 26.4786 57.6825 23.7974Z" fill="white"/>
<path d="M40.856 36.8774C40.9192 36.8482 40.9873 36.8093 41.0506 36.7752C41.9557 36.3421 42.7781 35.7387 43.4739 35.0137C44.0919 34.3616 44.632 33.4858 44.4276 32.605C44.1989 31.6123 43.1333 31.0722 42.1455 30.8289C40.8803 30.5175 39.5519 30.4737 38.277 30.7073C37.5081 30.8435 36.7247 31.1063 36.2235 31.7048C35.6347 32.4006 35.5812 33.4468 35.9461 34.2887C36.3062 35.1207 37.0313 35.7631 37.8342 36.1961C38.3646 36.4784 38.8074 36.7022 39.2988 36.892C39.5519 36.9893 39.8244 37.0769 40.1212 37.1596C40.3596 37.1012 40.6078 37.0039 40.856 36.8774ZM33.1628 42.0013C32.0825 42.1132 31.0022 42.1716 29.922 42.0889C29.4792 42.05 29.0266 41.9867 28.5887 41.8894H28.5789C27.3868 41.6315 26.2579 41.1449 25.3771 40.3615C23.5426 38.7265 23.1339 36.0064 23.9805 33.7777C24.4039 32.6731 25.09 31.6756 25.9464 30.8094C26.0243 30.7316 26.1021 30.6537 26.1849 30.5807C26.2189 30.5467 26.2481 30.5126 26.2822 30.4883H26.287C26.5206 30.2596 26.7688 30.0503 27.0218 29.846C27.6203 29.3788 28.2675 28.9603 28.939 28.6003C29.8003 28.1331 30.8854 27.7536 32.1068 27.4665C32.3939 27.3983 32.6859 27.3351 32.9827 27.2767C33.3379 27.2037 33.7029 27.1404 34.0727 27.0821C34.5398 27.0139 35.0216 26.9458 35.5131 26.8971C35.6347 26.8825 35.7564 26.8679 35.878 26.8582C38.6516 26.5809 41.6881 26.6003 44.4033 26.8777C44.6223 26.8971 44.8413 26.9215 45.0554 26.9507C45.4252 26.9896 45.7853 27.0383 46.1356 27.0918C46.559 27.155 46.9726 27.228 47.3667 27.301C47.6246 27.3497 47.8777 27.4032 48.1258 27.4567C49.4737 27.7584 50.6075 28.1477 51.4007 28.6003C52.3398 29.1355 53.2352 29.7632 54.0235 30.4883C54.1646 30.6148 54.3008 30.7462 54.4371 30.8824C54.6463 31.0965 54.8507 31.3204 55.0405 31.5491C55.0551 31.5685 55.0745 31.588 55.0891 31.6075C55.6244 32.2741 56.0623 32.9943 56.364 33.7777C57.2107 36.0064 56.7971 38.7265 54.9675 40.3615C54.1159 41.1254 53.0259 41.6072 51.8727 41.8699C51.8191 41.8797 51.7705 41.8943 51.717 41.904C51.2888 41.9916 50.8508 42.05 50.4177 42.0889C49.3277 42.1765 48.2377 42.1084 47.1478 41.9965C47.0602 41.9867 46.9677 41.977 46.8801 41.9673C46.3984 41.9137 45.9167 41.8505 45.4349 41.7872C43.6442 41.5537 41.9411 41.3687 40.1553 41.1352C38.3646 41.3687 36.6955 41.5537 34.9097 41.7872C34.3306 41.8651 33.7467 41.9429 33.1628 42.0013Z" fill="#FFF2BD"/>
<path d="M52.8309 18.9409C55.5121 18.9409 57.6823 21.116 57.6823 23.7972C57.6823 26.4784 55.5121 28.6487 52.8309 28.6487C50.1497 28.6487 47.9746 26.4784 47.9746 23.7972C47.9746 21.116 50.1449 18.9409 52.8309 18.9409ZM55.8041 21.9627C55.8041 21.0625 55.079 20.3375 54.1788 20.3375C53.2786 20.3375 52.5536 21.0625 52.5536 21.9627C52.5536 22.8629 53.2835 23.588 54.1788 23.588C55.0742 23.588 55.8041 22.8581 55.8041 21.9627Z" fill="#1C1C1E"/>
<path d="M54.1799 23.5879C55.0775 23.5879 55.8052 22.8603 55.8052 21.9627C55.8052 21.0651 55.0775 20.3374 54.1799 20.3374C53.2823 20.3374 52.5547 21.0651 52.5547 21.9627C52.5547 22.8603 53.2823 23.5879 54.1799 23.5879Z" fill="white"/>
<path d="M51.727 54.7798C51.8827 55.5973 52.0335 56.4148 52.1844 57.2323C51.4107 57.7529 50.6029 58.2152 49.7659 58.6191C48.3888 59.2955 46.9339 59.8161 45.44 60.1762C43.7515 60.5898 42.0143 60.8039 40.2772 60.8039H40.248C38.6568 60.8039 37.0656 60.6288 35.5182 60.2735C34.8856 60.1324 34.2579 59.9573 33.6447 59.7529C32.9538 59.5242 32.0779 58.9257 31.3674 58.3807C30.6181 57.8016 30.0439 57.2761 30.0439 57.2761L30.0244 54.8625C33.6399 55.9087 37.4451 56.3029 41.2163 56.2639C44.7636 56.2299 48.3451 55.8065 51.727 54.7798Z" fill="#ED1C24"/>
<path d="M50.4174 42.0882C50.8505 42.0493 51.2885 41.9909 51.7167 41.9033C50.4028 44.132 48.9917 46.3022 47.1426 48.0929C47.2107 47.7912 47.2691 47.4895 47.308 47.183C47.5416 45.4604 47.3908 43.7232 47.1474 41.9958C48.2374 42.1077 49.3274 42.1758 50.4174 42.0882Z" fill="#93272D"/>
<path d="M40.1553 41.1348C41.9412 41.3683 43.6443 41.5532 45.435 41.7868C45.9167 41.8501 46.3984 41.9133 46.8802 41.9669C46.9678 41.9766 47.0602 41.9863 47.1478 41.9961C47.3911 43.7235 47.542 45.4607 47.3084 47.1833C47.2695 47.4898 47.2111 47.7915 47.1429 48.0932C46.705 50.0153 45.6977 51.8401 44.053 52.9057C43.0068 53.5821 41.7611 53.8935 40.5203 53.8692H39.7855C38.5447 53.8935 37.2989 53.5821 36.2576 52.9057C34.6129 51.8401 33.6056 50.0153 33.1677 48.0932C33.0996 47.7915 33.0412 47.4898 33.0022 47.1833C32.7687 45.4655 32.9195 43.7235 33.1628 42.0009C33.7467 41.9425 34.3307 41.8647 34.9097 41.7868C36.6956 41.5532 38.3646 41.3683 40.1553 41.1348Z" fill="#DD766D"/>
<path d="M44.4271 32.6051C44.6315 33.4858 44.0914 34.3617 43.4734 35.0138C42.7776 35.7388 41.9552 36.3422 41.0501 36.7753C41.8676 36.3227 42.6754 35.6026 43.1133 34.9311C43.3031 34.6488 43.4588 34.3228 43.4491 33.987C43.4393 33.6464 43.2106 33.2961 42.8797 33.2425C42.5537 33.1841 42.2569 33.4031 42.0233 33.627C41.089 34.5272 40.9723 35.5782 40.8555 36.8677C40.617 36.9748 40.3737 37.0721 40.1207 37.1597C39.8239 37.077 39.5514 36.9894 39.2983 36.8921C38.8069 36.7023 38.3641 36.4785 37.8337 36.1962C37.0308 35.7632 36.3057 35.1208 35.9456 34.2887C35.5807 33.4469 35.6342 32.4007 36.223 31.7049C36.7242 31.1063 37.5076 30.8436 38.2765 30.7073C39.5514 30.4738 40.8798 30.5176 42.145 30.829C43.1328 31.0723 44.1984 31.6124 44.4271 32.6051ZM39.1378 36.7996C39.0648 35.5393 38.875 34.2985 37.9407 33.4518C37.7169 33.2474 37.4395 33.0576 37.1427 33.0966C36.7875 33.1404 36.5393 33.5248 36.5441 33.8849C36.549 34.2449 36.7339 34.5807 36.948 34.8678C37.4833 35.5928 38.2667 36.3179 39.1378 36.7996Z" fill="#603813"/>
<path d="M43.4491 33.9875C43.4588 34.3232 43.3031 34.6492 43.1133 34.9315C42.6754 35.603 41.8676 36.3232 41.0501 36.7757C40.9868 36.8098 40.9236 36.839 40.8555 36.8682C40.9723 35.5787 41.089 34.5276 42.0233 33.6274C42.2569 33.4035 42.5537 33.1846 42.8797 33.243C43.2106 33.2965 43.4393 33.6468 43.4491 33.9875Z" fill="#1C1C1E"/>
<path d="M37.9406 33.4516C38.8748 34.2983 39.0646 35.5392 39.1376 36.7995C38.2666 36.3177 37.4832 35.5927 36.9479 34.8677C36.7338 34.5806 36.5489 34.2448 36.544 33.8847C36.5391 33.5246 36.7873 33.1402 37.1425 33.0964C37.4394 33.0575 37.7167 33.2473 37.9406 33.4516Z" fill="#1C1C1E"/>
<path d="M35.8344 19.3113C36.1945 21.9974 36.0582 24.5861 35.5132 26.8975C35.0217 26.9461 34.54 27.0142 34.0729 27.0824C33.703 27.1408 33.3381 27.204 32.9829 27.277C33.6398 26.2697 34.0096 25.0873 34.0096 23.8221C34.0096 20.1337 30.7931 17.1411 26.8322 17.1411C22.8712 17.1411 19.6548 20.1337 19.6548 23.8221C19.6548 27.5106 22.5695 30.2258 26.2823 30.4886C26.2483 30.5129 26.2191 30.547 26.185 30.5811C24.3262 30.1334 21.898 29.7928 19.6548 30.5081C18.9395 30.7319 18.4967 30.9606 17.9614 31.2672C17.2704 30.2988 16.6476 29.2234 16.122 28.0458C15.3337 26.2843 14.7644 24.3039 14.4822 22.1871C13.7328 16.6204 15.1294 11.4673 17.8397 8.35299C19.2655 6.70827 21.0513 5.63287 23.0853 5.36037C28.983 4.56721 34.6908 10.8152 35.8344 19.3113Z" fill="#D88A4E"/>
<path d="M34.0091 23.8217C34.0091 25.0869 33.6393 26.2693 32.9824 27.2766C32.6856 27.335 32.3936 27.3982 32.1065 27.4664C30.8851 27.7535 29.8 28.133 28.9387 28.6001C28.2672 28.9602 27.62 29.3787 27.0215 29.8459C26.7685 30.0502 26.5203 30.2595 26.2867 30.4882H26.2818C22.5691 30.2254 19.6543 27.3447 19.6543 23.8217C19.6543 20.2987 22.8659 17.1406 26.8317 17.1406C30.7975 17.1406 34.0091 20.1332 34.0091 23.8217ZM32.3547 23.7974C32.3547 21.1162 30.1844 18.9411 27.5032 18.9411C24.822 18.9411 22.6469 21.1162 22.6469 23.7974C22.6469 26.4786 24.8172 28.6488 27.5032 28.6488C30.1893 28.6488 32.3547 26.4786 32.3547 23.7974Z" fill="white"/>
<path d="M33.0024 47.1834C33.0413 47.49 33.0997 47.7917 33.1678 48.0934C31.3138 46.2978 29.8978 44.1227 28.5889 41.8892C29.0268 41.9865 29.4793 42.0497 29.9222 42.0887C31.0024 42.1714 32.0827 42.113 33.1629 42.0011C32.9196 43.7237 32.7688 45.4657 33.0024 47.1834Z" fill="#93272D"/>
<path d="M27.5028 18.9409C30.184 18.9409 32.3542 21.116 32.3542 23.7972C32.3542 26.4784 30.184 28.6487 27.5028 28.6487C24.8216 28.6487 22.6465 26.4784 22.6465 23.7972C22.6465 21.116 24.8167 18.9409 27.5028 18.9409ZM30.6949 21.9627C30.6949 21.0625 29.965 20.3375 29.0697 20.3375C28.1743 20.3375 27.4444 21.0625 27.4444 21.9627C27.4444 22.8629 28.1694 23.588 29.0697 23.588C29.9699 23.588 30.6949 22.8581 30.6949 21.9627Z" fill="#1C1C1E"/>
<path d="M29.0706 23.5879C29.9682 23.5879 30.6958 22.8603 30.6958 21.9627C30.6958 21.0651 29.9682 20.3374 29.0706 20.3374C28.173 20.3374 27.4453 21.0651 27.4453 21.9627C27.4453 22.8603 28.173 23.5879 29.0706 23.5879Z" fill="white"/>
<path d="M18.9149 6.65989C18.4964 7.18056 18.1315 7.74502 17.8346 8.34841C15.1243 11.4675 13.7277 16.6207 14.4771 22.1874C14.7593 24.3041 15.3286 26.2846 16.1169 28.0461C15.7423 28.343 15.3919 28.6738 15.0707 29.0242C13.8639 30.338 12.9832 31.9049 11.8981 33.3258C10.8178 34.7418 9.4602 36.0556 7.73762 36.5276C6.01991 37.0045 3.90803 36.3865 3.13433 34.7807C2.6526 33.7832 2.7548 32.6105 2.94944 31.5205C3.29493 29.5984 3.91777 27.7104 3.97616 25.7542C4.05889 22.9514 2.98836 20.2605 2.07841 17.6085C1.16846 14.9565 0.399629 12.1001 1.09061 9.38001C2.07841 5.51637 6.05883 2.83518 10.049 2.78166C13.3676 2.73786 16.55 4.30473 18.91 6.65989H18.9149Z" fill="#996442"/>
<path d="M26.2832 30.4883C26.2491 30.5126 26.2199 30.5467 26.1858 30.5807C26.1031 30.6537 26.0252 30.7316 25.9474 30.8094C25.091 31.6756 24.4049 32.6731 23.9815 33.7777C23.1348 36.0064 23.5436 38.7265 25.3781 40.3615C26.2588 41.1449 27.3877 41.6315 28.5799 41.8894H28.5897C29.0276 41.9867 29.4801 42.05 29.923 42.0889C31.0032 42.1716 32.0835 42.1133 33.1637 42.0013C33.7477 41.9429 34.3316 41.8651 34.9106 41.7872C36.6965 41.5537 38.3655 41.3687 40.1562 41.1352" stroke="#1C1C1E" stroke-width="0.486604" stroke-miterlimit="10"/>
<path d="M40.1553 41.1352C41.9412 41.3687 43.6443 41.5537 45.435 41.7872C45.9167 41.8505 46.3985 41.9137 46.8802 41.9673C46.9678 41.977 47.0602 41.9867 47.1478 41.9965C48.2378 42.1084 49.3278 42.1765 50.4178 42.0889C50.8509 42.05 51.2888 41.9916 51.717 41.904C51.7706 41.8943 51.8192 41.8797 51.8727 41.8699C53.026 41.6072 54.116 41.1254 54.9675 40.3615C56.7972 38.7265 57.2108 36.0064 56.3641 33.7777C56.0624 32.9943 55.6245 32.2741 55.0892 31.6075C55.0746 31.588 55.0551 31.5685 55.0405 31.5491C54.8508 31.3204 54.6464 31.0965 54.4372 30.8824C54.3009 30.7462 54.1646 30.6148 54.0235 30.4883C53.2352 29.7632 52.3399 29.1355 51.4007 28.6003C50.6076 28.1477 49.4738 27.7584 48.1259 27.4567C47.8777 27.4032 47.6247 27.3497 47.3668 27.301C46.9726 27.228 46.559 27.155 46.1357 27.0918C45.7853 27.0383 45.4252 26.9896 45.0554 26.9507C44.8413 26.9215 44.6224 26.8971 44.4034 26.8777C41.6881 26.6003 38.6517 26.5809 35.8781 26.8582C35.7564 26.8679 35.6348 26.8825 35.5131 26.8971C35.0216 26.9458 34.5399 27.0139 34.0728 27.0821C33.703 27.1404 33.338 27.2037 32.9828 27.2767C32.686 27.3351 32.394 27.3983 32.1069 27.4665C30.8855 27.7536 29.8004 28.1331 28.9391 28.6003C28.2676 28.9603 27.6204 29.3788 27.0219 29.846C26.7689 30.0503 26.5207 30.2596 26.2871 30.4883" stroke="#1C1C1E" stroke-width="0.486604" stroke-miterlimit="10"/>
<path d="M40.1226 37.1597C40.3757 37.0721 40.619 36.9748 40.8574 36.8677C40.9255 36.8385 40.9888 36.8093 41.0521 36.7753C41.9571 36.3422 42.7795 35.7388 43.4754 35.0138C44.0933 34.3617 44.6335 33.4858 44.4291 32.6051C44.2004 31.6124 43.1347 31.0723 42.1469 30.829C40.8817 30.5176 39.5533 30.4738 38.2784 30.7073C37.5096 30.8436 36.7261 31.1063 36.2249 31.7049C35.6362 32.4007 35.5826 33.4469 35.9476 34.2887C36.3077 35.1208 37.0327 35.7632 37.8356 36.1962C38.366 36.4785 38.8088 36.7023 39.3003 36.8921C39.5533 36.9894 39.8258 37.077 40.1226 37.1597Z" stroke="#1C1C1E" stroke-width="0.486604" stroke-miterlimit="10"/>
<path d="M40.8568 36.8823V36.8677C40.9736 35.5782 41.0904 34.5271 42.0247 33.6269C42.2583 33.4031 42.5551 33.1841 42.8811 33.2425C43.212 33.296 43.4407 33.6464 43.4504 33.987C43.4602 34.3227 43.3045 34.6488 43.1147 34.931C42.6767 35.6025 41.869 36.3227 41.0515 36.7752C40.9882 36.8093 40.9201 36.8482 40.8568 36.8774C40.6087 37.0039 40.3605 37.1012 40.1221 37.1596" stroke="#1C1C1E" stroke-width="0.486604" stroke-miterlimit="10"/>
<path d="M39.1386 36.7995C39.0656 35.5392 38.8758 34.2983 37.9415 33.4516C37.7177 33.2473 37.4403 33.0575 37.1435 33.0964C36.7883 33.1402 36.5401 33.5246 36.545 33.8847C36.5499 34.2448 36.7348 34.5806 36.9489 34.8677C37.4841 35.5927 38.2676 36.3177 39.1386 36.7995Z" stroke="#1C1C1E" stroke-width="0.486604" stroke-miterlimit="10"/>
<path d="M26.1859 30.581C24.3271 30.1333 21.8989 29.7927 19.6557 30.508C18.9404 30.7319 18.4976 30.9606 17.9623 31.2671C17.9428 31.2769 17.9234 31.2915 17.9039 31.3012C15.8991 32.4447 14.2933 34.2841 13.797 36.5176C13.286 38.7998 13.9624 41.1987 15.0232 43.2862C17.3492 47.8652 21.4999 51.3736 26.1859 53.466C27.4316 54.0256 28.7163 54.4879 30.0252 54.8626C33.6407 55.9088 37.4459 56.3029 41.2171 56.264C44.7644 56.2299 48.3459 55.8066 51.7278 54.7798C53.0562 54.3808 54.3554 53.8845 55.6109 53.286C60.0682 51.1595 63.9512 47.6122 65.8928 43.0673C66.9633 40.5759 67.4013 37.6465 66.2772 35.1794C65.5911 33.671 64.3649 32.4885 62.905 31.6953C62.7591 31.6126 62.6131 31.5396 62.4622 31.4666C61.635 31.0676 60.7397 30.7903 59.8346 30.6443C59.5329 30.5956 59.2263 30.5616 58.9198 30.5421C57.6205 30.5275 55.9563 30.6832 54.4381 30.8827" stroke="#1C1C1E" stroke-width="0.486604" stroke-miterlimit="10"/>
<path d="M47.1488 41.9917C47.3921 43.724 47.5429 45.4612 47.3094 47.1838C47.2704 47.4903 47.212 47.792 47.1439 48.0937C46.706 50.0158 45.6987 51.8406 44.054 52.9062C43.0078 53.5826 41.7621 53.894 40.5212 53.8697H39.7865C38.5456 53.894 37.2999 53.5826 36.2586 52.9062C34.6139 51.8406 33.6066 50.0158 33.1687 48.0937C33.1005 47.792 33.0421 47.4903 33.0032 47.1838C32.7696 45.4661 32.9205 43.724 33.1638 42.0014V41.9917" stroke="#1C1C1E" stroke-width="0.486604" stroke-miterlimit="10"/>
<path d="M28.5801 41.8745C28.5801 41.8745 28.585 41.8842 28.5898 41.8891C29.8988 44.1226 31.3148 46.2977 33.1687 48.0933" stroke="#1C1C1E" stroke-width="0.486604" stroke-miterlimit="10"/>
<path d="M51.7322 41.8745L51.7176 41.9037C50.4038 44.1324 48.9926 46.3026 47.1436 48.0933" stroke="#1C1C1E" stroke-width="0.486604" stroke-miterlimit="10"/>
<path d="M40.0391 48.181C40.078 45.8307 40.1169 43.4853 40.1558 41.135V41.062" stroke="#1C1C1E" stroke-width="0.486604" stroke-miterlimit="10"/>
<path d="M17.8359 8.34771C18.1328 7.74432 18.4977 7.17986 18.9162 6.65919C20.8286 4.2505 23.8163 2.7323 26.1374 2.03159C30.7115 0.649633 35.4851 0.761552 40.2781 0.907533" stroke="#1C1C1E" stroke-width="0.486604" stroke-miterlimit="10"/>
<path d="M20.7453 20.2109C20.3658 20.5661 19.7964 20.6975 19.2952 20.5564C18.7989 20.4153 18.3902 19.9968 18.2539 19.4956" stroke="#1C1C1E" stroke-width="0.486604" stroke-miterlimit="10"/>
<path d="M19.7331 22.712C19.7331 22.712 19.7185 22.7218 19.7136 22.7266C18.9399 23.3349 17.6553 23.1451 17.1006 22.3228" stroke="#1C1C1E" stroke-width="0.486604" stroke-miterlimit="10"/>
<path d="M19.8064 25.5347C19.4999 25.8996 18.9938 26.0797 18.5267 25.9969C18.0547 25.9094 17.6459 25.559 17.4854 25.1113" stroke="#1C1C1E" stroke-width="0.486604" stroke-miterlimit="10"/>
<path d="M40.2773 60.8035C42.0145 60.8035 43.7517 60.5893 45.4402 60.1757C46.9341 59.8156 48.389 59.295 49.7661 58.6186C50.6031 58.2147 51.4108 57.7524 52.1845 57.2318C52.0337 56.4143 51.8828 55.5968 51.7271 54.7793" stroke="#1C1C1E" stroke-width="0.486604" stroke-miterlimit="10"/>
<path d="M30.0244 54.8623L30.0439 57.2759C30.0439 57.2759 30.6181 57.8014 31.3674 58.3804C32.0779 58.9254 32.9538 59.524 33.6447 59.7527C34.2579 59.957 34.8856 60.1322 35.5182 60.2733C37.0656 60.6286 38.6568 60.8037 40.248 60.8037" stroke="#1C1C1E" stroke-width="0.486604" stroke-miterlimit="10"/>
<path d="M27.5038 18.9409C30.185 18.9409 32.3552 21.116 32.3552 23.7972C32.3552 26.4784 30.185 28.6487 27.5038 28.6487C24.8226 28.6487 22.6475 26.4784 22.6475 23.7972C22.6475 21.116 24.8177 18.9409 27.5038 18.9409Z" stroke="#1C1C1E" stroke-width="0.486604" stroke-miterlimit="10"/>
<path d="M26.2887 30.4882H26.2838C22.571 30.2254 19.6562 27.3447 19.6562 23.8217C19.6562 20.2987 22.8678 17.1406 26.8337 17.1406C30.7995 17.1406 34.0111 20.1332 34.0111 23.8217C34.0111 25.0869 33.6413 26.2693 32.9843 27.2766" stroke="#1C1C1E" stroke-width="0.486604" stroke-miterlimit="10"/>
<path d="M59.5869 20.2109C59.9665 20.5661 60.5358 20.6975 61.037 20.5564C61.5333 20.4153 61.9421 19.9968 62.0783 19.4956" stroke="#1C1C1E" stroke-width="0.486604" stroke-miterlimit="10"/>
<path d="M60.5977 22.712C60.5977 22.712 60.6122 22.7218 60.6171 22.7266C61.3908 23.3349 62.6754 23.1451 63.2302 22.3228" stroke="#1C1C1E" stroke-width="0.486604" stroke-miterlimit="10"/>
<path d="M60.5254 25.5347C60.832 25.8996 61.338 26.0797 61.8052 25.9969C62.2772 25.9094 62.6859 25.559 62.8465 25.1113" stroke="#1C1C1E" stroke-width="0.486604" stroke-miterlimit="10"/>
<path d="M29.0706 23.5879C29.9682 23.5879 30.6958 22.8603 30.6958 21.9627C30.6958 21.0651 29.9682 20.3374 29.0706 20.3374C28.173 20.3374 27.4453 21.0651 27.4453 21.9627C27.4453 22.8603 28.173 23.5879 29.0706 23.5879Z" stroke="#1C1C1E" stroke-width="0.486604" stroke-miterlimit="10"/>
<path d="M54.1799 23.5879C55.0775 23.5879 55.8052 22.8603 55.8052 21.9627C55.8052 21.0651 55.0775 20.3374 54.1799 20.3374C53.2823 20.3374 52.5547 21.0651 52.5547 21.9627C52.5547 22.8603 53.2823 23.5879 54.1799 23.5879Z" stroke="#1C1C1E" stroke-width="0.486604" stroke-miterlimit="10"/>
<path d="M52.8319 18.9409C50.1458 18.9409 47.9756 21.116 47.9756 23.7972C47.9756 26.4784 50.1458 28.6487 52.8319 28.6487C55.5179 28.6487 57.6833 26.4784 57.6833 23.7972C57.6833 21.116 55.5131 18.9409 52.8319 18.9409Z" stroke="#1C1C1E" stroke-width="0.486604" stroke-miterlimit="10"/>
<path d="M54.0242 30.4882C57.7468 30.24 60.6761 27.3496 60.6761 23.8217C60.6761 20.2938 57.4645 17.1406 53.4987 17.1406C49.5329 17.1406 46.3213 20.1332 46.3213 23.8217C46.3213 25.0966 46.7057 26.2839 47.3675 27.3009" stroke="#1C1C1E" stroke-width="0.486604" stroke-miterlimit="10"/>
<path d="M17.9624 31.2672C17.2714 30.2988 16.6485 29.2234 16.123 28.0458C15.3347 26.2843 14.7654 24.3039 14.4832 22.1871C13.7338 16.6204 15.1303 11.4673 17.8407 8.35299C19.2665 6.70827 21.0523 5.63287 23.0863 5.36037C28.984 4.56721 34.6918 10.8152 35.8353 19.3113C36.1954 21.9974 36.0592 24.5861 35.5142 26.8975" stroke="#1C1C1E" stroke-width="0.486604" stroke-miterlimit="10"/>
<path d="M62.7195 8.34771C62.3643 7.62753 61.9166 6.96575 61.396 6.36236C59.4787 4.12885 56.6467 2.7031 54.4229 2.03159C49.844 0.649633 45.0704 0.761552 40.2773 0.907533" stroke="#1C1C1E" stroke-width="0.486604" stroke-miterlimit="10"/>
<path d="M62.7155 8.35299C61.2947 6.70827 59.504 5.63287 57.47 5.36037C51.5723 4.56721 45.8645 10.8152 44.7209 19.3113C44.356 22.0168 44.502 24.6299 45.0567 26.951" stroke="#1C1C1E" stroke-width="0.486604" stroke-miterlimit="10"/>
<path d="M64.2876 28.3865C65.1488 26.5374 65.7717 24.4402 66.0734 22.1872C66.8228 16.6204 65.4311 11.4673 62.7158 8.35303" stroke="#1C1C1E" stroke-width="0.486604" stroke-miterlimit="10"/>
<path d="M62.4619 31.4659C63.148 30.5414 63.7611 29.5098 64.2867 28.3857" stroke="#1C1C1E" stroke-width="0.486604" stroke-miterlimit="10"/>
<path d="M61.3965 6.36246C63.7225 4.16787 66.7735 2.74212 69.951 2.78105C73.9363 2.83458 77.9215 5.51576 78.9094 9.3794C79.6003 12.0995 78.8315 14.9559 77.9215 17.6079C77.0116 20.2599 75.9411 22.9508 76.0238 25.7536C76.0822 27.7098 76.7051 29.5978 77.0505 31.5199C77.2452 32.6099 77.3474 33.7826 76.8656 34.7801C76.0919 36.3859 73.9801 37.0039 72.2624 36.527C70.5398 36.055 69.1821 34.7412 68.1019 33.3252C67.0168 31.9043 66.136 30.3374 64.9292 29.0236C64.7249 28.7998 64.5156 28.5905 64.2869 28.3861H64.282" stroke="#1C1C1E" stroke-width="0.486604" stroke-miterlimit="10"/>
<path d="M18.9159 6.6594C16.5559 4.30424 13.3735 2.73737 10.0548 2.78117C6.06468 2.8347 2.08427 5.51588 1.09647 9.37952C0.405489 12.0996 1.17432 14.956 2.08427 17.608C2.99422 20.26 4.06475 22.9509 3.98202 25.7537C3.92363 27.7099 3.30077 29.5979 2.95528 31.52C2.76064 32.61 2.65846 33.7827 3.14019 34.7802C3.91389 36.386 6.02575 37.004 7.74346 36.5272C9.46604 36.0551 10.8237 34.7413 11.9039 33.3253C12.9891 31.9044 13.8698 30.3375 15.0766 29.0237C15.3977 28.6734 15.7481 28.3425 16.1228 28.0456" stroke="#1C1C1E" stroke-width="0.486604" stroke-miterlimit="10"/>
<path d="M20.877 13.9877C22.293 9.72991 29.2903 9.17518 31.2124 13.3016C28.3171 10.5085 23.4122 10.927 20.877 13.9877Z" fill="#1C1C1E"/>
<path d="M60.4087 13.9877C57.8735 10.927 52.9685 10.5085 50.0732 13.3016C51.9953 9.17518 58.9927 9.72991 60.4087 13.9877Z" fill="#1C1C1E"/>
<path d="M88.272 43L97.588 19.2H102.144L111.426 43H106.19L101.396 30.182C101.26 29.8193 101.09 29.3547 100.886 28.788C100.705 28.2213 100.512 27.6207 100.308 26.986C100.104 26.3513 99.9113 25.7507 99.73 25.184C99.5487 24.5947 99.4127 24.1073 99.322 23.722L100.24 23.688C100.104 24.2093 99.9453 24.7533 99.764 25.32C99.6053 25.864 99.4353 26.4307 99.254 27.02C99.0727 27.5867 98.88 28.142 98.676 28.686C98.472 29.23 98.2793 29.7627 98.098 30.284L93.304 43H88.272ZM92.59 38.002L94.256 33.888H105.17L106.87 38.002H92.59ZM114.802 43V17.84H119.63V43H114.802ZM125.244 43V17.84H130.072V43H125.244ZM144.615 43L153.931 19.2H158.487L167.769 43H162.533L157.739 30.182C157.603 29.8193 157.433 29.3547 157.229 28.788C157.048 28.2213 156.855 27.6207 156.651 26.986C156.447 26.3513 156.254 25.7507 156.073 25.184C155.892 24.5947 155.756 24.1073 155.665 23.722L156.583 23.688C156.447 24.2093 156.288 24.7533 156.107 25.32C155.948 25.864 155.778 26.4307 155.597 27.02C155.416 27.5867 155.223 28.142 155.019 28.686C154.815 29.23 154.622 29.7627 154.441 30.284L149.647 43H144.615ZM148.933 38.002L150.599 33.888H161.513L163.213 38.002H148.933ZM181.481 43.34C180.688 43.34 179.917 43.2267 179.169 43C178.421 42.7733 177.741 42.4673 177.129 42.082C176.517 41.674 176.007 41.2207 175.599 40.722C175.191 40.2007 174.93 39.668 174.817 39.124L175.905 38.716L175.667 42.932H171.111V17.84H175.939V29.23L175.021 28.856C175.157 28.312 175.418 27.7907 175.803 27.292C176.188 26.7707 176.676 26.3173 177.265 25.932C177.854 25.524 178.5 25.2067 179.203 24.98C179.906 24.7533 180.631 24.64 181.379 24.64C182.943 24.64 184.337 25.048 185.561 25.864C186.785 26.6573 187.748 27.7567 188.451 29.162C189.176 30.5673 189.539 32.1767 189.539 33.99C189.539 35.8033 189.188 37.4127 188.485 38.818C187.782 40.2233 186.819 41.334 185.595 42.15C184.394 42.9433 183.022 43.34 181.481 43.34ZM180.325 39.226C181.232 39.226 182.014 39.0107 182.671 38.58C183.351 38.1267 183.884 37.5147 184.269 36.744C184.654 35.9507 184.847 35.0327 184.847 33.99C184.847 32.97 184.654 32.0633 184.269 31.27C183.906 30.4767 183.385 29.8647 182.705 29.434C182.025 29.0033 181.232 28.788 180.325 28.788C179.418 28.788 178.625 29.0033 177.945 29.434C177.265 29.8647 176.732 30.4767 176.347 31.27C175.962 32.0633 175.769 32.97 175.769 33.99C175.769 35.0327 175.962 35.9507 176.347 36.744C176.732 37.5147 177.265 38.1267 177.945 38.58C178.625 39.0107 179.418 39.226 180.325 39.226ZM202.235 43.34C200.399 43.34 198.756 42.9433 197.305 42.15C195.877 41.334 194.744 40.2233 193.905 38.818C193.089 37.4127 192.681 35.8033 192.681 33.99C192.681 32.1767 193.089 30.5787 193.905 29.196C194.744 27.7907 195.877 26.68 197.305 25.864C198.756 25.048 200.399 24.64 202.235 24.64C204.048 24.64 205.669 25.048 207.097 25.864C208.548 26.68 209.681 27.7907 210.497 29.196C211.313 30.5787 211.721 32.1767 211.721 33.99C211.721 35.8033 211.313 37.4127 210.497 38.818C209.681 40.2233 208.548 41.334 207.097 42.15C205.669 42.9433 204.048 43.34 202.235 43.34ZM202.235 39.124C203.119 39.124 203.912 38.9087 204.615 38.478C205.318 38.0247 205.862 37.4127 206.247 36.642C206.655 35.8487 206.859 34.9647 206.859 33.99C206.859 32.9927 206.655 32.1087 206.247 31.338C205.862 30.5447 205.318 29.9327 204.615 29.502C203.912 29.0487 203.119 28.822 202.235 28.822C201.328 28.822 200.524 29.0487 199.821 29.502C199.118 29.9553 198.563 30.5673 198.155 31.338C197.747 32.1087 197.554 32.9927 197.577 33.99C197.554 34.9647 197.747 35.8487 198.155 36.642C198.563 37.4127 199.118 38.0247 199.821 38.478C200.524 38.9087 201.328 39.124 202.235 39.124ZM222.221 43.34C220.907 43.34 219.773 43.0567 218.821 42.49C217.892 41.9007 217.167 41.0733 216.645 40.008C216.147 38.92 215.897 37.6167 215.897 36.098V25.014H220.725V35.316C220.725 36.132 220.861 36.846 221.133 37.458C221.405 38.0473 221.791 38.5007 222.289 38.818C222.788 39.1353 223.4 39.294 224.125 39.294C224.647 39.294 225.134 39.2147 225.587 39.056C226.041 38.8747 226.426 38.6253 226.743 38.308C227.061 37.9907 227.31 37.6167 227.491 37.186C227.673 36.7553 227.763 36.2907 227.763 35.792V25.014H232.591V43H228.001L227.831 39.294L228.715 38.886C228.443 39.7247 227.99 40.484 227.355 41.164C226.721 41.844 225.961 42.3767 225.077 42.762C224.193 43.1473 223.241 43.34 222.221 43.34ZM239.863 43V20.458H244.691V43H239.863ZM236.497 29.332V25.014H248.363V29.332H236.497ZM263.976 43V19.2H273.734C275.479 19.2 277.055 19.4947 278.46 20.084C279.888 20.6507 281.112 21.4667 282.132 22.532C283.175 23.5747 283.968 24.8213 284.512 26.272C285.056 27.7227 285.328 29.332 285.328 31.1C285.328 32.8453 285.056 34.4547 284.512 35.928C283.968 37.3787 283.186 38.6367 282.166 39.702C281.146 40.7447 279.922 41.5607 278.494 42.15C277.066 42.7167 275.479 43 273.734 43H263.976ZM269.076 39.294L268.532 38.41H273.564C274.584 38.41 275.502 38.24 276.318 37.9C277.134 37.5373 277.825 37.05 278.392 36.438C278.981 35.8033 279.423 35.0327 279.718 34.126C280.013 33.2193 280.16 32.2107 280.16 31.1C280.16 29.9893 280.013 28.992 279.718 28.108C279.423 27.2013 278.981 26.4307 278.392 25.796C277.825 25.1613 277.134 24.674 276.318 24.334C275.502 23.9713 274.584 23.79 273.564 23.79H268.43L269.076 22.974V39.294ZM298.305 43.34C296.469 43.34 294.826 42.9433 293.375 42.15C291.947 41.334 290.814 40.2233 289.975 38.818C289.159 37.4127 288.751 35.8033 288.751 33.99C288.751 32.1767 289.159 30.5787 289.975 29.196C290.814 27.7907 291.947 26.68 293.375 25.864C294.826 25.048 296.469 24.64 298.305 24.64C300.118 24.64 301.739 25.048 303.167 25.864C304.618 26.68 305.751 27.7907 306.567 29.196C307.383 30.5787 307.791 32.1767 307.791 33.99C307.791 35.8033 307.383 37.4127 306.567 38.818C305.751 40.2233 304.618 41.334 303.167 42.15C301.739 42.9433 300.118 43.34 298.305 43.34ZM298.305 39.124C299.189 39.124 299.982 38.9087 300.685 38.478C301.388 38.0247 301.932 37.4127 302.317 36.642C302.725 35.8487 302.929 34.9647 302.929 33.99C302.929 32.9927 302.725 32.1087 302.317 31.338C301.932 30.5447 301.388 29.9327 300.685 29.502C299.982 29.0487 299.189 28.822 298.305 28.822C297.398 28.822 296.594 29.0487 295.891 29.502C295.188 29.9553 294.633 30.5673 294.225 31.338C293.817 32.1087 293.624 32.9927 293.647 33.99C293.624 34.9647 293.817 35.8487 294.225 36.642C294.633 37.4127 295.188 38.0247 295.891 38.478C296.594 38.9087 297.398 39.124 298.305 39.124ZM320.297 50.82C318.869 50.82 317.464 50.6047 316.081 50.174C314.699 49.766 313.577 49.2333 312.715 48.576L314.415 45.108C314.869 45.4253 315.39 45.7087 315.979 45.958C316.569 46.2073 317.181 46.4 317.815 46.536C318.473 46.672 319.141 46.74 319.821 46.74C321 46.74 321.963 46.5587 322.711 46.196C323.482 45.8333 324.06 45.2893 324.445 44.564C324.831 43.8613 325.023 42.9547 325.023 41.844V38.716L325.839 38.886C325.703 39.634 325.329 40.3253 324.717 40.96C324.105 41.572 323.335 42.0707 322.405 42.456C321.476 42.8187 320.524 43 319.549 43C317.872 43 316.387 42.6147 315.095 41.844C313.803 41.0733 312.783 40.008 312.035 38.648C311.287 37.288 310.913 35.724 310.913 33.956C310.913 32.1427 311.276 30.5447 312.001 29.162C312.749 27.7567 313.758 26.6573 315.027 25.864C316.319 25.048 317.781 24.64 319.413 24.64C320.093 24.64 320.739 24.7193 321.351 24.878C321.986 25.0367 322.564 25.2633 323.085 25.558C323.629 25.83 324.105 26.1473 324.513 26.51C324.944 26.85 325.295 27.224 325.567 27.632C325.839 28.04 326.009 28.448 326.077 28.856L325.091 29.128L325.227 25.014H329.851V41.64C329.851 43.1133 329.636 44.4167 329.205 45.55C328.775 46.6833 328.14 47.6353 327.301 48.406C326.485 49.1993 325.477 49.8 324.275 50.208C323.097 50.616 321.771 50.82 320.297 50.82ZM320.433 39.124C321.385 39.124 322.213 38.9087 322.915 38.478C323.641 38.0473 324.196 37.4467 324.581 36.676C324.967 35.9053 325.159 34.9987 325.159 33.956C325.159 32.936 324.967 32.0407 324.581 31.27C324.196 30.4767 323.641 29.8647 322.915 29.434C322.213 29.0033 321.385 28.788 320.433 28.788C319.504 28.788 318.677 29.0147 317.951 29.468C317.249 29.8987 316.705 30.4993 316.319 31.27C315.934 32.0407 315.741 32.936 315.741 33.956C315.741 34.976 315.934 35.8827 316.319 36.676C316.705 37.4467 317.249 38.0473 317.951 38.478C318.677 38.9087 319.504 39.124 320.433 39.124ZM341.048 43.34C339.371 43.34 337.875 43.068 336.56 42.524C335.268 41.9573 334.226 41.1867 333.432 40.212L336.424 37.628C337.127 38.376 337.909 38.92 338.77 39.26C339.632 39.5773 340.493 39.736 341.354 39.736C341.694 39.736 342 39.702 342.272 39.634C342.567 39.5433 342.816 39.43 343.02 39.294C343.224 39.1353 343.372 38.954 343.462 38.75C343.576 38.5233 343.632 38.2853 343.632 38.036C343.632 37.5373 343.428 37.1407 343.02 36.846C342.794 36.7327 342.442 36.5967 341.966 36.438C341.49 36.2567 340.878 36.064 340.13 35.86C338.974 35.5653 337.988 35.2253 337.172 34.84C336.379 34.432 335.744 33.9787 335.268 33.48C334.86 33.004 334.543 32.494 334.316 31.95C334.112 31.3833 334.01 30.76 334.01 30.08C334.01 29.264 334.192 28.5273 334.554 27.87C334.917 27.19 335.416 26.612 336.05 26.136C336.708 25.66 337.456 25.2973 338.294 25.048C339.133 24.776 340.017 24.64 340.946 24.64C341.876 24.64 342.782 24.7533 343.666 24.98C344.55 25.2067 345.366 25.5353 346.114 25.966C346.885 26.374 347.554 26.8613 348.12 27.428L345.536 30.284C345.128 29.8987 344.664 29.5473 344.142 29.23C343.644 28.9127 343.122 28.6633 342.578 28.482C342.034 28.3007 341.547 28.21 341.116 28.21C340.731 28.21 340.38 28.244 340.062 28.312C339.768 28.38 339.518 28.482 339.314 28.618C339.11 28.754 338.952 28.9353 338.838 29.162C338.748 29.366 338.702 29.5927 338.702 29.842C338.702 30.0913 338.759 30.3293 338.872 30.556C339.008 30.7827 339.19 30.9753 339.416 31.134C339.666 31.27 340.028 31.4287 340.504 31.61C341.003 31.7913 341.672 31.9953 342.51 32.222C343.598 32.5167 344.516 32.8453 345.264 33.208C346.035 33.5707 346.647 33.99 347.1 34.466C347.486 34.874 347.769 35.3387 347.95 35.86C348.132 36.3813 348.222 36.9593 348.222 37.594C348.222 38.7047 347.905 39.702 347.27 40.586C346.658 41.4473 345.808 42.1273 344.72 42.626C343.632 43.102 342.408 43.34 341.048 43.34Z" fill="white"/>
</svg>
